<svg width="122" height="120" viewBox="0 0 122 120" fill="none" xmlns="http://www.w3.org/2000/svg">
<path d="M87.3779 15.0168V28.8168H89.3792V32.1624L92.8388 28.8168H111.821V15.0168H87.3779Z" fill="#5200BC"/>
<path d="M104.22 21.9168C104.22 22.1385 104.287 22.3552 104.415 22.5395C104.542 22.7238 104.723 22.8675 104.934 22.9523C105.146 23.0371 105.379 23.0593 105.604 23.0161C105.828 22.9728 106.035 22.8661 106.197 22.7093C106.359 22.5526 106.469 22.3529 106.514 22.1355C106.558 21.9181 106.535 21.6927 106.448 21.4879C106.36 21.2831 106.212 21.1081 106.021 20.9849C105.831 20.8618 105.607 20.796 105.378 20.796C105.226 20.796 105.075 20.825 104.934 20.8813C104.794 20.9377 104.666 21.0202 104.559 21.1243C104.451 21.2284 104.366 21.3519 104.308 21.4879C104.249 21.6239 104.22 21.7696 104.22 21.9168Z" fill="white"/>
<path d="M98.4412 21.9168C98.4412 22.1385 98.5091 22.3552 98.6364 22.5395C98.7636 22.7238 98.9445 22.8675 99.1561 22.9523C99.3677 23.0371 99.6006 23.0593 99.8253 23.0161C100.05 22.9728 100.256 22.8661 100.418 22.7093C100.58 22.5526 100.691 22.3529 100.735 22.1355C100.78 21.9181 100.757 21.6927 100.669 21.4879C100.582 21.2831 100.433 21.1081 100.243 20.9849C100.052 20.8618 99.8284 20.796 99.5993 20.796C99.2922 20.796 98.9976 20.9141 98.7804 21.1243C98.5632 21.3345 98.4412 21.6196 98.4412 21.9168Z" fill="white"/>
<path d="M92.6628 21.9168C92.6628 22.1386 92.7308 22.3554 92.8581 22.5398C92.9855 22.7241 93.1665 22.8678 93.3783 22.9525C93.5901 23.0373 93.8231 23.0593 94.0478 23.0159C94.2725 22.9725 94.4789 22.8655 94.6408 22.7085C94.8026 22.5515 94.9127 22.3516 94.9571 22.134C95.0016 21.9164 94.9783 21.691 94.8902 21.4862C94.8022 21.2815 94.6534 21.1066 94.4626 20.9837C94.2718 20.8609 94.0476 20.7955 93.8185 20.796C93.5117 20.7967 93.2178 20.915 93.0011 21.1251C92.7845 21.3353 92.6628 21.62 92.6628 21.9168Z" fill="white"/>
<path d="M46.3736 58.7352V78.0408H43.5736V82.7232L38.7352 78.0408H12.1793V58.7352H46.3736Z" fill="#CBC7FF"/>
<path d="M46.376 58.7352C46.3934 64.224 46.5199 72.6168 46.5248 78.0408V78.1824H46.376L43.5761 78.1944L43.7373 78.0384L43.7596 82.7208V83.1504L43.4447 82.848L38.5864 78.1824C32.7435 78.372 18.4091 78.2088 11.9363 78.2736V78.0336L11.9685 58.728V58.5216H12.1793C20.7056 58.56 37.8523 58.6512 46.3736 58.7256L46.376 58.7352ZM46.376 58.7352C37.8548 58.8096 20.7006 58.9008 12.1818 58.9392L12.3926 58.7352L12.4248 78.0408L12.1768 77.8008C18.848 77.8008 32.1532 77.82 38.822 77.832L38.8815 77.892L43.7026 82.5912L43.3876 82.7184L43.41 78.036V77.8776H43.5712L46.3711 77.8896L46.2223 78.0336C46.2595 72.6456 46.324 64.176 46.3711 58.728L46.376 58.7352Z" fill="#EBEBEB"/>
<path d="M22.816 68.4001C22.8165 68.7106 22.7218 69.0143 22.5439 69.2728C22.366 69.5312 22.1128 69.7327 21.8165 69.8519C21.5202 69.9711 21.194 70.0025 20.8792 69.9422C20.5644 69.8819 20.2752 69.7326 20.0481 69.5132C19.821 69.2938 19.6663 69.0141 19.6035 68.7096C19.5407 68.405 19.5727 68.0893 19.6954 67.8024C19.8181 67.5154 20.026 67.2702 20.2927 67.0976C20.5595 66.925 20.8732 66.8329 21.1941 66.8329C21.407 66.8326 21.6178 66.8729 21.8146 66.9515C22.0114 67.0301 22.1902 67.1455 22.3408 67.2911C22.4915 67.4366 22.611 67.6095 22.6925 67.7998C22.774 67.9901 22.816 68.1941 22.816 68.4001Z" fill="#EBEBEB"/>
<path d="M30.8983 68.4001C30.8988 68.7106 30.8041 69.0143 30.6262 69.2728C30.4483 69.5312 30.1952 69.7327 29.8988 69.8519C29.6025 69.9711 29.2763 70.0025 28.9615 69.9422C28.6467 69.8819 28.3575 69.7326 28.1304 69.5132C27.9034 69.2938 27.7486 69.0141 27.6859 68.7096C27.6231 68.405 27.655 68.0893 27.7777 67.8024C27.9004 67.5154 28.1083 67.2702 28.3751 67.0976C28.6419 66.925 28.9555 66.8329 29.2764 66.8329C29.4893 66.8326 29.7002 66.8729 29.8969 66.9515C30.0937 67.0301 30.2725 67.1455 30.4232 67.2911C30.5738 67.4366 30.6933 67.6095 30.7748 67.7998C30.8564 67.9901 30.8983 68.1941 30.8983 68.4001Z" fill="#EBEBEB"/>
<path d="M38.9832 68.4001C38.9836 68.7106 38.8889 69.0143 38.711 69.2728C38.5331 69.5312 38.28 69.7327 37.9836 69.8519C37.6873 69.9711 37.3611 70.0025 37.0463 69.9422C36.7316 69.8819 36.4423 69.7326 36.2152 69.5132C35.9882 69.2938 35.8334 69.0141 35.7707 68.7096C35.7079 68.405 35.7399 68.0893 35.8625 67.8024C35.9852 67.5154 36.1931 67.2702 36.4599 67.0976C36.7267 66.925 37.0403 66.8329 37.3612 66.8329C37.5741 66.8326 37.785 66.8729 37.9817 66.9515C38.1785 67.0301 38.3573 67.1455 38.508 67.2911C38.6586 67.4366 38.7781 67.6095 38.8596 67.7998C38.9412 67.9901 38.9832 68.1941 38.9832 68.4001Z" fill="#EBEBEB"/>
<path d="M16.7028 22.2145L17.7891 23.7817L19.6664 24.2977L18.4611 25.7809L18.5331 27.6673L16.7028 27.0169L14.8726 27.6673L14.9445 25.7809L13.7417 24.2977L15.6166 23.7817L16.7028 22.2145Z" fill="#EBEBEB"/>
<path d="M25.0828 22.2145L26.169 23.7817L28.0439 24.2977L26.8411 25.7809L26.913 27.6673L25.0828 27.0169L23.2501 27.6673L23.3245 25.7809L22.1192 24.2977L23.9965 23.7817L25.0828 22.2145Z" fill="#EBEBEB"/>
<path d="M33.4602 22.2145L34.5489 23.7817L36.4238 24.2977L35.2185 25.7809L35.2929 27.6673L33.4602 27.0169L31.63 27.6673L31.7019 25.7809L30.4991 24.2977L32.374 23.7817L33.4602 22.2145Z" fill="#EBEBEB"/>
<path d="M41.8401 22.2145L42.9263 23.7817L44.8037 24.2977L43.5984 25.7809L43.6703 27.6673L41.8401 27.0169L40.0099 27.6673L40.0818 25.7809L38.8765 24.2977L40.7539 23.7817L41.8401 22.2145Z" fill="#EBEBEB"/>
<path d="M52.1817 27.8401L50.22 27.1441L48.2583 27.8401L48.3352 25.8193L47.0456 24.2401L49.0544 23.6881L50.22 22.0081L51.3831 23.6881L53.3944 24.2401L52.1048 25.8313L52.1817 27.8401ZM50.22 26.8801L51.9188 27.4825L51.8519 25.7329L52.9703 24.3529L51.2343 23.8729L50.225 22.4161L49.2156 23.8729L47.4796 24.3529L48.5981 25.7329L48.5311 27.4825L50.22 26.8801Z" fill="#EBEBEB"/>
<path d="M50.22 27.0169V22.2145L49.1338 23.7817L47.2564 24.2977L48.4617 25.7809L48.3873 27.6673L50.22 27.0169Z" fill="#EBEBEB"/>
<path fill-rule="evenodd" clip-rule="evenodd" d="M94.0838 58.8432C93.5878 58.548 93.1736 58.1232 92.5239 58.1832C92.2759 58.2096 92.328 58.008 92.3255 57.8784L92.2957 50.784C92.2957 50.6136 92.2957 50.472 92.4991 50.376C94.3616 49.4592 95.1651 47.664 96.3034 46.1304C96.887 45.3681 97.3059 44.4998 97.5351 43.5774C97.7644 42.655 97.7992 41.6974 97.6376 40.7616C97.5583 40.2288 97.8137 39.9912 98.3097 39.8808C98.9049 39.7464 99.5001 39.9048 99.706 40.3008C100.245 41.2647 100.609 42.3112 100.782 43.3944C100.891 44.292 100.564 45.1656 100.45 46.0536C100.368 46.7016 100.202 47.3448 100.088 48.0024C100.252 48.1176 100.443 48.0576 100.619 48.0576C102.682 48.0576 104.749 48.052 106.819 48.0408C107.687 48.0408 108.116 48.2808 108.237 48.8376C108.305 49.1812 108.255 49.5369 108.093 49.85C107.932 50.1631 107.669 50.4162 107.344 50.5704C107.191 50.6472 106.91 50.5704 106.893 50.8104C106.876 51.0504 107.163 51.024 107.305 51.12C108.049 51.6144 107.92 52.6368 107.057 53.232C106.848 53.3736 106.447 53.3088 106.437 53.604C106.437 53.844 106.811 53.844 106.982 54C107.587 54.576 107.29 55.6536 106.39 56.0928C106.266 56.1297 106.145 56.1746 106.027 56.2272C105.926 56.2944 105.827 56.3712 106.027 56.5056C106.923 57.12 106.908 57.9816 106.01 58.6128L105.742 58.8C105.417 58.9925 105.035 59.0768 104.656 59.04C101.42 59.0576 98.1832 59.0688 94.9444 59.0736C94.7923 59.0926 94.6378 59.0821 94.49 59.0425C94.3423 59.0029 94.2041 58.9352 94.0838 58.8432Z" fill="#CBC7FF"/>
<path fill-rule="evenodd" clip-rule="evenodd" d="M84.8656 54.7008C84.8656 53.2008 84.8656 51.696 84.8433 50.196C84.8433 49.8888 84.8731 49.74 85.26 49.7424C87.1547 49.7592 89.0444 49.7424 90.9392 49.7256C91.3112 49.7256 91.3682 49.8456 91.3682 50.1648C91.3682 53.1872 91.379 56.2096 91.4004 59.232C91.4004 59.6184 91.2963 59.7264 90.9044 59.712C89.0668 59.6976 87.2316 59.7 85.3964 59.7336C84.94 59.7336 84.8756 59.5872 84.878 59.2008C84.8904 57.708 84.8706 56.2056 84.8656 54.7008Z" fill="#CBC7FF"/>
<path fill-rule="evenodd" clip-rule="evenodd" d="M58.2329 78.9216C58.6 79.1472 58.9199 79.4712 59.4134 79.4256C59.6044 79.4088 59.5622 79.56 59.5622 79.6656C59.5622 81.4624 59.5622 83.2576 59.5622 85.0512C59.5622 85.1808 59.5622 85.2912 59.406 85.3608C57.9899 86.052 57.3749 87.4104 56.5093 88.5744C56.0626 89.1523 55.7412 89.8117 55.5643 90.5128C55.3875 91.2139 55.3588 91.9423 55.4801 92.6544C55.5397 93.06 55.3462 93.24 54.9693 93.3216C54.5154 93.4224 54.0665 93.3024 53.9103 93C53.5023 92.2672 53.2288 91.4714 53.1018 90.648C53.02 89.9688 53.2729 89.304 53.3498 88.632C53.4143 88.1376 53.5333 87.6528 53.6301 87.1536C53.5061 87.0648 53.3622 87.1104 53.2283 87.108H48.5436C47.8814 87.108 47.5516 86.9232 47.4673 86.5008C47.417 86.2396 47.4564 85.9697 47.5796 85.7322C47.7027 85.4947 47.9028 85.3027 48.1493 85.1856C48.2658 85.128 48.4791 85.1856 48.494 85.0032C48.5089 84.8208 48.2881 84.84 48.1815 84.7632C47.6136 84.3888 47.7202 83.6112 48.3749 83.1624C48.5337 83.0544 48.8387 83.1048 48.8461 82.8816C48.8461 82.7016 48.5634 82.704 48.4345 82.5792C47.9757 82.14 48.2038 81.324 48.8883 80.9928C48.9825 80.9649 49.0745 80.9304 49.1636 80.8896C49.2405 80.8392 49.3173 80.784 49.1636 80.6784C48.4865 80.1984 48.5014 79.5576 49.1834 79.08L49.3868 78.9384C49.6353 78.7953 49.9252 78.7346 50.2126 78.7656C52.6695 78.7656 55.1263 78.7656 57.5832 78.7656C57.8125 78.7328 58.046 78.7889 58.2329 78.9216Z" fill="#CBC7FF"/>
<path fill-rule="evenodd" clip-rule="evenodd" d="M65.2241 82.0801C65.2241 83.2201 65.2241 84.3625 65.2241 85.5025C65.2241 85.7425 65.2018 85.8481 64.9091 85.8433C63.4707 85.8273 62.0331 85.8273 60.5964 85.8433C60.3162 85.8433 60.2715 85.7521 60.274 85.5097C60.274 83.2153 60.274 80.9209 60.274 78.6265C60.274 78.3337 60.3558 78.2497 60.6584 78.2569C62.0522 78.2713 63.4459 78.2737 64.8397 78.2569C65.1869 78.2569 65.234 78.3697 65.229 78.6649C65.2067 79.8073 65.2241 80.9473 65.2241 82.0801Z" fill="#CBC7FF"/>
<path d="M10.8128 108.72C43.6058 108.571 80.3942 108.571 113.187 108.72C80.3942 108.866 43.6058 108.866 10.8128 108.72Z" fill="#263238"/>
<path d="M78.4251 22.9728L79.6849 24.7296L81.8028 25.3464L80.4611 27.048L80.5107 29.1864L78.4251 28.4784L76.3394 29.1864L76.389 27.048L75.0498 25.3464L77.1677 24.7296L78.4251 22.9728Z" fill="#808080"/>
<path d="M35.0052 52.9128L36.2626 54.672L38.3805 55.2864L37.0413 56.988L37.0909 59.1264L35.0052 58.4208L32.917 59.1264L32.9691 56.988L31.6274 55.2864L33.7454 54.672L35.0052 52.9128Z" fill="#808080"/>
<path d="M50.3316 72.2544L50.9615 73.1328L52.0205 73.44L51.3509 74.292L51.3757 75.36L50.3316 75.0072L49.2875 75.36L49.3123 74.292L48.6452 73.44L49.7017 73.1328L50.3316 72.2544Z" fill="#808080"/>
<path d="M90.6837 50.4528L91.3136 51.3336L92.3701 51.6408L91.7005 52.4904L91.7278 53.5608L90.6837 53.208L89.6396 53.5608L89.6644 52.4904L88.9948 51.6408L90.0538 51.3336L90.6837 50.4528Z" fill="#1B1464"/>
<path d="M71.1711 19.308L71.801 20.1864L72.8599 20.4936L72.1903 21.3456L72.2151 22.416L71.1711 22.0608L70.1295 22.416L70.1543 21.3456L69.4846 20.4936L70.5436 20.1864L71.1711 19.308Z" fill="#808080"/>
<path d="M52.7893 108.607C53.3969 108.818 71.3496 109.162 72.0266 108.763C72.1035 108.722 72.3961 102.974 72.3961 102.974C72.3763 102.893 72.6764 102.338 73.1401 101.568C74.4198 99.4079 76.9221 95.5343 76.9221 95.5343L66.2581 92.4143L61.8809 100.898L60.7649 103.058C60.7649 103.058 58.3172 103.982 56.1819 104.906C54.8675 105.473 53.7217 105.994 53.4539 106.186C52.7669 106.711 52.1841 108.398 52.7893 108.607Z" fill="#FFC4C0"/>
<path d="M52.7893 108.607C53.3969 108.818 71.3496 109.162 72.0266 108.763C72.1035 108.722 72.3962 102.974 72.3962 102.974C72.3763 102.893 72.6764 102.338 73.1402 101.568L61.8909 100.901L60.7749 103.061C60.7749 103.061 58.3271 103.985 56.1918 104.909C54.8774 105.475 53.7317 105.996 53.4638 106.188C52.767 106.711 52.1842 108.398 52.7893 108.607Z" fill="white"/>
<path d="M52.7149 108.672C53.3398 108.886 71.3149 109.183 72.0093 108.775C72.2722 108.622 72.5896 105.943 72.3962 102.974L60.8071 102.794C60.8071 102.794 54.0938 105.674 53.3845 106.193C52.6752 106.711 52.08 108.458 52.7149 108.672Z" fill="#808080"/>
<path opacity="0.1" d="M72.0093 108.775C71.7613 108.924 69.2019 108.979 66.0275 108.979L72.1134 102.979H72.3937C72.5896 105.943 72.2722 108.622 72.0093 108.775Z" fill="black"/>
<path d="M52.9852 107.978C56.0009 107.957 68.1603 108.146 71.1438 108.346C71.1661 108.346 71.1661 108.365 71.1438 108.365C68.1554 108.449 55.9959 108.166 52.9852 108.026C52.9207 108.024 52.9207 107.981 52.9852 107.978Z" fill="#263238"/>
<path d="M54.56 105.586C54.8953 105.582 55.2275 105.647 55.5358 105.774C55.844 105.902 56.1215 106.09 56.3506 106.327C56.7666 106.751 56.9983 107.313 56.9978 107.897C56.9978 107.914 56.9631 107.914 56.9606 107.897C56.8679 107.318 56.5838 106.784 56.1511 106.374C55.7183 105.964 55.1601 105.701 54.56 105.624C54.5547 105.624 54.5497 105.622 54.546 105.618C54.5423 105.615 54.5402 105.61 54.5402 105.605C54.5402 105.6 54.5423 105.595 54.546 105.591C54.5497 105.588 54.5547 105.586 54.56 105.586Z" fill="#263238"/>
<path d="M59.8548 103.073C61.0625 103.073 62.4538 103.51 63.1854 104.477C63.2152 104.515 63.1581 104.554 63.1234 104.534C62.078 103.982 60.9748 103.54 59.8324 103.214C59.8146 103.21 59.7992 103.199 59.789 103.184C59.7789 103.169 59.7748 103.152 59.7776 103.134C59.7804 103.116 59.7898 103.1 59.8041 103.089C59.8183 103.078 59.8364 103.072 59.8548 103.073Z" fill="#263238"/>
<path d="M58.9174 103.406C60.1251 103.406 61.5164 103.846 62.248 104.813C62.2778 104.851 62.2207 104.89 62.186 104.87C61.1406 104.318 60.0374 103.876 58.895 103.55C58.8785 103.544 58.8646 103.533 58.8556 103.518C58.8467 103.504 58.8432 103.486 58.8458 103.47C58.8484 103.453 58.857 103.437 58.87 103.426C58.883 103.414 58.8997 103.407 58.9174 103.406Z" fill="#263238"/>
<path d="M57.9824 103.742C59.1877 103.742 60.5789 104.182 61.3105 105.149C61.3403 105.187 61.2833 105.226 61.2485 105.206C60.2032 104.654 59.0999 104.212 57.9576 103.886C57.9409 103.88 57.9269 103.869 57.918 103.854C57.9092 103.839 57.9059 103.822 57.9088 103.805C57.9117 103.788 57.9207 103.772 57.9341 103.761C57.9475 103.749 57.9646 103.743 57.9824 103.742Z" fill="#263238"/>
<path d="M57.04 104.078C58.2453 104.078 59.6366 104.518 60.3682 105.485C60.3979 105.523 60.3409 105.562 60.3062 105.542C59.2608 104.99 58.1576 104.548 57.0152 104.222C56.9985 104.216 56.9846 104.205 56.9757 104.19C56.9668 104.175 56.9635 104.158 56.9664 104.141C56.9694 104.124 56.9783 104.108 56.9917 104.097C57.0051 104.085 57.0222 104.079 57.04 104.078Z" fill="#263238"/>
<path d="M70.432 105.564C71.7861 105.59 71.7439 107.626 70.3898 107.599C69.0357 107.573 69.068 105.538 70.432 105.564Z" fill="#263238"/>
<path d="M58.6743 101.647C59.3092 102.47 60.2937 102.998 61.1419 103.589C61.1619 103.6 61.1843 103.606 61.2074 103.607C61.2304 103.609 61.2534 103.605 61.2745 103.596C61.2957 103.587 61.3144 103.573 61.3293 103.556C61.3442 103.539 61.3547 103.519 61.3601 103.498C61.3651 103.499 61.3703 103.499 61.3752 103.498C61.3802 103.497 61.3848 103.494 61.3885 103.491C61.3923 103.487 61.395 103.483 61.3966 103.479C61.3981 103.474 61.3984 103.469 61.3973 103.464C61.3279 102.392 60.9687 101.357 60.3557 100.462C59.9887 99.9479 59.2273 99.4559 58.6073 99.9359C57.9873 100.416 58.3023 101.167 58.6743 101.647ZM58.6346 100.687C58.7785 99.4199 59.9441 100.414 60.1995 100.805C60.3602 101.06 60.5027 101.325 60.6261 101.599C60.8914 102.163 61.07 102.754 61.2758 103.339C60.8765 103.025 60.4525 102.746 60.0358 102.449C59.5547 102.084 58.5553 101.378 58.6346 100.68V100.687Z" fill="#263238"/>
<path d="M65.6952 102.792C65.6134 102.029 64.7181 101.849 64.0807 101.957C62.9905 102.161 61.9752 102.639 61.137 103.344C61.1329 103.347 61.1295 103.35 61.1272 103.354C61.1249 103.359 61.1237 103.363 61.1237 103.368C61.1237 103.373 61.1249 103.377 61.1272 103.382C61.1295 103.386 61.1329 103.389 61.137 103.392C61.1245 103.411 61.1168 103.433 61.1146 103.455C61.1123 103.478 61.1156 103.5 61.124 103.521C61.1325 103.542 61.1459 103.561 61.1632 103.576C61.1805 103.591 61.2013 103.602 61.2238 103.608C62.253 103.778 63.3318 104.088 64.3833 103.946C65.0008 103.867 65.7721 103.514 65.6952 102.792ZM62.8432 103.56C62.3348 103.486 61.8314 103.39 61.3205 103.334C61.8958 103.066 62.4563 102.775 63.0565 102.562C63.3455 102.456 63.6412 102.367 63.9418 102.298C64.4081 102.202 65.9581 102.298 65.1248 103.296C64.666 103.841 63.4483 103.646 62.8432 103.56Z" fill="#263238"/>
<path d="M73.9486 101.52L62 99.7751C62 99.7751 67.7486 88.6871 71.305 82.6703C73.289 79.3247 78.6978 79.1615 81.3291 83.1695C84.8458 88.5239 87.5762 93.5423 89.1386 96.3239L91.8518 96.5495L91.264 100.838L82.2492 102.792C78.7946 103.19 76.3716 97.2407 76.3146 97.3415C75.8706 98.1239 73.9486 101.52 73.9486 101.52Z" fill="#37474F"/>
<path d="M76.2451 97.368C76.5849 96.6936 76.8502 95.9784 77.1528 95.2896C77.4553 94.6008 77.7381 93.9528 78.0282 93.2832C78.616 91.932 79.2236 90.5856 79.7915 89.2272C80.1114 88.464 80.4041 87.6912 80.7041 86.9208C80.7041 86.904 80.7389 86.9208 80.7339 86.9208C80.5033 87.6408 80.2627 88.3752 80.0097 89.0976C80.0767 88.9728 80.1437 88.8576 80.2131 88.7256C80.4065 88.3944 80.6049 88.0656 80.8033 87.7368C80.8033 87.7248 80.8306 87.7368 80.8232 87.7488C80.6397 88.08 80.4561 88.4088 80.2652 88.7352C80.1709 88.896 80.0668 89.0568 79.9676 89.2152C79.2707 91.2405 78.4423 93.2213 77.4876 95.1456C77.1057 95.9016 76.6617 96.624 76.2798 97.3776C76.2674 97.4136 76.2327 97.392 76.2451 97.368Z" fill="#263238"/>
<path d="M81.096 87.7583C82.1252 89.5391 83.1792 91.3079 84.2133 93.0863C84.7366 93.9839 85.2599 94.8839 85.7757 95.7839C86.0237 96.2087 86.2569 96.6383 86.5197 97.0583C86.7363 97.454 87.0638 97.7826 87.4646 98.0063C87.9399 98.2274 88.4389 98.3972 88.9526 98.5127C89.5354 98.6783 90.1133 98.8559 90.6886 99.0095C90.7134 99.0095 90.701 99.0575 90.6762 99.0503C90.1529 98.9159 89.6272 98.8103 89.1039 98.6735C88.6219 98.5749 88.1458 98.4507 87.6779 98.3015C87.2643 98.1669 86.8982 97.9224 86.6214 97.5959C86.3387 97.2171 86.0898 96.8156 85.8774 96.3959C84.8441 94.5655 83.8198 92.7311 82.8047 90.8927C82.2269 89.8487 81.654 88.7999 81.0687 87.7583C81.096 87.7559 81.096 87.7511 81.096 87.7583Z" fill="#263238"/>
<path d="M74.2189 99.9047C73.5022 99.7799 72.7681 99.7175 72.0465 99.6287L69.874 99.3599C68.4281 99.1751 63.5103 98.4191 63.1383 98.2991C63.1135 98.2991 63.1234 98.2535 63.1383 98.2535C63.4905 98.2535 66.712 98.6591 67.4337 98.7599C68.8795 98.9663 70.3154 99.2159 71.7538 99.4487C72.1655 99.5159 72.5747 99.5927 72.9938 99.6623C73.4129 99.7319 73.8147 99.8183 74.2338 99.8711C74.2512 99.8711 74.2437 99.9095 74.2189 99.9047Z" fill="#263238"/>
<path d="M66.2309 111.223C66.459 110.64 77.9067 97.2529 78.6582 97.0177C78.745 96.9865 83.4346 100.524 83.4346 100.524C83.6231 100.79 92.9057 99.2953 92.9057 99.2953L92.504 110.038L75.764 108.989C75.764 108.989 73.4427 110.189 71.3248 111.149C70.0228 111.744 68.8696 112.246 68.5447 112.313C67.704 112.481 65.9977 111.804 66.2309 111.223Z" fill="#FFC4C0"/>
<path d="M68.5472 112.32C68.8721 112.253 70.0352 111.754 71.3273 111.156C73.4427 110.196 75.764 108.996 75.764 108.996L79.484 109.236L85.7311 100.356C84.4415 100.522 83.4793 100.613 83.4173 100.526C83.4173 100.526 78.7301 96.9912 78.6433 97.0224C77.8993 97.2624 66.4442 110.645 66.216 111.228C65.9878 111.811 67.704 112.481 68.5472 112.32Z" fill="white"/>
<path d="M66.1292 111.237C66.3772 110.64 77.867 97.2647 78.6383 97.0223C78.9309 96.9287 81.2348 98.4431 83.4346 100.524L76.012 109.14C76.012 109.14 69.3829 112.188 68.5075 112.365C67.632 112.543 65.8911 111.84 66.1292 111.237Z" fill="#808080"/>
<path d="M66.8484 111.492C68.8324 109.296 76.6196 100.253 78.4101 97.9368C78.4225 97.9176 78.4101 97.908 78.3953 97.9248C76.379 100.061 68.6662 109.162 66.8112 111.461C66.7715 111.509 66.8062 111.538 66.8484 111.492Z" fill="#263238"/>
<path d="M69.745 111.905C69.9658 111.661 70.132 111.375 70.2332 111.066C70.3344 110.756 70.3683 110.43 70.3328 110.107C70.2721 109.527 69.9825 108.991 69.5243 108.612C69.5243 108.6 69.4896 108.624 69.502 108.638C69.8957 109.084 70.1293 109.64 70.1677 110.225C70.2062 110.81 70.0474 111.391 69.7153 111.881C69.7132 111.885 69.7126 111.889 69.7135 111.893C69.7144 111.898 69.7167 111.902 69.7202 111.904C69.7237 111.907 69.728 111.909 69.7326 111.909C69.7371 111.909 69.7415 111.907 69.745 111.905Z" fill="#263238"/>
<path d="M75.1737 109.656C75.9599 108.768 76.5253 107.465 76.2476 106.296C76.2352 106.25 76.1682 106.267 76.1608 106.296C75.912 107.423 75.5387 108.522 75.0472 109.572C75.0357 109.588 75.0314 109.608 75.0351 109.628C75.0388 109.647 75.0503 109.664 75.0671 109.675C75.0839 109.686 75.1045 109.691 75.1245 109.687C75.1445 109.683 75.1622 109.672 75.1737 109.656Z" fill="#263238"/>
<path d="M74.3008 110.124C75.0845 109.236 75.6499 107.933 75.3721 106.764C75.3721 106.718 75.2953 106.735 75.2853 106.764C75.0363 107.891 74.663 108.988 74.1718 110.038C74.16 110.054 74.1554 110.075 74.1591 110.094C74.1629 110.114 74.1746 110.132 74.1917 110.143C74.2088 110.155 74.2299 110.159 74.2503 110.155C74.2708 110.152 74.2889 110.141 74.3008 110.124Z" fill="#263238"/>
<path d="M73.4253 110.592C74.209 109.704 74.7769 108.401 74.4967 107.232C74.4967 107.186 74.4198 107.203 74.4124 107.232C74.1622 108.358 73.7889 109.456 73.2989 110.506C73.293 110.514 73.2888 110.523 73.2866 110.532C73.2844 110.542 73.2841 110.552 73.2858 110.562C73.2876 110.571 73.2912 110.58 73.2967 110.589C73.3021 110.597 73.3092 110.604 73.3175 110.61C73.3258 110.616 73.3351 110.62 73.3451 110.622C73.355 110.624 73.3652 110.624 73.3753 110.623C73.3853 110.621 73.3949 110.617 73.4035 110.612C73.412 110.607 73.4195 110.6 73.4253 110.592Z" fill="#263238"/>
<path d="M72.5499 111.06C73.3361 110.172 73.9015 108.869 73.6238 107.7C73.6114 107.654 73.5444 107.671 73.537 107.7C73.2862 108.83 72.9104 109.931 72.416 110.983C72.4055 111 72.4024 111.021 72.4075 111.04C72.4127 111.06 72.4255 111.076 72.4433 111.086C72.461 111.097 72.4822 111.1 72.5022 111.095C72.5222 111.09 72.5394 111.077 72.5499 111.06Z" fill="#263238"/>
<path d="M80.1189 100.279C80.9819 99.2687 79.3624 97.9703 78.4969 98.9807C77.6314 99.9911 79.2558 101.28 80.1189 100.279Z" fill="#263238"/>
<path d="M76.8155 112.618C77.5967 112.476 77.7058 111.598 77.5446 110.993C77.244 109.959 76.6675 109.019 75.8731 108.269C75.8699 108.265 75.8658 108.262 75.8614 108.26C75.8569 108.258 75.852 108.257 75.8471 108.257C75.8421 108.257 75.8373 108.258 75.8328 108.26C75.8283 108.262 75.8243 108.265 75.821 108.269C75.8003 108.259 75.7775 108.253 75.7544 108.253C75.7312 108.253 75.7084 108.259 75.6877 108.269C75.667 108.279 75.6489 108.293 75.6351 108.311C75.6212 108.329 75.6118 108.35 75.6078 108.372C75.516 109.378 75.2878 110.443 75.5185 111.446C75.6524 112.037 76.0789 112.75 76.8155 112.618ZM75.7913 109.92C75.8235 109.423 75.883 108.931 75.8954 108.434C76.2371 108.956 76.5508 109.494 76.8354 110.047C76.9698 110.316 77.085 110.593 77.1801 110.878C77.3189 111.319 77.3363 112.824 76.2501 112.102C75.6524 111.713 75.7516 110.52 75.7913 109.92Z" fill="#263238"/>
<path d="M77.4454 105.761C76.6493 106.442 76.1856 107.441 75.6499 108.3C75.6394 108.32 75.6341 108.343 75.6343 108.365C75.6346 108.388 75.6404 108.41 75.6513 108.43C75.6622 108.45 75.6779 108.467 75.6971 108.48C75.7163 108.493 75.7384 108.501 75.7615 108.504C75.7615 108.523 75.7739 108.542 75.7987 108.538C76.8975 108.382 77.9344 107.948 78.8045 107.28C79.3005 106.884 79.7493 106.109 79.2037 105.552C78.6581 104.995 77.9092 105.36 77.4454 105.761ZM78.4374 105.643C79.7543 105.677 78.8243 106.884 78.4374 107.162C78.1882 107.34 77.9263 107.5 77.6537 107.642C77.0888 107.927 76.5094 108.183 75.9177 108.41C76.2079 108 76.4584 107.57 76.7337 107.15C77.0685 106.646 77.7133 105.626 78.4399 105.643H78.4374Z" fill="#263238"/>
<path d="M89.9892 95.9544C89.9892 95.9544 101.866 94.716 106.566 95.9424C113.12 97.6488 113.869 105.269 108.822 108.168C102.424 111.84 80.2453 109.795 80.2453 109.795L86.4453 99.6936C86.4453 99.6936 95.7379 98.0136 104.068 98.6688L87.2612 100.68L89.9892 95.9544Z" fill="#37474F"/>
<path d="M86.0088 100.373C86.0153 100.356 86.0202 100.338 86.0237 100.32C86.0264 100.304 86.0305 100.289 86.0361 100.274L86.0659 100.171C86.0886 100.1 86.1151 100.031 86.1452 99.9624C86.175 99.8928 86.2048 99.828 86.2395 99.7608C86.2738 99.6954 86.3137 99.6328 86.3585 99.5736H86.3759H86.3908H86.4081C87.4274 99.4152 94.3441 98.6568 95.3783 98.5752C96.4124 98.4936 97.4516 98.4336 98.4907 98.3856C100.561 98.2812 102.636 98.2884 104.706 98.4072C104.899 98.4072 105.092 98.436 105.286 98.4504C105.328 98.4504 105.373 98.4336 105.415 98.424C105.517 98.4024 105.616 98.3808 105.717 98.364C105.906 98.3328 106.094 98.3112 106.283 98.2896C106.677 98.2416 107.074 98.2152 107.466 98.1528C107.491 98.1528 107.498 98.1888 107.466 98.1936C107.069 98.268 106.68 98.3736 106.283 98.448L105.941 98.5104C106.697 98.5848 107.453 98.6784 108.207 98.784C108.23 98.784 108.23 98.8272 108.207 98.8248C107.181 98.7168 106.141 98.664 105.11 98.64C104.078 98.616 103.059 98.5968 102.032 98.616C99.9564 98.6544 97.8781 98.7648 95.8073 98.9088C94.6442 98.988 87.5861 99.7848 86.4205 99.7872H86.4056C86.3967 99.8162 86.385 99.8443 86.3709 99.8712C86.3362 99.9384 86.3015 100.003 86.2643 100.068C86.2271 100.133 86.1924 100.19 86.1502 100.248L86.0907 100.337L86.0584 100.38C86.0463 100.394 86.0355 100.41 86.0262 100.426C86.0312 100.418 85.994 100.399 86.0088 100.373Z" fill="#263238"/>
<path d="M83.4272 109.164C83.7942 108.583 84.1116 107.964 84.4489 107.359C84.7862 106.754 85.126 106.159 85.4657 105.554C86.1452 104.354 88.5682 100.32 88.8013 100.034C88.8162 100.018 88.8435 100.034 88.836 100.061C88.717 100.375 87.1968 103.049 86.852 103.644C86.1527 104.844 85.4236 106.001 84.7044 107.174C84.4985 107.51 84.2877 107.842 84.0794 108.175C83.8711 108.509 83.6504 108.835 83.4569 109.178C83.4445 109.2 83.4148 109.186 83.4272 109.164Z" fill="#263238"/>
<path d="M89.1783 101.148C89.7958 101.018 90.4183 100.944 91.0482 100.846C91.6781 100.747 92.2882 100.649 92.9206 100.553C94.1672 100.358 95.4171 100.175 96.6704 100.006C99.1652 99.6673 101.668 99.4033 104.18 99.2521C105.596 99.1681 107.014 99.1321 108.433 99.0817C108.463 99.0817 108.46 99.1297 108.433 99.1321C105.903 99.1837 103.378 99.3664 100.869 99.6793C98.389 99.9529 95.909 100.261 93.429 100.603L91.3284 100.896C90.6192 100.997 89.9074 101.136 89.1932 101.194C89.1871 101.195 89.1808 101.194 89.1754 101.191C89.17 101.188 89.166 101.183 89.1641 101.177C89.1622 101.172 89.1627 101.166 89.1653 101.16C89.1679 101.155 89.1725 101.15 89.1783 101.148Z" fill="#263238"/>
<path d="M94.6691 79.68C95.1204 80.7984 95.7652 81.816 96.1273 82.9752C96.4798 84.0398 96.5832 85.1671 96.4299 86.2752C95.7875 90.3312 90.329 92.7552 86.495 91.5072C84.6622 90.9024 83.0651 89.4624 82.5791 87.6168C81.9839 85.3536 83.2313 83.1792 83.9902 81.1128C84.409 79.9563 84.6171 78.7382 84.6052 77.5128C84.6052 76.44 84.5383 75.3528 84.7615 74.2872C84.9227 73.5312 85.4558 71.3328 88.3327 70.4472C90.3985 69.8184 92.4916 70.9104 93.4538 72.8088C94.5723 75.0216 93.7738 77.4624 94.6691 79.68Z" fill="#263238"/>
<path d="M84.816 80.0112C83.9232 81.8616 82.7501 83.7504 82.4054 85.7928C82.1227 87.4872 82.5939 89.3184 84.1166 90.324C84.1166 90.324 84.1439 90.324 84.1315 90.3048C82.5319 89.1048 82.3335 87.0336 82.7824 85.2504C83.2412 83.424 84.3473 81.8352 84.9053 80.0472C84.9072 80.0365 84.9053 80.0255 84.8998 80.016C84.8944 80.0064 84.8858 79.999 84.8755 79.9948C84.8651 79.9906 84.8535 79.9899 84.8427 79.9929C84.8319 79.9959 84.8225 80.0024 84.816 80.0112Z" fill="#263238"/>
<path d="M84.4216 79.9031C83.7446 82.3199 81.6812 84.2399 81.5498 86.8247C81.5498 86.8535 81.5969 86.8631 81.5994 86.8247C81.773 84.2447 84.0794 82.4135 84.4712 79.9031C84.4762 79.8791 84.4291 79.8743 84.4216 79.9031Z" fill="#263238"/>
<path d="M94.8128 79.6392C94.3815 78.7446 94.1163 77.7836 94.0291 76.8C94.0266 76.7894 94.0205 76.78 94.0117 76.7732C94.0029 76.7664 93.992 76.7627 93.9808 76.7627C93.9695 76.7627 93.9586 76.7664 93.9499 76.7732C93.9411 76.78 93.9349 76.7894 93.9324 76.8C93.6844 80.3616 97.9004 83.04 96.7869 86.7192C96.7869 86.7432 96.8191 86.7624 96.8266 86.736C97.3672 85.2144 96.9481 83.6952 96.2438 82.2936C95.7924 81.3864 95.2468 80.5416 94.8128 79.6392Z" fill="#263238"/>
<path d="M93.9597 76.2576C93.9597 76.1904 93.8481 76.2096 93.8531 76.2744C93.9531 77.6085 94.3983 78.8968 95.1477 80.0208C95.5147 80.5752 95.9636 81.072 96.3182 81.6336C96.7076 82.2504 97.0052 82.9128 97.3325 83.5536C97.3342 83.5571 97.3372 83.5598 97.3409 83.5612C97.3446 83.5625 97.3488 83.5624 97.3524 83.5608C97.356 83.5592 97.3588 83.5563 97.3602 83.5527C97.3616 83.5491 97.3615 83.5451 97.3598 83.5416C96.9357 82.3152 96.2686 81.3384 95.5073 80.2944C94.6535 79.0938 94.1217 77.7065 93.9597 76.2576Z" fill="#263238"/>
<path d="M85.808 82.8216C80.1957 86.4744 75.64 89.964 75.1613 92.4C74.4868 95.772 76.5973 96.816 77.5645 96.8688C80.1957 97.0176 86.2097 88.4064 88.0697 84.5424C89.8776 80.7888 87.048 82.0176 85.808 82.8216Z" fill="#808080"/>
<path opacity="0.1" d="M88.0697 84.5423C86.2073 88.4063 80.1957 97.0223 77.5645 96.8687C76.8924 96.8327 75.6722 96.3191 75.2109 94.8815L88.5831 82.2959C88.7517 82.6535 88.6476 83.3447 88.0697 84.5423Z" fill="black"/>
<path d="M98.7684 95.94C98.7684 95.94 92.0724 96.7896 88.8261 96.756C85.9146 96.7272 83.0576 95.3568 83.0576 95.3568L84.3795 90.6576C84.3795 90.6576 83.0626 89.0328 84.0819 87.2712C84.8085 86.0184 87.0852 83.3352 88.2979 82.08C91.0259 79.2456 93.3174 80.8536 94.0019 81.7536C96.5513 85.2 98.7684 95.94 98.7684 95.94Z" fill="#4535EC"/>
<path d="M88.4516 90.288C87.8342 90.2689 87.2161 90.3003 86.604 90.3816C86.299 90.4272 85.9989 90.4872 85.6964 90.5544C85.5451 90.588 85.3938 90.6144 85.2425 90.6432C85.0862 90.6755 84.926 90.6876 84.7664 90.6792C84.7631 90.6792 84.7599 90.6805 84.7576 90.6827C84.7553 90.685 84.754 90.688 84.754 90.6912C84.754 90.6944 84.7553 90.6974 84.7576 90.6997C84.7599 90.7019 84.7631 90.7032 84.7664 90.7032C84.9137 90.73 85.0629 90.746 85.2128 90.7512C85.3598 90.7508 85.5065 90.7396 85.6517 90.7176C85.9617 90.6744 86.2692 90.6168 86.5792 90.5712C87.2042 90.48 87.8193 90.3864 88.4541 90.3432C88.4814 90.3408 88.4814 90.288 88.4516 90.288Z" fill="#263238"/>
<path d="M89.8703 91.0703C89.3806 90.95 88.8836 90.8594 88.3823 90.7991C88.1343 90.7703 87.8863 90.7559 87.6259 90.7511H87.2613C87.1274 90.7511 86.9935 90.7751 86.8595 90.7751C86.8562 90.7751 86.8531 90.7764 86.8508 90.7786C86.8484 90.7809 86.8471 90.7839 86.8471 90.7871C86.8471 90.7903 86.8484 90.7933 86.8508 90.7956C86.8531 90.7978 86.8562 90.7991 86.8595 90.7991C86.9835 90.7991 87.1075 90.8303 87.234 90.8423L87.611 90.8807L88.355 90.9575C88.851 91.0031 89.3594 91.0535 89.8628 91.1183C89.8926 91.1207 89.8951 91.0775 89.8703 91.0703Z" fill="#263238"/>
<path d="M94.488 82.6271C99.0388 86.4455 102.285 91.7784 102.146 95.2536C102.007 98.6856 100.79 98.2943 100.44 98.2559C98.3047 98.0159 93.744 88.2336 92.4023 84.2712C91.0607 80.3088 93.3547 81.6839 94.488 82.6271Z" fill="#4535EC"/>
<path d="M97.712 95.4432C97.4863 94.9992 97.2532 94.56 97.0325 94.1112L96.3604 92.7792C95.919 91.8888 95.4676 91.0032 95.0386 90.1056C94.6095 89.208 94.1706 88.32 93.744 87.42C93.5307 86.9688 93.3224 86.5176 93.124 86.064C92.9256 85.6104 92.7272 85.1544 92.5338 84.6936C92.8258 85.6439 93.171 86.578 93.5679 87.492C93.9573 88.4088 94.3839 89.3088 94.8079 90.2088C95.232 91.1088 95.7032 91.9872 96.1843 92.8632C96.6655 93.7392 97.1714 94.6056 97.712 95.4432Z" fill="#263238"/>
<path d="M92.9826 85.8671C92.9019 85.7085 92.8117 85.5547 92.7123 85.4063C92.6627 85.3343 92.6156 85.2599 92.5635 85.1879C92.5114 85.1159 92.4618 85.0415 92.3998 84.9719C92.4335 85.1503 92.5044 85.3202 92.6081 85.4711C92.7066 85.6244 92.8336 85.7587 92.9826 85.8671Z" fill="#263238"/>
<path d="M88.8559 84.0935C88.8559 84.0935 91.9187 81.7271 93.5208 81.7823L94.8774 82.9535C94.8774 82.9535 95.3238 83.0975 95.4602 82.8239C95.8049 82.1471 95.8768 80.5103 94.4235 79.4447C93.0918 78.4679 90.3563 78.6623 88.536 79.1231C86.7876 79.5647 85.8204 80.5631 86.3561 81.6623C86.8918 82.7615 88.8559 84.0935 88.8559 84.0935Z" fill="#4535EC"/>
<path opacity="0.1" d="M88.6823 83.5752C88.6823 83.5752 87.2637 82.1544 87.0604 81.3312C86.857 80.508 88.5484 79.728 89.6545 79.4232C91.3533 78.9432 92.5089 79.0584 93.4588 79.9368C94.4086 80.8152 88.6823 83.5752 88.6823 83.5752Z" fill="black"/>
<path d="M91.1524 81.1343C91.1251 81.4223 89.8504 82.8767 88.5261 82.9919C88.0946 83.0279 87.9408 81.2927 87.9408 81.2927L87.8788 81.1295L87.0059 78.8567L89.6024 76.7135L89.9819 76.4255C89.9819 76.4255 90.1778 77.0639 90.4134 77.8655C90.4258 77.9015 90.4357 77.9399 90.4481 77.9783C90.4605 78.0167 90.4779 78.0647 90.4878 78.1079C90.525 78.2255 90.5622 78.3479 90.5969 78.4679C90.6316 78.5879 90.649 78.6503 90.6738 78.7487L90.7531 79.0391C90.9351 79.728 91.0685 80.428 91.1524 81.1343Z" fill="#FFC4C0"/>
<path d="M90.4134 77.8584C90.2611 78.5476 89.9555 79.1965 89.5178 79.7597C89.0801 80.323 88.5208 80.7872 87.8788 81.12L87.0059 78.8472L89.6024 76.704L89.9819 76.416C89.9819 76.416 90.1778 77.064 90.4134 77.8584Z" fill="#263238"/>
<path d="M84.32 73.9656C82.6088 77.8872 84.8433 79.3224 85.7162 79.6776C86.5098 80.0016 89.2527 81.0048 91.3756 77.2776C93.4985 73.5504 92.1543 71.5392 90.3836 70.7064C88.6129 69.8736 86.056 70.0464 84.32 73.9656Z" fill="#FFC4C0"/>
<path d="M85.312 73.7279C85.4102 73.7512 85.5095 73.7696 85.6096 73.7831C85.7125 73.8168 85.8241 73.8168 85.927 73.7831C85.9567 73.7663 85.9799 73.7405 85.9929 73.7097C86.0059 73.6789 86.008 73.6448 85.9989 73.6127C85.971 73.5513 85.9266 73.4983 85.8703 73.459C85.8141 73.4198 85.7481 73.3958 85.679 73.3895C85.542 73.3555 85.3968 73.3726 85.2723 73.4375C85.2452 73.4539 85.2235 73.4774 85.2099 73.5054C85.1962 73.5333 85.1912 73.5645 85.1954 73.5951C85.1996 73.6257 85.2128 73.6546 85.2335 73.6781C85.2542 73.7017 85.2814 73.719 85.312 73.7279Z" fill="#263238"/>
<path d="M88.1788 74.6664C88.0928 74.6161 88.0099 74.5608 87.9308 74.5008C87.8341 74.436 87.7523 74.3952 87.7076 74.2848C87.6994 74.2527 87.7019 74.2189 87.7148 74.1882C87.7278 74.1576 87.7504 74.1317 87.7795 74.1144C87.844 74.0897 87.9142 74.0822 87.9827 74.0928C88.0512 74.1033 88.1155 74.1315 88.1689 74.1744C88.2887 74.245 88.3771 74.3562 88.4169 74.4864C88.4243 74.5163 88.4226 74.5477 88.4121 74.5768C88.4016 74.6058 88.3826 74.6314 88.3576 74.6503C88.3325 74.6693 88.3023 74.6809 88.2706 74.6837C88.2389 74.6866 88.2071 74.6806 88.1788 74.6664Z" fill="#263238"/>
<path d="M87.2563 75.1847C87.2563 75.1847 87.2737 75.2063 87.2687 75.2183C87.1397 75.4799 87.0356 75.7991 87.2439 75.9935C87.2439 75.9935 87.2439 76.0127 87.2439 76.0079C86.9513 75.8399 87.0926 75.4127 87.2563 75.1847Z" fill="#263238"/>
<path d="M87.6283 75.0119C88.0846 75.1679 87.73 76.0368 87.3084 75.8952C86.8868 75.7536 87.2464 74.8799 87.6283 75.0119Z" fill="#263238"/>
<path d="M87.792 75.1199C87.8491 75.1991 87.8912 75.3167 87.983 75.3599C88.0747 75.4031 88.2062 75.3599 88.3153 75.2927C88.3153 75.2927 88.3302 75.2927 88.3153 75.3095C88.2508 75.4775 88.1144 75.6239 87.921 75.5783C87.8377 75.5465 87.7696 75.486 87.7298 75.4084C87.6899 75.3308 87.6812 75.2417 87.7052 75.1583C87.7151 75.1199 87.7623 75.0935 87.792 75.1199Z" fill="#263238"/>
<path d="M85.6617 74.5151C85.6617 74.5031 85.6344 74.5151 85.6294 74.5319C85.5302 74.8055 85.3814 75.1031 85.0813 75.0983C85.0813 75.0983 85.0689 75.1127 85.0813 75.1151C85.4037 75.1871 85.6121 74.7911 85.6617 74.5151Z" fill="#263238"/>
<path d="M85.5228 74.1408C85.0863 73.9392 84.7044 74.7984 85.1087 74.9856C85.5129 75.1728 85.8899 74.3088 85.5228 74.1408Z" fill="#263238"/>
<path d="M85.312 74.1192C85.2202 74.136 85.1136 74.1888 85.0268 74.16C84.94 74.1312 84.8978 74.004 84.8755 73.8888C84.8755 73.8768 84.8631 73.8888 84.8582 73.8888C84.7788 74.052 84.759 74.2464 84.9078 74.3448C85.0566 74.4432 85.2153 74.3448 85.3294 74.1936C85.3542 74.16 85.3492 74.112 85.312 74.1192Z" fill="#263238"/>
<path d="M86.3709 77.3544C86.2841 77.4024 86.1924 77.4768 86.0832 77.46C85.9762 77.4303 85.8766 77.3797 85.7906 77.3112C85.7906 77.3112 85.7708 77.3112 85.7757 77.3232C85.8025 77.3883 85.8471 77.445 85.9048 77.4873C85.9625 77.5296 86.0311 77.5559 86.1031 77.5632C86.1662 77.5635 86.2279 77.5453 86.2802 77.5111C86.3324 77.4768 86.3727 77.428 86.3957 77.3712C86.4056 77.3592 86.3858 77.3472 86.3709 77.3544Z" fill="#263238"/>
<path d="M85.5054 75.9911C85.5054 75.9911 85.312 76.3847 85.2574 76.5791C85.2574 76.5983 85.2971 76.6223 85.3641 76.6463C85.5263 76.7309 85.7097 76.7701 85.8937 76.7595C86.0776 76.7489 86.2549 76.6889 86.4057 76.5863C86.428 76.5719 86.4057 76.5431 86.3858 76.5503C86.0736 76.6401 85.7399 76.6309 85.4335 76.5239C85.4335 76.4663 85.7881 75.8591 85.7584 75.8471C85.5958 75.8113 85.4289 75.7975 85.2624 75.8063C85.6418 74.9735 86.1577 74.2055 86.5222 73.3703C86.5346 73.3415 86.4925 73.3175 86.4751 73.3415C85.8972 74.1481 85.4038 75.0083 85.002 75.9095C84.9524 76.0175 85.4137 75.9983 85.5054 75.9911Z" fill="#263238"/>
<path d="M85.3988 76.5792C85.4584 76.7727 85.5676 76.9485 85.7162 77.0904C85.8012 77.1627 85.9065 77.2087 86.0188 77.2224C86.2668 77.2488 86.3511 77.052 86.3784 76.8672C86.3893 76.7683 86.3893 76.6685 86.3784 76.5696C86.0613 76.6742 85.718 76.6775 85.3988 76.5792Z" fill="#263238"/>
<path d="M85.7162 77.0904C85.8011 77.1627 85.9065 77.2087 86.0187 77.2224C86.2667 77.2488 86.3511 77.052 86.3783 76.8672C86.2581 76.8273 86.1275 76.8276 86.0074 76.8681C85.8874 76.9086 85.7848 76.9868 85.7162 77.0904Z" fill="#FF9ABB"/>
<path d="M91.0383 77.1288C90.272 77.04 90.52 75.3072 90.52 75.3072C90.52 75.3072 87.4498 73.9608 87.8664 71.3592C87.0591 72.2251 85.9836 72.8145 84.8011 73.0392C84.8011 73.0392 86.0833 70.0176 88.5038 70.056C88.5038 70.056 91.2318 69.8376 92.3701 72.4128C93.5258 75.048 91.5616 77.196 91.0383 77.1288Z" fill="#263238"/>
<path d="M87.9061 71.1696C87.7625 71.5535 87.7042 71.9624 87.7349 72.3696C87.7595 72.7794 87.8719 73.1799 88.0648 73.5456C88.1114 73.6377 88.1644 73.7267 88.2235 73.812L88.3078 73.9416C88.3401 73.9848 88.3723 74.0232 88.407 74.0616C88.474 74.1408 88.5385 74.2224 88.6104 74.3016C88.6823 74.3808 88.7617 74.4432 88.8385 74.5104L88.9551 74.6136L89.0841 74.7024L89.3321 74.8776C89.5131 74.9808 89.6966 75.072 89.8826 75.1632C89.7189 75.0384 89.5453 74.9232 89.3866 74.8056L89.1535 74.6136L89.0394 74.5176C89.0022 74.4816 88.97 74.4456 88.9353 74.4096L88.7269 74.196C88.6625 74.1216 88.6054 74.04 88.5434 73.956L88.4517 73.8408L88.3748 73.716C88.3212 73.6338 88.2724 73.5489 88.2285 73.4616C88.0447 73.1147 87.9247 72.7395 87.8738 72.3528C87.8469 72.1587 87.8361 71.9629 87.8416 71.7672C87.8467 71.5666 87.8682 71.3668 87.9061 71.1696Z" fill="#263238"/>
<path d="M90.5398 76.8336C90.5398 76.8336 91.8741 75.8568 92.3626 76.3536C92.8512 76.8504 91.5492 78.4704 90.7705 78.5136C90.6706 78.5246 90.5694 78.5158 90.4731 78.4878C90.3768 78.4598 90.2874 78.4133 90.2102 78.3509C90.133 78.2885 90.0697 78.2117 90.024 78.125C89.9784 78.0383 89.9514 77.9435 89.9446 77.8464L90.5398 76.8336Z" fill="#FFC4C0"/>
<path d="M91.9782 76.812V76.8312C91.4252 76.8696 91.0234 77.2272 90.6911 77.6256C90.7351 77.5872 90.7872 77.5585 90.8438 77.5416C90.9003 77.5246 90.96 77.5197 91.0188 77.5272C91.0775 77.5347 91.1338 77.5545 91.1838 77.5852C91.2339 77.6158 91.2765 77.6566 91.3086 77.7048C91.3086 77.7168 91.3086 77.7336 91.2888 77.7264C91.2117 77.673 91.1194 77.6443 91.0247 77.6443C90.9299 77.6443 90.8376 77.673 90.7605 77.7264C90.6305 77.8143 90.5115 77.9166 90.4059 78.0312C90.3687 78.0648 90.2968 78.0168 90.329 77.9736C90.52 77.3544 91.2888 76.6632 91.9782 76.812Z" fill="#263238"/>
<path d="M88.6823 83.5752C88.6823 83.5752 91.2566 80.2992 93.7316 79.9752L93.5208 81.7728C93.5208 81.7728 91.4574 81.804 88.8559 84.084L88.6823 83.5752Z" fill="#808080"/>
<path d="M94.1879 81.8184C93.7375 81.7823 93.2843 81.8395 92.8586 81.9864C91.1598 82.3728 89.4263 83.7216 89.4263 83.7216L88.9303 84.1656L88.8757 84.2136L88.8137 84.1824C87.9829 83.7456 87.1472 82.728 86.9909 82.5288C87.57 83.0869 88.2113 83.5812 88.903 84.0024L88.7865 84.0216L89.2825 83.5656C89.4561 83.4192 91.3533 82.212 92.8239 81.8688C92.933 81.84 93.0496 81.8208 93.1612 81.7992C93.2728 81.7776 93.3893 81.768 93.5034 81.7632C93.7332 81.7442 93.9646 81.7628 94.1879 81.8184Z" fill="#263238"/>
<path d="M94.8773 82.9535C94.3763 82.6196 93.9205 82.2261 93.5208 81.7823C93.7715 81.9473 94.0117 82.1268 94.24 82.3199C94.4667 82.5172 94.6796 82.7289 94.8773 82.9535Z" fill="#263238"/>
<path d="M89.528 83.1936C89.7339 83.9278 89.8741 84.6778 89.9471 85.4352C90.0017 85.9632 89.9471 87.8784 89.3321 87.8544C88.7171 87.8304 89.6099 86.532 89.7016 85.5192C89.7934 84.5064 89.4536 83.7936 89.3718 83.196L89.528 83.1936Z" fill="#263238"/>
<path d="M87.8069 83.1671C87.5555 83.8185 87.363 84.4899 87.2315 85.1735C87.1348 85.6535 87.0207 87.3935 87.5787 87.4223C88.1367 87.4511 87.4423 86.1983 87.4473 85.2623C87.4522 84.3263 87.8193 83.7119 87.9433 83.1767L87.8069 83.1671Z" fill="#263238"/>
<path d="M76.0938 87.4943C76.2724 85.8719 76.6692 83.6063 77.2495 83.1167C77.8298 82.6271 80.0742 80.8751 80.7215 80.6351C81.3688 80.3951 84.2605 79.2263 84.8061 79.5095C85.245 79.7375 84.7713 80.8487 83.3974 81.4175C82.6524 81.7436 81.9286 82.113 81.2299 82.5239C80.8777 82.6847 80.0569 83.8271 80.3073 84.3167C80.4537 84.6023 81.3415 84.9191 81.8797 84.6623C82.4178 84.4055 82.517 83.3591 83.1197 82.8455C83.7223 82.3319 84.8284 82.3655 84.9003 82.6439C84.9722 82.9223 84.6151 83.0759 84.0869 84.0695C83.7446 84.7079 83.7719 86.2151 82.9882 87.3191C82.5915 87.972 82.2362 88.6477 81.9243 89.3423L76.0938 87.4943Z" fill="#FFC4C0"/>
<path d="M83.6925 82.3824C83.8924 82.3484 84.0781 82.2602 84.2282 82.128C84.2888 82.0682 84.3294 81.9921 84.3447 81.9096C84.3522 81.8643 84.3522 81.8181 84.3447 81.7728C84.3411 81.7254 84.321 81.6806 84.2877 81.6456C84.2753 81.6456 84.2877 81.6264 84.2877 81.6456C84.2877 81.6648 84.3249 81.6864 84.3398 81.708C84.3532 81.727 84.3648 81.747 84.3745 81.768C84.3921 81.81 84.4013 81.8547 84.4018 81.9C84.4019 81.9988 84.3669 82.0945 84.3026 82.1712C84.226 82.2549 84.1303 82.3201 84.0231 82.3618C83.9159 82.4034 83.8002 82.4203 83.6851 82.4112L83.6925 82.3824Z" fill="#263238"/>
<path d="M77.2495 83.1168C77.7455 82.2936 79.0599 80.7984 80.3867 80.256C81.282 79.8912 84.4588 81.264 84.3869 81.8472C84.315 82.4304 83.7818 82.4448 82.9882 82.38C82.698 82.356 81.158 81.876 80.9075 82.1928C80.5504 82.6488 80.1288 84.1824 80.1288 84.1824L77.2495 83.1168Z" fill="#FFC4C0"/>
<path d="M84.3026 81.6215C83.8959 81.0167 83.0353 80.7119 82.1822 80.4791V80.4983C82.4005 80.5583 83.7967 81.1271 84.3001 81.6335C84.2977 81.6383 84.3051 81.6287 84.3026 81.6215Z" fill="#263238"/>
<path d="M77.2495 83.1168C77.7455 82.2936 79.0599 80.7984 80.3867 80.256C81.282 79.8912 83.819 81.696 83.7471 82.2792C83.6752 82.8624 82.9113 82.9296 82.0532 82.6704C81.7755 82.5888 80.8356 81.9912 80.5876 82.308C80.228 82.764 79.3476 83.8968 79.3476 83.8968L77.2495 83.1168Z" fill="#FFC4C0"/>
<path d="M79.856 83.196C79.9354 83.0664 79.9651 83.0208 80.047 82.8936C80.1288 82.7664 80.2156 82.6392 80.3074 82.5168C80.3791 82.404 80.4706 82.3041 80.5777 82.2216C80.6892 82.1558 80.8196 82.1264 80.9497 82.1376C81.2436 82.1881 81.5232 82.2976 81.7706 82.4592C82.0558 82.6032 82.6411 82.836 83.0825 82.7784C83.2036 82.7676 83.321 82.7324 83.4272 82.6752C83.5088 82.6371 83.5789 82.5793 83.6306 82.5072C83.8116 82.1856 83.5611 81.8328 83.3082 81.588C82.8098 81.1424 82.2327 80.7872 81.6044 80.5392C81.4556 80.4744 81.3043 80.412 81.1531 80.352C80.9847 80.271 80.8003 80.226 80.6124 80.22C80.3049 80.22 79.8114 80.5464 79.6576 80.6424C79.6576 80.6424 79.6378 80.6304 79.6576 80.6232C79.8411 80.5032 80.2975 80.1192 80.7935 80.1264C80.9756 80.1473 81.1526 80.1984 81.3167 80.2776C81.4903 80.3448 81.6639 80.4168 81.8351 80.4936C82.169 80.6398 82.4907 80.8107 82.7973 81.0048C83.1042 81.183 83.3748 81.414 83.5959 81.6864C83.6883 81.8083 83.7448 81.9521 83.7592 82.1027C83.7737 82.2532 83.7455 82.4047 83.6777 82.5408C83.6151 82.6275 83.5335 82.6997 83.4388 82.7524C83.344 82.8051 83.2385 82.8369 83.1296 82.8456C83.0005 82.8636 82.8694 82.8636 82.7403 82.8456C82.4494 82.7941 82.1627 82.7227 81.8822 82.632C81.6094 82.536 81.3614 82.3704 81.0811 82.296C81.0153 82.2766 80.9461 82.2699 80.8775 82.2765C80.809 82.2831 80.7425 82.3028 80.6819 82.3344C80.5702 82.4113 80.4715 82.5044 80.3892 82.6104C80.2106 82.7927 80.0496 82.9903 79.9081 83.2008C79.856 83.28 79.8238 83.2512 79.856 83.196Z" fill="#263238"/>
<path d="M76.88 83.832C77.061 83.4408 77.3363 81.852 77.624 81.3576C77.9117 80.8632 79.3054 79.1424 79.98 79.1976C80.8257 79.2624 79.9973 80.7624 79.5757 81.384C79.1541 82.0056 79.2633 83.0304 79.2633 83.0304L76.88 83.832Z" fill="#FFC4C0"/>
<path d="M79.2881 83.1984C79.2698 83.5933 79.3551 83.9863 79.5361 84.3408C79.6197 84.5205 79.7158 84.6945 79.8238 84.8616C79.9349 85.0293 80.0575 85.1897 80.1908 85.3416C80.4457 85.6256 80.6631 85.9392 80.8381 86.2752C81.003 86.6213 81.1238 86.9856 81.1977 87.36C81.2129 86.967 81.1488 86.5749 81.0092 86.2056C80.8605 85.8362 80.6484 85.4938 80.3818 85.1928C80.128 84.9051 79.9053 84.5931 79.7171 84.2616C79.5136 83.9329 79.3685 83.5735 79.2881 83.1984Z" fill="#263238"/>
<path d="M77.8422 96.7199C79.4766 96.4367 80.4338 93.7295 82.1029 88.9703C82.3955 88.1351 77.872 83.2655 77.3214 84.0431C76.627 85.0223 74.8811 90.3911 74.7348 91.8407C74.4521 94.6991 75.9326 97.0511 77.8422 96.7199Z" fill="#FFC4C0"/>
<path d="M81.2274 91.6247L75.7044 86.8607C75.7044 86.8607 74.39 91.2143 74.6108 93.0071C74.8315 94.7999 75.5705 96.8207 77.8124 96.8471C79.4914 96.8543 81.2274 91.6247 81.2274 91.6247Z" fill="#4535EC"/>
<path d="M79.6675 95.1456C79.846 94.8768 80.0048 94.5936 80.1635 94.3104C80.3222 94.0272 80.4586 93.7368 80.595 93.4464C80.7314 93.156 80.8579 92.856 80.9645 92.5536C81.082 92.2522 81.1716 91.9414 81.2324 91.6248C81.1059 91.92 80.9695 92.2104 80.8331 92.5008L80.4264 93.372C80.2949 93.6648 80.1585 93.9552 80.0345 94.2528C79.9105 94.5504 79.7791 94.8432 79.6675 95.1456Z" fill="#263238"/>
<path d="M80.1238 92.5416C79.856 92.2776 79.5609 92.0376 79.2757 91.7904C78.9905 91.5432 78.7028 91.3104 78.4126 91.0704C77.8298 90.5904 77.247 90.1104 76.6568 89.6304C76.4956 89.5032 76.3319 89.3736 76.1608 89.2488C75.9897 89.124 75.7913 89.0088 75.6177 88.8648C75.6053 88.8528 75.5879 88.8648 75.6003 88.884C75.7417 89.004 75.8657 89.1456 76.0045 89.268C76.1434 89.3904 76.2922 89.5224 76.4385 89.6448C76.7287 89.8848 77.0164 90.1248 77.309 90.3648C77.8893 90.8448 78.4721 91.3248 79.0698 91.788C79.4071 92.0496 79.7394 92.3232 80.0916 92.5656C80.0949 92.5697 80.0997 92.5724 80.1051 92.5731C80.1104 92.5738 80.1158 92.5724 80.1201 92.5692C80.1244 92.566 80.1272 92.5613 80.1279 92.5561C80.1286 92.551 80.1271 92.5457 80.1238 92.5416Z" fill="#263238"/>
<path d="M87.1571 83.2801L89.3891 89.9833C89.415 90.0194 89.4301 90.0617 89.4329 90.1056C89.4356 90.1495 89.4258 90.1933 89.4046 90.2322C89.3833 90.2711 89.3514 90.3036 89.3124 90.3261C89.2734 90.3487 89.2287 90.3604 89.1832 90.3601L85.5476 90.6001C85.4361 90.599 85.3273 90.5673 85.2338 90.5086C85.1402 90.45 85.0659 90.3668 85.0193 90.2689L82.7873 83.5681C82.698 83.3713 82.7873 83.2033 82.9932 83.1889L86.6264 82.9489C86.738 82.9503 86.847 82.9822 86.9409 83.0407C87.0347 83.0993 87.1096 83.1822 87.1571 83.2801Z" fill="#37474F"/>
<path d="M86.7256 83.3087L88.9576 90.0119C88.9835 90.0481 88.9986 90.0904 89.0014 90.1343C89.0041 90.1782 88.9943 90.222 88.9731 90.2609C88.9518 90.2998 88.9199 90.3323 88.8809 90.3548C88.8419 90.3774 88.7972 90.3891 88.7517 90.3887L85.1161 90.6287C85.0046 90.6277 84.8958 90.596 84.8023 90.5373C84.7087 90.4787 84.6344 90.3955 84.5878 90.2975L82.3558 83.5943C82.3299 83.5582 82.3148 83.5159 82.312 83.472C82.3093 83.428 82.3191 83.3842 82.3403 83.3454C82.3616 83.3065 82.3935 83.274 82.4325 83.2514C82.4715 83.2289 82.5162 83.2172 82.5617 83.2175L86.1949 82.9775C86.3065 82.979 86.4155 83.0108 86.5094 83.0694C86.6032 83.128 86.6781 83.2109 86.7256 83.3087Z" fill="#455A64"/>
<path d="M85.7485 83.6832C85.7536 83.7424 85.7767 83.7987 85.8149 83.8451C85.8532 83.8915 85.9047 83.9259 85.9632 83.944C86.0216 83.962 86.0842 83.9629 86.1432 83.9464C86.2021 83.93 86.2547 83.8971 86.2942 83.8517C86.3338 83.8064 86.3586 83.7507 86.3654 83.6917C86.3723 83.6327 86.3609 83.5731 86.3328 83.5204C86.3046 83.4677 86.2609 83.4242 86.2072 83.3955C86.1535 83.3669 86.0923 83.3542 86.0312 83.3592C85.9493 83.3659 85.8735 83.4038 85.8205 83.4646C85.7675 83.5254 85.7416 83.604 85.7485 83.6832Z" fill="#263238"/>
<path d="M100.936 98.2176C99.3488 98.4288 97.3697 97.236 92.2411 93.612C91.5318 93.1128 93.8407 87.312 94.6268 87.8112C95.6188 88.4376 99.3215 91.0776 99.567 91.3032C101.645 93.2112 102.02 98.076 100.936 98.2176Z" fill="#FFC4C0"/>
<path d="M96.472 89.5656C96.472 89.5656 95.0113 87.5808 93.9102 86.7696C92.7439 85.9524 91.3897 85.422 89.9645 85.224C88.4269 85.0056 84.5556 85.5048 84.5085 86.6088C84.4663 87.6096 88.3996 86.9064 88.3996 86.9064C88.3996 86.9064 84.2679 86.9832 84.4465 88.1952C84.625 89.4072 89.1411 88.3392 89.1411 88.3392C89.1411 88.3392 84.8978 88.512 85.2872 89.7336C85.5798 90.6576 89.7264 89.9136 89.7264 89.9136C89.7264 89.9136 86.0808 90.0864 86.3412 91.0488C86.6264 92.112 90.5002 91.6584 90.5002 91.6584C91.5864 93.996 93.1414 94.656 94.2722 95.0184C94.5426 95.1072 96.472 89.5656 96.472 89.5656Z" fill="#FFC4C0"/>
<path d="M89.8206 86.7911C89.3246 86.7911 88.8435 86.7719 88.3599 86.8055C87.8763 86.8391 87.3902 86.8895 86.9116 86.9663C86.2828 87.0577 85.6671 87.2188 85.0764 87.4463C86.1552 87.1223 87.8887 86.9663 88.3723 86.9399C88.8559 86.9135 89.3395 86.8487 89.8231 86.8151C89.8355 86.8079 89.833 86.7911 89.8206 86.7911Z" fill="#263238"/>
<path d="M89.9793 88.4808C89.3593 88.4976 88.7393 88.4808 88.1218 88.5336C87.5043 88.5864 86.924 88.668 86.3114 88.752C86.2643 88.752 86.2817 88.7808 86.3313 88.776C86.9463 88.716 87.5192 88.7064 88.1342 88.6536C88.7493 88.6008 89.3742 88.5264 89.9818 88.4952C89.9893 88.4952 89.9893 88.4808 89.9793 88.4808Z" fill="#263238"/>
<path d="M90.3836 89.9088C89.4293 89.9113 88.4778 90.0086 87.544 90.1992C87.4969 90.1992 87.5241 90.2352 87.5737 90.228C88.5137 90.1152 89.2502 90.0192 90.3761 89.9424C90.4009 89.94 90.4034 89.9112 90.3836 89.9088Z" fill="#263238"/>
<path d="M96.472 88.776L94.4508 95.904C94.4508 95.904 99.8721 98.9928 101.07 98.1744C102.268 97.356 101.484 93.2424 100.13 91.6728C99.5596 91.02 96.472 88.776 96.472 88.776Z" fill="#4535EC"/>
<path d="M96.4001 89.0136L96.4794 88.7736H96.4596C96.9705 89.1792 97.4838 89.58 97.9922 89.988C98.5006 90.396 99.0066 90.804 99.4802 91.236C99.724 91.4454 99.9534 91.6699 100.167 91.908C100.372 92.1526 100.554 92.4135 100.713 92.688C101.027 93.2477 101.248 93.852 101.368 94.4784C101.315 93.8336 101.135 93.2045 100.837 92.6256C100.688 92.3344 100.507 92.0592 100.299 91.8048C100.083 91.5568 99.8512 91.3227 99.6042 91.104C99.1082 90.672 98.5974 90.2688 98.0766 89.8752C97.5558 89.4816 97.0151 89.1096 96.4646 88.7544H96.4472V88.7712L96.4001 89.0136Z" fill="#263238"/>
<path d="M97.6549 90.5448C97.5309 90.8952 97.4367 91.2648 97.335 91.6128C97.2333 91.9608 97.1341 92.3328 97.0399 92.6856C96.8514 93.4056 96.6679 94.1256 96.4943 94.8456C96.4472 95.0448 96.4001 95.2416 96.3554 95.4384C96.3108 95.6352 96.2885 95.868 96.2389 96.0792C96.2389 96.096 96.2612 96.1032 96.2661 96.0792C96.3157 95.904 96.3901 95.7336 96.4447 95.5608C96.4993 95.388 96.5489 95.196 96.5985 95.0136C96.6977 94.656 96.7944 94.2936 96.8886 93.9384C97.0771 93.2184 97.2631 92.4984 97.4268 91.7784C97.5185 91.368 97.6252 90.96 97.6921 90.5472C97.6934 90.5444 97.694 90.5413 97.6938 90.5382C97.6936 90.5352 97.6926 90.5322 97.691 90.5295C97.6893 90.5269 97.687 90.5247 97.6843 90.5231C97.6816 90.5215 97.6785 90.5205 97.6753 90.5203C97.6721 90.5201 97.6689 90.5206 97.666 90.5219C97.6631 90.5231 97.6605 90.525 97.6585 90.5274C97.6565 90.5298 97.6552 90.5327 97.6545 90.5357C97.6539 90.5387 97.654 90.5419 97.6549 90.5448Z" fill="#263238"/>
<path d="M94.6244 95.2799C94.6091 95.5005 94.5759 95.7196 94.5252 95.9351L94.488 95.8463C94.8986 96.061 95.2901 96.3083 95.6585 96.5855C95.2081 96.4529 94.7833 96.2494 94.4012 95.9831L94.3466 95.9471C94.4213 95.7181 94.5142 95.4951 94.6244 95.2799Z" fill="#263238"/>
<path d="M19.9491 85.5912C19.9491 85.5912 14.4658 94.9752 14.4633 94.9824C13.5805 96.8736 12.8439 98.5488 12.5463 99.4488C12.5452 99.4535 12.5452 99.4584 12.5463 99.4632C12.4529 99.6668 12.4096 99.8886 12.4198 100.111C12.4198 100.111 12.4198 100.123 12.4198 100.128C12.8241 100.762 28.2447 108.014 28.8697 108.091C29.4946 108.168 29.7749 106.45 29.4078 105.706C29.0408 104.962 24.4181 99.6312 24.4181 99.6312L29.8021 90.2112L19.9491 85.5912Z" fill="#EB9481"/>
<path d="M28.6241 108.038C27.9992 107.959 12.8241 100.762 12.4198 100.118C12.419 100.113 12.419 100.107 12.4198 100.102C12.4096 99.8791 12.4529 99.6573 12.5463 99.4537C12.5449 99.4489 12.5449 99.444 12.5463 99.4392C12.8439 98.5392 13.5829 96.864 14.4609 94.9704C14.4609 94.9704 15.3859 93.3313 15.7529 92.7625L25.5613 97.68L24.4181 99.6337C24.4181 99.6337 28.7928 104.914 29.1598 105.653C29.5269 106.392 29.264 108.118 28.6241 108.038Z" fill="#EBEBEB"/>
<path d="M28.9044 107.834C28.2744 107.743 12.9108 100.082 12.519 99.4344C12.3652 99.1944 13.387 96.9576 14.7039 94.296L14.746 94.212L24.7156 99.048L24.6239 99.2088C24.6239 99.2088 29.1499 104.686 29.5045 105.449C29.8592 106.212 29.5343 107.93 28.9044 107.834Z" fill="#808080"/>
<path d="M29.0383 107.172C26.4814 105.818 16.0357 100.596 13.4143 99.4489C13.392 99.4489 13.3846 99.4489 13.4143 99.4633C15.9166 100.858 26.407 105.998 29.0383 107.213C29.073 107.239 29.0929 107.201 29.0383 107.172Z" fill="white"/>
<path d="M25.4423 99.6503C24.5198 98.9567 23.193 98.4863 22.0398 98.8007C21.9951 98.8151 22.015 98.8751 22.0398 98.8823C23.1756 99.0633 24.2881 99.3618 25.358 99.7727C25.3663 99.7781 25.3756 99.7818 25.3854 99.7837C25.3952 99.7855 25.4053 99.7855 25.4151 99.7836C25.4249 99.7817 25.4342 99.778 25.4425 99.7726C25.4507 99.7673 25.4579 99.7604 25.4634 99.7523C25.4689 99.7443 25.4728 99.7353 25.4747 99.7258C25.4767 99.7163 25.4767 99.7066 25.4747 99.6971C25.4727 99.6876 25.4689 99.6786 25.4633 99.6706C25.4578 99.6626 25.4506 99.6557 25.4423 99.6503Z" fill="#263238"/>
<path d="M25.9482 100.445C25.0282 99.7536 23.7014 99.2832 22.5482 99.5976C22.5035 99.6096 22.5209 99.672 22.5482 99.6768C23.6879 99.855 24.8045 100.151 25.8788 100.56C25.8938 100.564 25.9097 100.562 25.9239 100.556C25.9382 100.551 25.9501 100.54 25.9579 100.527C25.9657 100.515 25.9689 100.499 25.9672 100.485C25.9655 100.47 25.9588 100.456 25.9482 100.445Z" fill="#263238"/>
<path d="M26.4566 101.241C25.544 100.56 24.2072 100.08 23.064 100.394C23.0193 100.406 23.0392 100.466 23.0764 100.473C24.2123 100.654 25.3248 100.953 26.3946 101.364C26.41 101.366 26.4257 101.363 26.4393 101.356C26.453 101.349 26.464 101.338 26.4709 101.324C26.4777 101.311 26.48 101.295 26.4775 101.281C26.4749 101.266 26.4676 101.252 26.4566 101.241Z" fill="#263238"/>
<path d="M16.3953 97.1399C15.5694 96.0455 13.8111 97.2887 14.6394 98.3831C15.4677 99.4775 17.2236 98.2367 16.3953 97.1399Z" fill="white"/>
<path opacity="0.1" d="M25.296 100.027L26.3996 106.704C27.2123 107.122 28.0467 107.499 28.8994 107.834C29.5269 107.93 29.8493 106.2 29.4996 105.434C29.2367 104.88 26.5757 101.585 25.296 100.027Z" fill="black"/>
<path d="M29.4227 107.419C29.6434 107.659 29.1077 108.523 28.8721 108.494C28.6365 108.465 11.9213 100.044 11.6709 99.8399C11.4204 99.6359 12.0503 98.6999 12.4149 98.8151C12.7794 98.9303 29.4227 107.419 29.4227 107.419Z" fill="#263238"/>
<path d="M15.7306 91.8959L26.784 97.6055C26.784 97.6055 40.7315 78.3671 41.0093 73.3151C41.3961 66.3335 35.2358 44.1743 35.2358 44.1743L25.4125 44.1095C25.4125 44.1095 29.4078 66.9095 29.0829 70.7879C28.9093 72.8207 15.7306 91.8959 15.7306 91.8959Z" fill="#37474F"/>
<path d="M27.7437 95.3951C27.1758 94.9967 21.9381 92.0615 17.9502 90.1847C17.9476 90.1833 17.9447 90.1824 17.9418 90.182C17.9388 90.1817 17.9358 90.1819 17.9329 90.1827C17.93 90.1835 17.9273 90.1848 17.925 90.1866C17.9226 90.1884 17.9207 90.1906 17.9192 90.1931C17.9177 90.1956 17.9168 90.1984 17.9165 90.2013C17.9161 90.2042 17.9163 90.2071 17.9171 90.2099C17.9179 90.2126 17.9193 90.2152 17.9212 90.2175C17.923 90.2198 17.9253 90.2217 17.9279 90.2231C19.1381 90.9959 26.9576 95.1407 27.7165 95.4359C27.7413 95.4455 27.776 95.4119 27.7437 95.3951Z" fill="#37474F"/>
<path d="M30.4445 65.9184C29.9881 62.5824 29.4847 59.2536 28.9118 55.9344C28.3389 52.6152 27.7313 49.272 27.0121 45.9648C26.9229 45.5616 26.8319 45.1616 26.7393 44.7648C26.738 44.7585 26.7355 44.7525 26.7318 44.7472C26.7281 44.7418 26.7233 44.7372 26.7178 44.7337C26.7123 44.7301 26.7061 44.7276 26.6996 44.7264C26.693 44.7251 26.6863 44.7252 26.6798 44.7264C26.6733 44.7277 26.6671 44.7302 26.6616 44.7337C26.6561 44.7373 26.6513 44.7419 26.6477 44.7473C26.644 44.7526 26.6414 44.7586 26.6401 44.7649C26.6388 44.7712 26.6388 44.7777 26.6401 44.784C27.2453 48.0648 27.8801 51.3408 28.4233 54.624C28.9664 57.9072 29.512 61.2 29.9683 64.5072C30.0824 65.3232 30.194 66.1408 30.3031 66.96C30.4377 67.8033 30.5205 68.6536 30.5511 69.5064C30.5664 70.3207 30.4242 71.1306 30.132 71.8944C29.8202 72.6405 29.4409 73.3585 28.9986 74.04C27.2229 76.9488 19.2621 89.664 19.0563 90.0336C19.0563 90.0576 19.0786 90.084 19.0935 90.06C21.0031 87.18 26.9278 78.0312 28.7308 75.0744C29.5442 73.74 30.4668 72.3888 30.7421 70.8336C31.0198 69.216 30.6627 67.524 30.4445 65.9184Z" fill="#37474F"/>
<path d="M27.6123 91.896C27.6123 91.896 27.5032 102.742 27.5032 102.749C27.5602 104.822 27.652 106.639 27.7884 107.578C27.7872 107.582 27.7872 107.587 27.7884 107.592C27.7961 107.814 27.8564 108.032 27.9645 108.228L27.9793 108.24C28.6291 108.641 45.7733 108.667 46.371 108.48C46.9687 108.293 46.4454 106.62 45.7808 106.106C45.1161 105.593 38.5541 102.746 38.5541 102.746V91.908L27.6123 91.896Z" fill="#EB9481"/>
<path d="M27.528 100.522C27.528 100.522 27.5057 102.742 27.5057 102.749C27.5627 104.822 27.6545 106.639 27.7909 107.578C27.7897 107.582 27.7897 107.587 27.7909 107.592C27.8243 107.81 27.8833 108.023 27.967 108.228L27.9818 108.24C28.6316 108.641 45.7758 108.667 46.3735 108.48C46.9712 108.293 46.4479 106.62 45.7833 106.106C45.1186 105.593 38.5566 102.746 38.5566 102.746V100.486L27.528 100.522Z" fill="#EBEBEB"/>
<path d="M46.376 108.454C45.7709 108.638 28.4902 108.346 27.8405 107.928C27.5925 107.774 27.4883 105.336 27.4511 102.386V102.293L38.6111 102.362V102.545C38.6111 102.545 45.1732 105.521 45.8378 106.051C46.5025 106.582 46.9886 108.269 46.376 108.454Z" fill="#808080"/>
<path d="M46.1974 107.801C43.2859 107.681 31.5307 107.47 28.644 107.561C28.6217 107.561 28.6192 107.578 28.644 107.578C31.5258 107.758 43.276 107.878 46.1974 107.842C46.2594 107.846 46.2594 107.803 46.1974 107.801Z" fill="white"/>
<path d="M39.5336 102.593C38.3928 102.367 36.9867 102.514 36.0964 103.289C36.0616 103.32 36.0964 103.366 36.1435 103.356C37.2455 103.031 38.3805 102.823 39.5287 102.734C39.5459 102.732 39.5617 102.724 39.5733 102.711C39.585 102.698 39.5916 102.682 39.5922 102.666C39.5928 102.649 39.5873 102.632 39.5766 102.619C39.5659 102.606 39.5507 102.596 39.5336 102.593Z" fill="#263238"/>
<path d="M40.3545 103.09C39.2113 102.864 37.8051 103.01 36.9148 103.786C36.8801 103.814 36.9148 103.862 36.9619 103.853C38.0639 103.528 39.1989 103.32 40.3471 103.231C40.3644 103.229 40.3805 103.221 40.3924 103.209C40.4042 103.196 40.4112 103.18 40.4121 103.163C40.413 103.146 40.4077 103.13 40.3972 103.116C40.3867 103.103 40.3716 103.093 40.3545 103.09Z" fill="#263238"/>
<path d="M41.168 103.586C40.0247 103.361 38.6185 103.507 37.7282 104.282C37.696 104.311 37.7282 104.359 37.7778 104.35C38.8814 104.025 40.0181 103.816 41.168 103.728C41.1851 103.725 41.2005 103.716 41.2116 103.703C41.2228 103.69 41.2289 103.674 41.2289 103.657C41.2289 103.64 41.2228 103.624 41.2116 103.611C41.2005 103.598 41.1851 103.589 41.168 103.586Z" fill="#263238"/>
<path d="M46.6562 107.858C46.9638 107.978 46.8794 108.982 46.6562 109.058C46.433 109.135 27.5925 108.734 27.2726 108.66C26.9526 108.586 27.0915 107.474 27.466 107.424C27.8405 107.374 46.6562 107.858 46.6562 107.858Z" fill="#263238"/>
<path d="M30.2758 104.215C29.0358 103.586 28.024 105.454 29.2665 106.082C30.5089 106.711 31.5183 104.844 30.2758 104.215Z" fill="white"/>
<path d="M35.1093 44.16C35.0449 44.3568 31.5133 53.7192 31.181 53.868C30.8041 54.036 38.9806 67.3248 39.4642 73.5C39.7717 77.448 39.1666 99.7944 39.1666 99.7944H27.213C27.213 99.7944 27.7859 79.704 28.0587 73.3392C28.1653 70.8696 19.8524 58.5792 19.7507 50.928C19.7185 48.516 21.509 44.1072 21.509 44.1072L35.1093 44.16Z" fill="#37474F"/>
<path d="M28.1281 73.1687C28.1281 73.0655 28.0438 73.0343 28.0364 73.1375C27.7661 76.5839 27.7041 80.0087 27.5404 83.4575C27.3767 86.9063 27.4685 87.7271 27.3097 91.1687C27.2205 93.1151 27.3097 95.0687 27.2577 97.0175C27.2577 97.0239 27.2603 97.03 27.2649 97.0345C27.2696 97.039 27.2759 97.0415 27.2825 97.0415C27.289 97.0415 27.2953 97.039 27.3 97.0345C27.3046 97.03 27.3073 97.0239 27.3073 97.0175C27.6718 93.5999 28.1257 75.1199 28.1281 73.1687Z" fill="#37474F"/>
<path d="M39.4618 73.6368C39.4448 72.7863 39.3619 71.9384 39.2138 71.1C39.0465 70.2848 38.7973 69.4874 38.4698 68.7192C37.8076 67.1088 37.0289 65.5368 36.2824 63.9624C35.5359 62.388 34.7547 60.7776 33.9586 59.1984C33.5089 58.3136 33.0576 57.4288 32.6046 56.544C32.1458 55.6512 31.6523 54.7728 31.1711 53.8896C31.1667 53.8838 31.1603 53.8797 31.153 53.878C31.1458 53.8763 31.1382 53.877 31.1314 53.8801C31.1247 53.8832 31.1193 53.8885 31.1161 53.895C31.113 53.9016 31.1123 53.909 31.1141 53.916C31.8804 55.5072 32.6343 57.1032 33.4006 58.6944C34.167 60.2856 34.9184 61.884 35.6723 63.4824C36.4262 65.0808 37.1603 66.6264 37.8523 68.2176C38.2005 68.9735 38.4858 69.7552 38.7054 70.5552C38.9023 71.3829 39.0194 72.2265 39.055 73.0752C39.1691 75.0504 39.2262 77.0328 39.427 79.0032C39.427 79.0272 39.4717 79.0248 39.4717 79.0032C39.5461 77.2176 39.5163 75.42 39.4618 73.6368Z" fill="#37474F"/>
<path d="M38.2986 97.5095C37.6042 97.4231 32.307 97.2455 27.8826 97.4279C27.8767 97.4279 27.871 97.4302 27.8669 97.4343C27.8627 97.4383 27.8603 97.4438 27.8603 97.4495C27.8603 97.4553 27.8627 97.4608 27.8669 97.4648C27.871 97.4689 27.8767 97.4711 27.8826 97.4711C29.3285 97.5959 37.4852 97.6487 38.2986 97.5599C38.3185 97.5575 38.3309 97.5143 38.2986 97.5095Z" fill="#37474F"/>
<path d="M32.8302 53.3495C31.5495 53.6632 30.2991 54.0832 29.0929 54.6047C29.0878 54.6065 29.0832 54.6091 29.0792 54.6126C29.0752 54.6161 29.072 54.6203 29.0697 54.625C29.0674 54.6296 29.0661 54.6347 29.0658 54.6399C29.0655 54.6451 29.0663 54.6503 29.0681 54.6551C29.0699 54.66 29.0726 54.6645 29.0762 54.6684C29.0798 54.6722 29.0842 54.6753 29.089 54.6776C29.0938 54.6798 29.0991 54.6811 29.1044 54.6814C29.1098 54.6816 29.1151 54.6809 29.1202 54.6791C30.3602 54.2975 31.6498 53.9423 32.8798 53.4959C32.8999 53.4896 32.9165 53.4758 32.9261 53.4575C32.9356 53.4393 32.9373 53.4182 32.9307 53.3987C32.9241 53.3793 32.9098 53.3632 32.891 53.354C32.8722 53.3448 32.8503 53.3432 32.8302 53.3495Z" fill="#37474F"/>
<path d="M34.0355 45.4224C34.0355 45.3816 33.9661 45.3648 33.9611 45.408C33.8247 46.7904 33.604 47.9952 33.3486 49.2744C33.2295 49.8672 32.3789 53.1288 31.3323 52.7808C31.1562 52.7208 31.0843 52.5408 31.0843 52.2768C31.1243 51.9346 31.2076 51.5985 31.3323 51.276C31.5258 50.5944 31.6944 49.908 31.8283 49.2144C32.0911 47.9239 32.215 46.6104 32.1978 45.2952C32.1978 45.2863 32.1942 45.2777 32.1877 45.2714C32.1812 45.2651 32.1723 45.2616 32.1631 45.2616C32.1539 45.2616 32.1451 45.2651 32.1386 45.2714C32.132 45.2777 32.1284 45.2863 32.1284 45.2952C31.9698 47.1058 31.6697 48.9021 31.2306 50.6688C31.005 51.5184 30.4197 52.7688 31.3348 52.9944C32.2499 53.22 33.113 51.1128 33.2915 50.5296C33.7672 48.8656 34.0173 47.1488 34.0355 45.4224Z" fill="#37474F"/>
<path d="M31.3522 52.8719C31.2326 53.086 31.1274 53.3072 31.0372 53.5343C30.9491 53.708 30.8953 53.896 30.8785 54.0887C30.8785 54.1247 30.9281 54.1343 30.9504 54.1103C31.0794 53.9518 31.1831 53.7755 31.2579 53.5871C31.3621 53.3831 31.4712 53.1815 31.5679 52.9727C31.5817 52.945 31.5836 52.9132 31.5731 52.8841C31.5627 52.8551 31.5407 52.8313 31.5121 52.8179C31.4835 52.8046 31.4506 52.8027 31.4206 52.8129C31.3906 52.823 31.366 52.8442 31.3522 52.8719Z" fill="#37474F"/>
<path d="M29.3508 76.56C29.4128 74.916 29.5988 73.2 29.0433 71.604C28.7397 70.828 28.3757 70.0754 27.9545 69.3528C27.5412 68.58 27.1345 67.8032 26.7344 67.0224C25.1373 63.9024 23.6319 60.7296 22.2877 57.4992C21.6405 55.9416 21.0626 54.3456 20.832 52.6752C20.6195 50.9211 20.7321 49.1445 21.1643 47.4288C21.266 47.0016 21.3726 46.5744 21.4941 46.152C21.4941 46.1208 21.4545 46.104 21.4445 46.1352C20.879 47.7533 20.5648 49.4437 20.5121 51.1512C20.5236 52.7894 20.8282 54.4134 21.4123 55.9512C21.9852 57.564 22.7019 59.1336 23.3963 60.696C24.1254 62.3088 24.8826 63.9088 25.668 65.496C26.4492 67.0728 27.2825 68.616 28.1083 70.1784C28.5343 70.9176 28.8436 71.7145 29.0259 72.5424C29.1532 73.3998 29.1864 74.2678 29.1251 75.132C28.9837 78.768 28.6589 90.876 28.6117 94.5048C28.6117 94.9656 28.6117 95.4264 28.5944 95.8848C28.5944 95.9256 28.6589 95.9328 28.6613 95.8848C28.9118 92.2728 29.2169 80.1936 29.3508 76.56Z" fill="#37474F"/>
<path d="M26.6699 46.5095C26.6699 46.4831 26.6303 46.4879 26.6253 46.5095C26.4839 47.5103 26.4046 48.5495 25.9036 49.4567C25.4473 50.2895 24.6463 50.8271 23.7758 51.2039C23.2684 51.4143 22.7502 51.5993 22.2233 51.7583C22.1861 51.7703 22.196 51.8255 22.2233 51.8183C23.2153 51.6191 24.2073 51.3959 25.0778 50.8583C25.9954 50.2847 26.4691 49.3631 26.6203 48.3335C26.7024 47.7288 26.719 47.1175 26.6699 46.5095Z" fill="#37474F"/>
<path d="M33.728 30.6552C35.7591 34.4088 42.1401 39.8328 44.1737 40.308C46.6835 40.8912 52.2536 36.8256 54.4137 34.4304C55.3065 33.4392 51.584 29.1192 49.9819 29.3208C49.099 29.4336 44.5829 33.8232 43.8365 33.5208C42.0385 32.8008 39.5386 31.308 35.9699 29.3088C34.0281 28.2216 32.4657 28.32 33.728 30.6552Z" fill="#EB9481"/>
<path d="M48.0574 30.768C48.0574 30.768 49.0693 29.0232 49.6893 28.3512C50.3093 27.6792 53.568 25.9944 53.9846 26.6544C54.5203 27.5088 52.8364 28.8384 51.9238 29.3856C51.9238 29.3856 53.1638 31.3584 52.1718 32.568C51.1798 33.7776 48.0574 30.768 48.0574 30.768Z" fill="#EB9481"/>
<path d="M53.7292 35.0735C54.4186 34.6919 57.417 32.6736 58.1213 31.9367C58.8256 31.2 60.693 28.9199 60.1623 28.3367C59.6316 27.7535 59.029 28.3799 59.029 28.3799C59.029 28.3799 59.6589 27.2999 59.0686 26.7623C58.4784 26.2247 57.5806 27.2255 57.5806 27.2255C57.5806 27.2255 58.1461 26.0687 57.5162 25.5743C56.8862 25.0799 56.1546 26.2343 56.1546 26.2343C56.1546 26.2343 56.7201 25.1999 56.0257 25.0031C55.1899 24.7631 54.3666 26.7887 53.5258 27.5495C53.3349 27.7223 49.3942 30.7919 49.3942 30.7919L53.7292 35.0735Z" fill="#EB9481"/>
<path d="M56.2141 26.1384C55.604 27.624 55.0733 28.1712 53.7589 29.0976C53.7341 29.1168 53.7589 29.1576 53.7837 29.1408C55.1552 28.3464 55.9264 27.7536 56.2885 26.1648C56.3084 26.0856 56.2439 26.0688 56.2141 26.1384Z" fill="#263238"/>
<path d="M57.6203 27.1199C56.849 28.6079 56.2786 29.2079 54.9766 30.2759C54.9568 30.2903 54.9766 30.3239 55.0014 30.3095C56.3704 29.3639 57.1243 28.7543 57.6922 27.1679C57.7195 27.0887 57.6575 27.0431 57.6203 27.1199Z" fill="#263238"/>
<path d="M58.9595 28.4352C58.1039 29.8248 57.5062 30.5088 56.105 31.3872C56.0994 31.392 56.0956 31.3985 56.0944 31.4057C56.0932 31.4129 56.0947 31.4203 56.0985 31.4265C56.1023 31.4328 56.1083 31.4376 56.1154 31.44C56.1225 31.4425 56.1302 31.4425 56.1373 31.44C57.655 30.6768 58.4065 29.8296 59.0017 28.4664C59.0413 28.3728 59.024 28.3488 58.9595 28.4352Z" fill="#263238"/>
<path d="M54.064 26.9352C53.9747 28.056 52.7273 28.6992 51.8841 29.2944C51.8713 29.303 51.8608 29.3145 51.8536 29.3279C51.8464 29.3412 51.8427 29.3561 51.8427 29.3712C51.8427 29.3863 51.8464 29.4011 51.8536 29.4145C51.8608 29.4279 51.8713 29.4394 51.8841 29.448C52.3478 30.3072 52.7446 31.6512 52.2536 32.568C52.2515 32.5733 52.2514 32.5791 52.2534 32.5845C52.2553 32.5898 52.2591 32.5944 52.2642 32.5972C52.2692 32.6001 52.2752 32.6012 52.281 32.6002C52.2868 32.5992 52.292 32.5963 52.2958 32.592C52.9579 31.6872 52.6802 30.336 52.1098 29.424C52.9852 28.8288 54.2054 28.128 54.0814 26.9448L54.064 26.9352Z" fill="#263238"/>
<path d="M40.7241 31.5119L38.192 37.1783C38.192 37.1783 33.7801 31.8983 32.9369 29.9903C31.992 27.8399 33.3262 27.8399 35.464 28.6511C37.6017 29.4623 40.7241 31.5119 40.7241 31.5119Z" fill="#4535EC"/>
<path d="M39.122 31.0632C39.0479 31.0609 38.9755 31.0411 38.9112 31.0056C38.8506 30.9709 38.8006 30.9213 38.7662 30.8619C38.7318 30.8025 38.7142 30.7353 38.7153 30.6672C38.7134 30.5776 38.6844 30.4906 38.632 30.4168C38.5795 30.343 38.5059 30.2857 38.4201 30.252C38.3407 30.2245 38.2556 30.2162 38.1721 30.228C38.0928 30.228 38.0109 30.2448 37.9241 30.2592L38.1721 30.288C38.2473 30.2895 38.321 30.3076 38.3879 30.3408C38.4497 30.3727 38.5015 30.42 38.5381 30.4778C38.5748 30.5356 38.5948 30.6018 38.5962 30.6696C38.5951 30.7588 38.6211 30.8464 38.6709 30.9215C38.7207 30.9965 38.7922 31.0558 38.8765 31.092C38.9543 31.1252 39.0402 31.1369 39.1245 31.1256C39.2063 31.1136 39.2881 31.1088 39.3725 31.0944C39.2857 31.08 39.2038 31.0728 39.122 31.0632ZM32.922 29.7576C32.922 29.6784 32.9046 29.6016 32.8897 29.5176C32.8749 29.5968 32.8699 29.6736 32.86 29.7576C32.8612 29.7671 32.8612 29.7768 32.86 29.7864L32.922 29.9352C32.9303 29.8768 32.9278 29.8175 32.9145 29.76L32.922 29.7576ZM36.9371 33.1896C36.8827 33.2393 36.8161 33.2748 36.7437 33.2928C36.6759 33.3097 36.6047 33.3091 36.5372 33.291C36.4697 33.2729 36.4084 33.2379 36.3593 33.1896C36.2928 33.1275 36.2091 33.0855 36.1183 33.0689C36.0275 33.0522 35.9337 33.0617 35.8484 33.096C35.7682 33.132 35.6991 33.1873 35.6475 33.2568C35.5979 33.3192 35.5458 33.3768 35.4987 33.444C35.5657 33.3984 35.6277 33.348 35.6921 33.3C35.7461 33.2488 35.8114 33.2102 35.8831 33.1872C35.9502 33.1683 36.0212 33.1668 36.0891 33.1828C36.157 33.1988 36.2194 33.2317 36.27 33.2784C36.3171 33.3258 36.3743 33.3626 36.4377 33.3864C36.5011 33.4101 36.569 33.4202 36.6368 33.4158C36.7046 33.4115 36.7706 33.3928 36.8302 33.3612C36.8898 33.3296 36.9415 33.2858 36.9817 33.2328C37.0313 33.1704 37.0834 33.1104 37.1305 33.0456C37.0561 33.0912 36.9941 33.1416 36.9297 33.1896H36.9371Z" fill="white"/>
<path d="M39.5759 31.2672C39.1518 31.9464 38.1771 34.1472 38.0135 34.5216C37.9267 34.7136 37.6142 35.4816 37.5175 35.6832C37.5175 35.7072 37.5472 35.7192 37.5571 35.6832C37.7258 35.3208 37.9341 34.9632 38.1052 34.6104C38.2763 34.2576 39.3452 32.0328 39.5932 31.2696C39.591 31.2675 39.5881 31.2661 39.5849 31.2656C39.5818 31.2652 39.5786 31.2658 39.5759 31.2672Z" fill="#263238"/>
<path opacity="0.1" d="M32.9344 30C33.7776 31.92 38.1895 37.2 38.1895 37.2L39.494 34.2792L33.3634 28.176C32.617 28.1928 32.369 28.7112 32.9344 30Z" fill="black"/>
<path d="M19.892 46.6127L36.7883 49.7807C36.7238 50.1023 37.5124 38.5007 36.2774 30.4487C35.9128 28.0679 33.1501 26.9423 30.5734 29.0471C25.1348 33.4775 19.8524 46.8215 19.892 46.6127Z" fill="#4535EC"/>
<path d="M23.3938 39.156L23.3145 39.3096L23.3641 39.2568C23.4112 39.1944 23.4657 39.1344 23.5104 39.0696C23.4707 39.096 23.431 39.12 23.3938 39.156ZM36.6271 46.596C36.5606 46.534 36.4767 46.4923 36.3858 46.4761C36.295 46.4599 36.2012 46.4699 36.1162 46.5048C36.0359 46.5395 35.9666 46.5941 35.9153 46.6632C35.8657 46.7256 35.8137 46.7856 35.7665 46.8504C35.8335 46.8048 35.8955 46.7544 35.96 46.7064C36.0142 46.6561 36.0795 46.6184 36.1509 46.596C36.218 46.5766 36.2892 46.5749 36.3571 46.5909C36.4251 46.6069 36.4875 46.6402 36.5378 46.6872C36.585 46.7326 36.6412 46.7683 36.703 46.7922C36.7648 46.8161 36.8309 46.8277 36.8974 46.8264C36.8974 46.788 36.8974 46.7496 36.8974 46.7112C36.7944 46.7058 36.6975 46.6619 36.6271 46.5888V46.596ZM26.7195 47.4648C26.6646 47.5144 26.5983 47.5506 26.5261 47.5704C26.458 47.5868 26.3868 47.5857 26.3193 47.5671C26.2519 47.5486 26.1906 47.5133 26.1417 47.4648C26.0746 47.4029 25.9902 47.3613 25.899 47.3451C25.8078 47.3289 25.7137 47.3388 25.6283 47.3736C25.5489 47.4086 25.4805 47.4633 25.4299 47.532L25.3406 47.6424H25.3753L25.4721 47.5704C25.5255 47.5204 25.59 47.4827 25.6605 47.46C25.728 47.4404 25.7996 47.4386 25.868 47.4546C25.9364 47.4706 25.9992 47.504 26.0499 47.5512C26.0972 47.5985 26.1546 47.6352 26.218 47.6587C26.2815 47.6823 26.3495 47.6921 26.4173 47.6875C26.4851 47.683 26.5511 47.6641 26.6106 47.6322C26.67 47.6004 26.7216 47.5564 26.7617 47.5032C26.8113 47.4408 26.8633 47.3832 26.9105 47.316C26.846 47.3592 26.784 47.4096 26.7195 47.4576V47.4648ZM31.1488 39.0216C31.0949 39.0707 31.0293 39.1062 30.9578 39.1248C30.8897 39.1425 30.8179 39.1422 30.7499 39.124C30.6819 39.1059 30.6201 39.0705 30.5709 39.0216C30.5047 38.9591 30.4208 38.917 30.3298 38.9008C30.2389 38.8845 30.145 38.8949 30.0601 38.9304C29.9798 38.9651 29.9105 39.0197 29.8592 39.0888C29.8096 39.1512 29.7575 39.2112 29.7104 39.276C29.7773 39.2304 29.8393 39.18 29.9038 39.132C29.957 39.0804 30.0226 39.0424 30.0948 39.0216C30.1616 39.0017 30.2327 38.9994 30.3007 39.015C30.3688 39.0306 30.4312 39.0636 30.4817 39.1104C30.5452 39.1722 30.6256 39.2151 30.7134 39.2343C30.8013 39.2534 30.8929 39.2479 30.9777 39.2184C31.0601 39.1875 31.1316 39.1342 31.1835 39.0648C31.2331 39.0024 31.2852 38.9424 31.3323 38.8776C31.2753 38.916 31.2133 38.9664 31.1488 39.0144V39.0216ZM36.6221 33.3096C36.5202 33.308 36.423 33.2674 36.3518 33.1968C36.2854 33.1347 36.2016 33.0927 36.1108 33.0761C36.0201 33.0595 35.9262 33.0689 35.8409 33.1032C35.7608 33.1392 35.6916 33.1946 35.6401 33.264C35.5905 33.3264 35.5384 33.384 35.4913 33.4512C35.5582 33.4056 35.6202 33.3552 35.6847 33.3072C35.7386 33.256 35.804 33.2175 35.8757 33.1944C35.9428 33.1755 36.0138 33.174 36.0817 33.19C36.1496 33.206 36.2119 33.239 36.2625 33.2856C36.3106 33.3325 36.3684 33.3689 36.4321 33.3925C36.4958 33.4161 36.564 33.4263 36.6321 33.4224C36.6315 33.3822 36.6282 33.3422 36.6221 33.3024V33.3096ZM36.9073 37.8696C36.8289 37.8815 36.7547 37.912 36.6915 37.9585C36.6283 38.005 36.578 38.066 36.5453 38.136C36.5135 38.212 36.5024 38.2947 36.513 38.376C36.513 38.4528 36.5304 38.532 36.5453 38.616C36.5601 38.5392 36.5651 38.46 36.575 38.376C36.5793 38.3036 36.6005 38.233 36.637 38.1696C36.6663 38.1214 36.7061 38.0798 36.7537 38.0479C36.8012 38.016 36.8553 37.9945 36.9123 37.9848C36.9098 37.9368 36.9073 37.896 36.9073 37.8528V37.8696ZM26.9873 36.0576C26.9873 35.9784 26.97 35.8992 26.9551 35.8176C26.9402 35.8944 26.9353 35.9736 26.9229 36.0576C26.9216 36.1293 26.9039 36.1999 26.8708 36.264C26.8376 36.3236 26.7886 36.3737 26.7289 36.4091C26.6693 36.4445 26.601 36.464 26.531 36.4656C26.4386 36.465 26.348 36.4903 26.2701 36.5384C26.1922 36.5865 26.1304 36.6554 26.0921 36.7368C26.0603 36.8128 26.0492 36.8955 26.0598 36.9768C26.0598 37.056 26.0772 37.1328 26.0921 37.2168C26.1069 37.1376 26.1119 37.0608 26.1243 36.9768C26.1266 36.9044 26.147 36.8336 26.1838 36.7704C26.22 36.7121 26.2713 36.664 26.3327 36.6307C26.394 36.5975 26.4632 36.5803 26.5335 36.5808C26.6261 36.5793 26.7162 36.5514 26.7925 36.5006C26.8688 36.4498 26.9279 36.3784 26.9625 36.2952C26.9961 36.2146 27.0064 36.1267 26.9923 36.0408L26.9873 36.0576ZM23.1582 43.9968C23.1582 43.92 23.1409 43.8408 23.126 43.7568C23.1111 43.836 23.1061 43.9152 23.0962 43.9968C23.0946 44.0695 23.076 44.1409 23.0417 44.2056C23.0086 44.2654 22.9597 44.3156 22.9 44.351C22.8403 44.3865 22.7719 44.4058 22.7019 44.4072C22.6097 44.4061 22.5192 44.4313 22.4416 44.4795C22.364 44.5277 22.3028 44.5968 22.2654 44.6784C22.2314 44.7539 22.2194 44.8369 22.2307 44.9184C22.2307 44.9952 22.2481 45.0744 22.2629 45.1584C22.2778 45.0816 22.2828 45.0024 22.2952 44.9184C22.2972 44.8459 22.3176 44.775 22.3547 44.712C22.3905 44.6534 22.4418 44.605 22.5032 44.5717C22.5646 44.5384 22.634 44.5214 22.7044 44.5224C22.7969 44.5206 22.8868 44.4926 22.9631 44.4418C23.0393 44.391 23.0986 44.3198 23.1334 44.2368C23.1618 44.16 23.1703 44.0776 23.1582 43.9968ZM30.9901 43.5168C30.9901 43.44 30.9727 43.3608 30.9578 43.2768C30.9429 43.3536 30.938 43.4328 30.9256 43.5168C30.9247 43.5893 30.9069 43.6607 30.8735 43.7256C30.8403 43.7852 30.7913 43.8353 30.7317 43.8707C30.672 43.9061 30.6037 43.9256 30.5337 43.9272C30.4414 43.9269 30.3509 43.9523 30.2731 44.0004C30.1952 44.0485 30.1333 44.1172 30.0948 44.1984C30.063 44.2744 30.0519 44.3571 30.0625 44.4384C30.0625 44.5152 30.0799 44.5944 30.0948 44.6784C30.1097 44.6016 30.1146 44.5224 30.127 44.4384C30.129 44.3659 30.1495 44.295 30.1865 44.232C30.2224 44.1734 30.2736 44.125 30.335 44.0917C30.3964 44.0584 30.4658 44.0414 30.5362 44.0424C30.6287 44.0406 30.7187 44.0126 30.7949 43.9618C30.8712 43.911 30.9304 43.8398 30.9653 43.7568C30.9991 43.6771 31.0111 43.5903 31 43.5048L30.9901 43.5168ZM32.9145 29.76C32.9145 29.6808 32.8972 29.604 32.8823 29.52C32.8674 29.5992 32.8625 29.676 32.8525 29.76C32.8497 29.8326 32.8311 29.9037 32.798 29.9688C32.7646 30.0282 32.7156 30.0779 32.6559 30.1128C32.5962 30.1478 32.528 30.1669 32.4582 30.168C32.3659 30.1677 32.2754 30.1931 32.1975 30.2412C32.1197 30.2893 32.0578 30.358 32.0193 30.4392C31.9875 30.5152 31.9764 30.5979 31.987 30.6792C31.987 30.7584 32.0044 30.8352 32.0193 30.9192C32.0341 30.84 32.0391 30.7632 32.0515 30.6792C32.0535 30.6075 32.074 30.5374 32.111 30.4752C32.1465 30.4163 32.1976 30.3676 32.2591 30.3342C32.3206 30.3009 32.3902 30.2841 32.4607 30.2856C32.5531 30.2832 32.6427 30.2549 32.7189 30.2042C32.795 30.1535 32.8543 30.0826 32.8897 30C32.9182 29.9232 32.9267 29.8408 32.9145 29.76ZM28.0934 32.592C28.0408 32.6431 27.9761 32.681 27.9049 32.7024C27.8381 32.7224 27.767 32.7247 27.699 32.709C27.631 32.6934 27.5685 32.6605 27.5181 32.6136C27.4875 32.5821 27.4514 32.5561 27.4114 32.5368C27.3883 32.5704 27.3635 32.604 27.337 32.6376C27.3699 32.6549 27.4 32.6767 27.4263 32.7024C27.4931 32.7649 27.5774 32.8069 27.6687 32.8231C27.7601 32.8393 27.8543 32.8291 27.9397 32.7936C28.019 32.7586 28.0875 32.704 28.1381 32.6352C28.1877 32.5728 28.2422 32.5128 28.2869 32.448C28.2199 32.4936 28.1579 32.544 28.0934 32.592ZM35.4417 41.9112C35.3668 41.909 35.2936 41.8892 35.2284 41.8536C35.1683 41.8184 35.1187 41.7687 35.0844 41.7094C35.05 41.6501 35.0321 41.5832 35.0325 41.5152C35.0309 41.4256 35.002 41.3384 34.9495 41.2646C34.8971 41.1907 34.8233 41.1335 34.7373 41.1C34.6581 41.0717 34.5728 41.0635 34.4893 41.076C34.4075 41.076 34.3257 41.0928 34.2413 41.1048C34.3207 41.1192 34.4025 41.1264 34.4893 41.136C34.5636 41.1379 34.6365 41.156 34.7026 41.1888C34.7646 41.2206 34.8166 41.2678 34.8532 41.3257C34.8898 41.3835 34.9098 41.4498 34.9109 41.5176C34.9105 41.6067 34.9367 41.694 34.9864 41.769C35.0361 41.844 35.1073 41.9034 35.1912 41.94C35.2692 41.9727 35.3549 41.9843 35.4392 41.9736C35.521 41.9736 35.6004 41.9568 35.6872 41.9424C35.6029 41.928 35.5235 41.9208 35.4417 41.9112ZM31.0297 48.528C31.0288 48.4383 31.0002 48.3508 30.9477 48.2768C30.8951 48.2029 30.8209 48.1458 30.7346 48.1128C30.6558 48.0828 30.57 48.0745 30.4866 48.0888C30.4048 48.0888 30.3229 48.1032 30.2386 48.1176C30.318 48.132 30.3998 48.1392 30.4866 48.1488C30.5611 48.1495 30.6343 48.1676 30.6999 48.2016C30.7618 48.2334 30.8138 48.2806 30.8505 48.3385C30.8871 48.3963 30.9071 48.4626 30.9082 48.5304C30.9074 48.582 30.9167 48.6333 30.9355 48.6816L31.0843 48.7104C31.0499 48.6553 31.0311 48.5924 31.0297 48.528ZM26.593 42.3648C26.5182 42.3626 26.445 42.3428 26.3797 42.3072C26.3192 42.2725 26.2691 42.223 26.2347 42.1635C26.2003 42.1041 26.1828 42.0369 26.1838 41.9688C26.1822 41.8792 26.1534 41.792 26.1009 41.7182C26.0484 41.6443 25.9746 41.5871 25.8887 41.5536C25.8093 41.5261 25.7241 41.5179 25.6407 41.5296C25.5613 41.5296 25.4795 41.5464 25.3927 41.5608C25.4721 41.5728 25.5539 41.58 25.6407 41.5896C25.7158 41.5912 25.7896 41.6092 25.8565 41.6424C25.9182 41.6744 25.9701 41.7217 26.0067 41.7795C26.0433 41.8373 26.0634 41.9035 26.0648 41.9712C26.0637 42.0371 26.0774 42.1024 26.105 42.1626C26.1326 42.2228 26.1735 42.2765 26.2247 42.3199C26.2759 42.3633 26.3363 42.3954 26.4016 42.4139C26.4669 42.4324 26.5356 42.437 26.6029 42.4272C26.6823 42.4152 26.7641 42.4104 26.8509 42.396C26.7542 42.3816 26.6724 42.3744 26.593 42.3648ZM32.545 35.4624C32.4706 35.4605 32.3979 35.4398 32.3342 35.4024C32.2737 35.3683 32.2236 35.3192 32.1891 35.2601C32.1547 35.2011 32.1372 35.1342 32.1383 35.0664C32.1361 34.977 32.107 34.8901 32.0546 34.8163C32.0022 34.7426 31.9287 34.6852 31.8432 34.6512C31.7642 34.6221 31.6788 34.613 31.5952 34.6248C31.5133 34.6248 31.434 34.6416 31.3472 34.656C31.429 34.6704 31.5084 34.6776 31.5952 34.6872C31.6705 34.6876 31.7445 34.7057 31.8109 34.74C31.8725 34.7722 31.9243 34.8195 31.9608 34.8773C31.9974 34.935 32.0176 35.0011 32.0193 35.0688C32.0186 35.1576 32.0444 35.2448 32.0937 35.3197C32.143 35.3947 32.2136 35.4542 32.297 35.4912C32.3752 35.5232 32.461 35.5339 32.545 35.5224C32.6269 35.5224 32.7087 35.5056 32.793 35.4912C32.7137 35.4792 32.6318 35.472 32.55 35.4624H32.545Z" fill="white"/>
<path d="M35.154 30.96C34.3306 31.1352 32.6393 30.1704 32.0763 29.028C32.0391 28.9488 32.2053 28.1544 32.359 27.1776C32.4508 26.5872 32.5401 25.9248 32.5748 25.3152C32.5748 25.1904 36.4709 26.4576 36.4709 26.4576C36.2018 27.2071 36.0286 27.9857 35.955 28.776C35.9511 28.8562 35.9552 28.9365 35.9674 29.016C35.9674 29.016 35.9674 29.04 35.9674 29.0568C36.022 29.5536 36.0344 30.78 35.154 30.96Z" fill="#EB9481"/>
<path d="M35.96 29.0399C35.96 29.0399 35.96 29.0663 35.96 29.0807C35.8246 29.0915 35.6886 29.0915 35.5533 29.0807C33.232 28.9079 32.7806 26.0591 32.7037 25.3391C33.4006 25.4735 36.4609 26.4719 36.4609 26.4719C36.1905 27.2212 36.0165 27.9999 35.9426 28.7903C35.942 28.8738 35.9479 28.9572 35.96 29.0399Z" fill="#263238"/>
<path d="M32.116 20.5367C31.6522 21.8831 32.297 25.8167 33.2716 26.7167C34.6877 28.0175 37.0512 28.1927 38.2044 26.5367C39.3228 24.9335 38.3904 19.8167 37.2967 18.9959C35.6847 17.7887 32.7955 18.5471 32.116 20.5367Z" fill="#EB9481"/>
<path d="M36.0071 22.9752C36.0071 22.9752 35.9872 22.9896 35.9897 23.0016C36.0418 23.2656 36.0542 23.5752 35.8186 23.7C35.8186 23.7 35.8186 23.7168 35.8186 23.7144C36.1212 23.628 36.0988 23.2176 36.0071 22.9752Z" fill="#263238"/>
<path d="M35.712 22.7328C35.2656 22.7664 35.3673 23.628 35.779 23.5968C36.1906 23.5656 36.0939 22.7064 35.712 22.7328Z" fill="#263238"/>
<path d="M37.6092 22.8433C37.6092 22.8433 37.6315 22.8433 37.6315 22.8649C37.6563 23.1313 37.7282 23.4337 37.9861 23.4961V23.5105C37.6786 23.5033 37.5869 23.1001 37.6092 22.8433Z" fill="#263238"/>
<path d="M37.8225 22.5384C38.2614 22.4568 38.3978 23.3136 37.9911 23.388C37.5844 23.4624 37.448 22.6056 37.8225 22.5384Z" fill="#263238"/>
<path d="M35.3226 22.3776C35.4354 22.3322 35.5455 22.2809 35.6525 22.224C35.7765 22.1836 35.8841 22.1063 35.96 22.0032C35.9759 21.9656 35.9789 21.9242 35.9686 21.8849C35.9584 21.8456 35.9354 21.8105 35.903 21.7848C35.8307 21.7441 35.7485 21.7227 35.6649 21.7227C35.5813 21.7227 35.4991 21.7441 35.4268 21.7848C35.2686 21.849 35.1399 21.9667 35.0647 22.116C35.0491 22.1514 35.0446 22.1904 35.0517 22.2282C35.0588 22.2661 35.0772 22.3011 35.1047 22.3289C35.1321 22.3568 35.1674 22.3762 35.2061 22.3849C35.2449 22.3935 35.2854 22.391 35.3226 22.3776Z" fill="#263238"/>
<path d="M38.1151 22.0656C37.9926 22.0561 37.8709 22.0392 37.7506 22.0152C37.6204 22.0163 37.4937 21.9749 37.391 21.8976C37.363 21.8669 37.3464 21.8281 37.3437 21.7873C37.341 21.7465 37.3524 21.7059 37.3761 21.672C37.4325 21.6126 37.5043 21.5687 37.5841 21.5451C37.6639 21.5215 37.7487 21.5189 37.8299 21.5376C38.0009 21.5498 38.161 21.6234 38.2788 21.744C38.3036 21.7733 38.3192 21.8088 38.3237 21.8463C38.3281 21.8839 38.3213 21.9219 38.3041 21.9559C38.2868 21.9898 38.2598 22.0182 38.2263 22.0377C38.1928 22.0571 38.1542 22.0668 38.1151 22.0656Z" fill="#263238"/>
<path d="M36.2402 24.648C36.3223 24.7458 36.4243 24.8261 36.54 24.8839C36.6556 24.9418 36.7824 24.9758 36.9123 24.984C37.0261 24.9917 37.1405 24.9836 37.2521 24.96C37.2741 24.9578 37.2957 24.9529 37.3165 24.9456C37.3368 24.9428 37.3568 24.938 37.3761 24.9312C37.3904 24.9274 37.403 24.9188 37.4116 24.907C37.4202 24.8952 37.4243 24.8808 37.4232 24.8664C37.4244 24.8569 37.4244 24.8472 37.4232 24.8376V24.8136C37.4058 24.6072 37.3488 24.2976 37.3488 24.2976C37.4306 24.3264 37.8448 24.456 37.8274 24.348C37.6945 23.4253 37.4644 22.5182 37.1404 21.6408C37.1404 21.6345 37.1378 21.6284 37.1332 21.6239C37.1285 21.6193 37.1222 21.6168 37.1157 21.6168C37.1091 21.6168 37.1028 21.6193 37.0981 21.6239C37.0935 21.6284 37.0909 21.6345 37.0909 21.6408C37.2099 22.4928 37.4827 23.3208 37.6141 24.1776C37.4661 24.129 37.3115 24.1015 37.1553 24.096C37.1281 24.096 37.2769 24.6936 37.2793 24.7872C37.1077 24.8232 36.9303 24.8254 36.7577 24.7936C36.5852 24.7619 36.421 24.6968 36.2749 24.6024C36.2402 24.6072 36.2204 24.6288 36.2402 24.648Z" fill="#263238"/>
<path d="M37.2 24.912C37.0889 25.0829 36.9343 25.2234 36.7511 25.32C36.6499 25.3688 36.5354 25.3856 36.4238 25.368C36.1758 25.3296 36.151 25.128 36.1758 24.9336C36.1897 24.8348 36.2164 24.7381 36.2551 24.6456C36.5327 24.8295 36.8638 24.9229 37.2 24.912Z" fill="#263238"/>
<path d="M36.7437 25.32C36.6424 25.3688 36.5279 25.3856 36.4163 25.368C36.1683 25.3296 36.1435 25.128 36.1683 24.9336C36.2952 24.9257 36.4212 24.9595 36.5256 25.0297C36.6301 25.0999 36.707 25.2022 36.7437 25.32Z" fill="#FF9ABB"/>
<path d="M33.4204 22.7353C33.6833 21.9673 33.2171 20.6881 33.6114 20.3353C34.4596 19.5841 36.2253 20.9977 37.4281 20.9953C38.6309 20.9929 38.9756 20.2753 38.7574 19.3489C38.5392 18.4225 37.7307 17.8273 36.4213 17.6497C35.2775 17.532 34.1272 17.8054 33.17 18.4225C33.17 18.4225 33.4601 17.9641 33.3485 17.8225C33.2369 17.6809 32.669 18.1249 32.4954 18.3025C32.3695 18.4675 32.2746 18.6527 32.2152 18.8497C32.0416 18.8085 31.8629 18.7915 31.6845 18.7993C31.4242 18.8247 31.1816 18.9387 31 19.1209C30.9801 19.1881 31.4042 19.2385 31.7018 19.2505C31.7018 19.2505 31.1537 19.9705 31.1711 20.5777C31.1885 21.1849 32.1928 24.0769 32.4284 24.1057C32.736 24.1441 33.3138 23.0401 33.4204 22.7353Z" fill="#263238"/>
<path d="M31.811 19.176C31.811 19.176 31.8358 19.176 31.8258 19.1904C31.5395 19.4189 31.324 19.7196 31.2034 20.0592C31.0868 20.4708 31.0868 20.9052 31.2034 21.3168C31.3943 22.116 31.806 22.8408 32.1631 23.5752C32.1631 23.5968 32.1358 23.616 32.1259 23.5944C31.6514 22.8402 31.3009 22.0192 31.0868 21.1608C30.943 20.4312 31.1116 19.5888 31.811 19.176Z" fill="#263238"/>
<path d="M33.5618 20.0448C33.9154 19.9991 34.2747 20.0187 34.6208 20.1024C34.9412 20.208 35.2469 20.3515 35.531 20.5296C36.1818 20.9076 36.9297 21.0998 37.6886 21.084V21.0984C36.993 21.1612 36.2937 21.0225 35.6798 20.7C35.3752 20.5215 35.0597 20.3612 34.7349 20.22C34.3533 20.1181 33.9571 20.0767 33.5618 20.0976C33.5572 20.0948 33.5534 20.0909 33.5508 20.0863C33.5482 20.0817 33.5468 20.0765 33.5468 20.0712C33.5468 20.0659 33.5482 20.0607 33.5508 20.0561C33.5534 20.0515 33.5572 20.0476 33.5618 20.0448Z" fill="#263238"/>
<path d="M33.8842 18.1008C34.3543 17.8735 34.8553 17.7119 35.3722 17.6208C35.8674 17.5161 36.3775 17.495 36.8801 17.5584C37.7431 17.688 38.5441 18.2136 38.7525 19.0704C38.8674 19.5094 38.8091 19.9741 38.5888 20.3736C38.5873 20.3764 38.5853 20.379 38.5828 20.381C38.5803 20.3831 38.5775 20.3847 38.5744 20.3857C38.5712 20.3867 38.568 20.3871 38.5647 20.3869C38.5614 20.3867 38.5582 20.3858 38.5553 20.3844C38.5524 20.383 38.5498 20.381 38.5476 20.3786C38.5455 20.3762 38.5438 20.3734 38.5428 20.3704C38.5418 20.3674 38.5413 20.3642 38.5416 20.3611C38.5418 20.3579 38.5427 20.3548 38.5441 20.352C38.7249 19.9845 38.7777 19.5702 38.6945 19.1712C38.6113 18.7723 38.3967 18.4101 38.0829 18.1392C37.3686 17.5512 36.3741 17.5128 35.4913 17.6592C34.9394 17.7573 34.3999 17.9118 33.8817 18.12L33.8842 18.1008Z" fill="#263238"/>
<path d="M33.0584 23.7983C33.0584 23.7983 32.1482 22.5287 31.553 22.8383C30.9578 23.1479 31.6373 24.9983 32.3342 25.2383C32.4212 25.2769 32.5153 25.2981 32.611 25.3005C32.7066 25.3029 32.8018 25.2866 32.8908 25.2526C32.9798 25.2185 33.0607 25.1673 33.1287 25.1022C33.1967 25.037 33.2504 24.9593 33.2865 24.8735L33.0584 23.7983Z" fill="#EB9481"/>
<path d="M31.7614 23.364C31.7614 23.364 31.7614 23.3784 31.7614 23.3832C32.2574 23.5752 32.5053 24.0168 32.6839 24.4728C32.6554 24.4253 32.6166 24.3844 32.5702 24.3528C32.5238 24.3211 32.4709 24.2996 32.4151 24.2895C32.3593 24.2795 32.3019 24.2813 32.2468 24.2947C32.1918 24.3081 32.1404 24.3328 32.0962 24.3672C32.0962 24.3672 32.0961 24.3936 32.111 24.3912C32.1969 24.3652 32.289 24.3656 32.3747 24.3922C32.4604 24.4189 32.5355 24.4705 32.5897 24.54C32.6804 24.6576 32.757 24.7848 32.8178 24.9192C32.8426 24.96 32.922 24.9384 32.9046 24.8904C32.9121 24.2736 32.431 23.4288 31.7614 23.364Z" fill="#263238"/>
<path d="M63.7781 18.5927L74.3702 33.3959L88.6377 36.4487L92.1915 38.5728L80.9199 52.8984L81.339 70.8984L63.7781 64.9512L46.2148 70.8984L42.6609 68.7768L46.6339 52.8984L35.3623 38.5728L53.1811 33.3959L60.2243 16.4688L63.7781 18.5927Z" fill="#CBC7FF"/>
<path opacity="0.1" d="M63.4158 18.124L74.0079 32.9272L88.2754 35.98L91.8292 38.104L80.5576 52.4296L80.9767 70.4296L63.4158 64.4824L45.8525 70.4296L42.2986 68.308L46.2716 52.4296L35 38.104L52.8188 32.9272L59.862 16L63.4158 18.124Z" fill="black"/>
<path d="M60.2243 16.4688L70.8189 31.272L88.6377 36.4487L77.3661 50.7744L77.7852 68.7768L60.2243 62.8272L42.661 68.7768L43.0801 50.7744L31.8085 36.4487L49.6298 31.272L60.2243 16.4688Z" fill="#CBC7FF"/>
<g opacity="0.2">
<path d="M42.8891 58.98L43.0801 50.7744L40.6373 47.6688L65.4001 23.7048L70.8164 31.272L71.357 31.4304L42.8891 58.98Z" fill="#1B1464"/>
<path d="M86.5247 35.8344L57.7765 63.6552L49.5305 66.4488L82.4029 34.6368L86.5247 35.8344Z" fill="#1B1464"/>
<path d="M41.0911 33.7512L34.6158 40.0176L32.2995 37.0752L33.4353 35.976L41.0911 33.7512Z" fill="#1B1464"/>
<path d="M64.5395 22.5024L39.7271 46.5144L39.4989 46.224L64.3237 22.2L64.5395 22.5024Z" fill="#1B1464"/>
<path d="M77.5992 60.7895L71.5331 66.6599L71.1437 66.5279L77.5868 60.2927L77.5992 60.7895Z" fill="#1B1464"/>
</g>
<path d="M29.5963 31.8576C28.9813 35.8224 27.4511 44.0184 29.1648 46.4832C31.4141 49.7184 38.9335 51.9192 40.9051 52.5744C41.7632 52.86 44.0572 47.448 43.586 46.6296C43.1148 45.8112 35.3077 42.72 34.7795 42.24C34.2513 41.76 33.5693 35.2656 32.8823 31.92C32.0168 27.7128 30.1171 28.5024 29.5963 31.8576Z" fill="#EB9481"/>
<path d="M45.9271 48.5616C45.6196 48.2256 45.7981 48.0672 46.6091 48.2112C47.4201 48.3552 50.4977 49.5816 50.8499 48.5064C51.2021 47.4312 46.8323 45.7584 45.4658 45.6264C44.0993 45.4944 41.8376 45.7296 41.8376 45.7296C42.6213 46.2144 44.392 47.58 45.9271 48.5616Z" fill="#EB9481"/>
<path d="M38.7599 51.6672C41.0167 52.9704 43.7472 54.7272 46.7132 54.744C47.0427 54.7531 47.3658 54.6551 47.6308 54.4656C48.9601 54.4968 49.3668 53.8992 49.3668 53.8992C50.6068 53.5608 50.9516 52.8912 50.9516 52.8912C50.9516 52.8912 52.5115 52.9104 52.6876 52.0008C52.881 50.9784 50.649 51.1512 49.3644 50.52C46.4156 49.08 42.6436 46.224 41.8376 45.72L38.7599 51.6672Z" fill="#EB9481"/>
<path d="M45.1757 51.1201C46.0332 51.5516 46.9197 51.9269 47.8293 52.2433C48.8475 52.5286 49.8862 52.7403 50.9367 52.8769C50.9433 52.8769 50.9496 52.8794 50.9543 52.8839C50.9589 52.8884 50.9615 52.8945 50.9615 52.9009C50.9615 52.9072 50.9589 52.9133 50.9543 52.9178C50.9496 52.9223 50.9433 52.9249 50.9367 52.9249C48.8802 52.8592 46.882 52.2473 45.1608 51.1561C45.1162 51.1201 45.136 51.0865 45.1757 51.1201Z" fill="#263238"/>
<path d="M44.015 52.7015C44.8905 53.0543 46.433 53.6615 49.3768 53.8679C49.3768 53.8679 49.3892 53.8847 49.3768 53.8847C47.5089 53.9945 45.6464 53.5989 43.9977 52.7423C43.9456 52.7159 43.958 52.6775 44.015 52.7015Z" fill="#263238"/>
<path d="M43.4 53.5704C44.9128 54.1128 45.937 54.2712 47.616 54.4584V54.4776C45.6841 54.456 44.9847 54.2376 43.3752 53.6184C43.3256 53.5968 43.3504 53.5488 43.4 53.5704Z" fill="#263238"/>
<path d="M34.0157 36.48L28.0091 38.4144C28.0091 38.4144 29.1276 31.764 30.0278 29.8992C31.0397 27.7992 31.9275 28.7592 32.7236 30.8208C33.5197 32.8824 34.0157 36.48 34.0157 36.48Z" fill="#4535EC"/>
<path d="M32.55 35.4623C32.4755 35.4604 32.4029 35.4397 32.3392 35.4023C32.2786 35.3682 32.2286 35.3191 32.1941 35.2601C32.1597 35.201 32.1421 35.1341 32.1433 35.0663C32.141 34.9769 32.112 34.89 32.0595 34.8162C32.0071 34.7425 31.9337 34.6851 31.8481 34.6511C31.7692 34.622 31.6838 34.6129 31.6001 34.6247C31.5183 34.6247 31.4389 34.6415 31.3521 34.6559C31.434 34.6703 31.5133 34.6775 31.6001 34.6871C31.6754 34.6875 31.7495 34.7056 31.8159 34.7399C31.8775 34.7721 31.9292 34.8194 31.9658 34.8772C32.0024 34.9349 32.0226 35.001 32.0242 35.0687C32.0235 35.1576 32.0494 35.2447 32.0987 35.3196C32.1479 35.3946 32.2185 35.4541 32.302 35.4911C32.3802 35.5231 32.4659 35.5339 32.55 35.5223C32.6318 35.5223 32.7137 35.5055 32.798 35.4911C32.7137 35.4791 32.6318 35.4719 32.55 35.4623ZM32.4483 30.1655C32.3581 30.1687 32.2704 30.1956 32.1948 30.2434C32.1192 30.2911 32.0585 30.358 32.0193 30.4367C31.9875 30.5127 31.9764 30.5954 31.987 30.6767C31.987 30.7559 32.0044 30.8327 32.0193 30.9167C32.0341 30.8375 32.0391 30.7607 32.0515 30.6767C32.0535 30.605 32.074 30.5349 32.111 30.4727C32.1465 30.4138 32.1976 30.3651 32.2591 30.3317C32.3206 30.2984 32.3902 30.2816 32.4607 30.2831C32.4747 30.2855 32.4889 30.2855 32.5029 30.2831C32.488 30.2399 32.4657 30.2063 32.4483 30.1655Z" fill="white"/>
<path d="M33.4428 35.5032C32.6442 35.6472 30.3105 36.4128 29.9236 36.5352C29.7178 36.6 28.9168 36.8928 28.7134 36.9552C28.6861 36.9552 28.7134 37.0008 28.7308 36.9936C29.1201 36.8736 29.5219 36.792 29.9137 36.6744C30.3056 36.5568 32.7087 35.8633 33.4527 35.5321C33.48 35.5201 33.4601 35.4984 33.4428 35.5032Z" fill="#263238"/>
<path d="M29.2342 32.5007C29.2342 32.4719 29.197 32.4671 29.1896 32.5007C29.0284 33.0527 28.882 33.6071 28.7456 34.1663C28.7461 33.866 28.7752 33.5663 28.8324 33.2711C28.8324 33.2567 28.8151 33.2543 28.8101 33.2711C28.7321 33.6105 28.6996 33.9581 28.7134 34.3055C28.6192 34.6943 28.5274 35.0831 28.4406 35.4743C28.2224 36.4679 27.9917 37.4615 27.8305 38.4647C27.8289 38.477 27.8306 38.4894 27.8354 38.5009C27.8401 38.5123 27.8479 38.5224 27.8578 38.5301C27.8678 38.5378 27.8797 38.5429 27.8922 38.5449C27.9048 38.5469 27.9177 38.5457 27.9297 38.5415C28.1356 38.4671 28.3389 38.3879 28.5398 38.3015C28.5596 38.3015 28.5547 38.2559 28.5398 38.2607C28.3612 38.2943 28.1852 38.3399 28.0091 38.3831C28.2571 37.4231 28.4332 36.4631 28.644 35.5031C28.8548 34.5431 29.0581 33.5015 29.2342 32.5007Z" fill="#263238"/>
<path d="M33.6635 33.8783C33.6412 33.5543 33.6164 33.2327 33.5842 32.9183C33.5842 33.1583 33.604 33.3983 33.6189 33.6383C33.5122 33.1751 33.3981 32.7143 33.2617 32.2607C33.3634 32.9807 33.5098 33.6791 33.6214 34.3895C33.733 35.0999 33.8693 35.7791 33.9909 36.4727C33.8619 36.5375 33.7305 36.5975 33.599 36.6575C33.5954 36.6604 33.5927 36.6643 33.5915 36.6687C33.5903 36.673 33.5905 36.6777 33.5921 36.6819C33.5938 36.6862 33.5968 36.6898 33.6007 36.6923C33.6046 36.6949 33.6092 36.6961 33.6139 36.6959C33.7677 36.6551 33.9214 36.6143 34.0777 36.5783C34.0959 36.5759 34.1124 36.5669 34.124 36.5531C34.1355 36.5392 34.1411 36.5217 34.1397 36.5039C34.0008 35.6183 33.852 34.7447 33.6635 33.8783Z" fill="#263238"/>
<path d="M93.0124 65.5991V70.9967H94.1135V72.8375L96.0157 70.9967H112.118V65.5991H93.0124Z" fill="#E4E1FF"/>
<path d="M93.0124 65.5992C93.0298 67.4184 93.0794 69.2184 93.0868 70.9968L93.0124 70.9248H94.1135H94.1929V71.004V72.8448L94.0366 72.78L95.9264 70.932L95.9586 70.9032H96.0033L112.106 70.8864L111.984 71.004V65.6064L112.096 65.7144C106.593 65.7144 98.58 65.6496 93 65.6064L93.0124 65.5992ZM93.0124 65.5992C98.6569 65.5704 106.548 65.4864 112.108 65.4912H112.22V65.5992V70.9968V71.1144H112.098L95.9958 71.1L96.0702 71.0688L94.1582 72.9L93.9994 73.0512V72.8376V70.9968L94.0813 71.076H92.9802H92.9058V71.004C92.9058 69.1848 92.9628 67.3848 92.9777 65.6064L93.0124 65.5992Z" fill="#263238"/>
<path d="M95.8619 67.032L96.2959 67.6584L97.0473 67.8648L96.5662 68.4576L96.5935 69.2136L95.8619 68.952L95.1278 69.2136L95.1576 68.4576L94.6765 67.8648L95.4279 67.6584L95.8619 67.032Z" fill="#1B1464"/>
<path d="M99.2149 67.032L99.6489 67.6584L100.398 67.8648L99.9167 68.4576L99.9465 69.2136L99.2149 68.952L98.4808 69.2136L98.5106 68.4576L98.0269 67.8648L98.7784 67.6584L99.2149 67.032Z" fill="#1B1464"/>
<path d="M102.565 67.032L102.999 67.6584L103.751 67.8648L103.27 68.4576L103.297 69.2136L102.565 68.952L101.834 69.2136L101.863 68.4576L101.38 67.8648L102.131 67.6584L102.565 67.032Z" fill="#1B1464"/>
<path d="M105.918 67.032L106.352 67.6584L107.104 67.8648L106.62 68.4576L106.65 69.2136L105.918 68.952L105.184 69.2136L105.214 68.4576L104.733 67.8648L105.482 67.6584L105.918 67.032Z" fill="#1B1464"/>
<path d="M109.269 68.952V67.032L108.835 67.6584L108.083 67.8648L108.567 68.4576L108.537 69.2136L109.269 68.952Z" fill="#808080"/>
<path d="M109.269 67.032L109.725 67.644C109.899 67.668 110.236 67.7736 110.469 67.8264L110.526 67.8408L110.489 67.8888L110.018 68.4912V68.4576L110.052 69.2112V69.2928L109.973 69.264L109.229 69.0096H109.271L108.527 69.264L108.445 69.2928V69.2112L108.478 68.4576L108.49 68.4912L108.016 67.8888L107.979 67.8408L108.039 67.8264C108.267 67.7736 108.607 67.6656 108.783 67.644L109.237 67.032H109.269ZM109.269 67.032L108.855 67.68C108.607 67.7736 108.346 67.8336 108.096 67.92L108.116 67.8576L108.612 68.4432C108.615 68.4482 108.617 68.454 108.617 68.46C108.617 68.4659 108.615 68.4718 108.612 68.4768L108.587 69.2328L108.51 69.1776L109.242 68.9136C109.264 68.9136 109.261 68.9136 109.284 68.9136L110.015 69.1776L109.938 69.2328L109.914 68.4768C109.914 68.4576 109.914 68.4576 109.914 68.4432L110.41 67.8576L110.432 67.92C110.184 67.8408 109.916 67.7808 109.673 67.68L109.256 67.0416L109.269 67.032Z" fill="#263238"/>
<path d="M39.6874 9.25671V18.4439H40.7861V20.2847L42.6882 18.4439H62.0744V9.25671H39.6874Z" fill="white"/>
<path d="M39.68 9.25681C39.7122 11.9664 39.7346 15.7824 39.7494 18.444L39.68 18.3768H40.853V18.4464V20.2872L40.7142 20.232L42.6089 18.3864L42.6362 18.36L57.2136 18.3288H62.0595L61.9479 18.4344L61.9702 9.24721L62.0595 9.33601C56.4795 9.33601 45.2526 9.28081 39.6726 9.24721L39.68 9.25681ZM39.68 9.25681C45.2575 9.22561 56.4894 9.17521 62.067 9.17041H62.1562V9.25681L62.1786 18.444V18.552H62.067C56.6606 18.5784 48.1492 18.552 42.6808 18.5328L42.7453 18.5064L40.8357 20.34L40.6993 20.472V20.2848V18.444L40.7712 18.516H39.6726H39.6031C39.6056 15.8112 39.68 12 39.68 9.25681Z" fill="#263238"/>
<path d="M47.3829 13.8625C47.3829 14.3799 47.2243 14.8856 46.9273 15.3158C46.6303 15.746 46.2081 16.0813 45.7141 16.2793C45.2202 16.4773 44.6767 16.5291 44.1523 16.4282C43.6279 16.3273 43.1463 16.0781 42.7682 15.7122C42.3902 15.3464 42.1327 14.8803 42.0284 14.3728C41.9241 13.8654 41.9776 13.3394 42.1822 12.8614C42.3868 12.3833 42.7333 11.9748 43.1779 11.6873C43.6224 11.3999 44.145 11.2465 44.6797 11.2465C45.3966 11.2465 46.0842 11.5221 46.5911 12.0127C47.0981 12.5033 47.3829 13.1687 47.3829 13.8625Z" fill="#CBC7FF"/>
<path d="M44.7144 14.3088C45.1842 14.3088 45.565 13.9402 45.565 13.4856C45.565 13.0309 45.1842 12.6624 44.7144 12.6624C44.2446 12.6624 43.8638 13.0309 43.8638 13.4856C43.8638 13.9402 44.2446 14.3088 44.7144 14.3088Z" fill="white"/>
<path d="M43.2463 15.756V16.0944C43.4949 16.2448 43.7671 16.355 44.0523 16.4208C44.4123 16.5073 44.7865 16.5229 45.1528 16.4668C45.5192 16.4108 45.8702 16.2841 46.1851 16.0944V15.756C46.1932 15.5644 46.1612 15.3731 46.091 15.1937C46.0209 15.0143 45.9139 14.8505 45.7767 14.7121C45.6394 14.5737 45.4747 14.4636 45.2924 14.3884C45.11 14.3132 44.9139 14.2744 44.7157 14.2744C44.5175 14.2744 44.3213 14.3132 44.139 14.3884C43.9566 14.4636 43.7919 14.5737 43.6546 14.7121C43.5174 14.8505 43.4105 15.0143 43.3403 15.1937C43.2701 15.3731 43.2381 15.5644 43.2463 15.756Z" fill="white"/>
<path d="M59.4357 12.2736H49.2974V12.4224H59.4357V12.2736Z" fill="#CBC7FF"/>
<path d="M59.4357 13.2911H49.2974V13.4399H59.4357V13.2911Z" fill="#CBC7FF"/>
<path d="M59.4357 14.3088H49.2974V14.4576H59.4357V14.3088Z" fill="#CBC7FF"/>
<path d="M54.3219 15.3264H49.2974V15.4752H54.3219V15.3264Z" fill="#CBC7FF"/>
</svg>
