<svg width="307" height="83" viewBox="0 0 307 83" fill="none" xmlns="http://www.w3.org/2000/svg">
<g clip-path="url(#clip0_206_3106)">
<path d="M25.2703 14.3453C26.1968 14.3453 26.992 14.6739 27.6491 15.331C28.3063 15.9882 28.6348 16.7833 28.6348 17.7099C28.6348 18.6365 28.3063 19.4316 27.6491 20.0887C26.992 20.7459 26.1968 21.0744 25.2703 21.0744C24.3437 21.0744 23.5486 20.7459 22.8914 20.0887C22.2343 19.4316 21.9057 18.6365 21.9057 17.7099C21.9057 16.7833 22.2343 15.9882 22.8914 15.331C23.5486 14.6739 24.3437 14.3453 25.2703 14.3453Z" fill="#EC2027"/>
<path d="M13.9412 14.3453C14.8678 14.3453 15.663 14.6739 16.3201 15.331C16.9772 15.9882 17.3058 16.7833 17.3058 17.7099C17.3058 18.6365 16.9772 19.4316 16.3201 20.0887C15.663 20.7459 14.8678 21.0744 13.9412 21.0744C13.0147 21.0744 12.2195 20.7459 11.5624 20.0887C10.9053 19.4316 10.5767 18.6365 10.5767 17.7099C10.5767 16.7833 10.9053 15.9882 11.5624 15.331C12.2195 14.6739 13.0147 14.3453 13.9412 14.3453Z" fill="#EC2027"/>
<path d="M10.948 48.8354V28.7335H7.76746V23.9758H16.8196V48.8354H10.948Z" fill="white"/>
<path d="M22.277 48.8354V28.7335H19.0965V23.9758H28.1486V48.8354H22.277Z" fill="white"/>
<path d="M32.9325 28.6417H30.0542V23.976H32.9325V18.916L38.735 16.7803V23.976H45.5594V28.6417H38.735V39.5272C38.735 41.3081 39.011 42.5665 39.5696 43.2992C40.1249 44.0352 41.1008 44.4032 42.4939 44.4032C43.887 44.4032 45.1882 44.022 46.394 43.2663V48.6056C45.0469 49.0689 43.128 49.3022 40.6375 49.3022C38.1469 49.3022 36.2576 48.6023 34.9269 47.1993C33.5962 45.7996 32.9325 43.8085 32.9325 41.2226V28.6417Z" fill="white"/>
<path d="M12.5119 56.6714L11.9106 58.6461H10.5964L12.8273 51.6804H14.4505L16.7143 58.6461H15.3376L14.7068 56.6714H12.5053H12.5119ZM14.5063 55.7087L13.9576 53.9935C13.8229 53.5697 13.7112 53.0932 13.6061 52.6891H13.5863C13.4812 53.0932 13.3695 53.5795 13.2545 53.9935L12.7156 55.7087H14.5031H14.5063Z" fill="white"/>
<path d="M17.6902 51.6776H18.9617V57.5787H21.8236V58.6433H17.6902V51.6776Z" fill="white"/>
<path d="M23.7063 51.6776V55.7387C23.7063 57.1023 24.2747 57.7331 25.1323 57.7331C26.0523 57.7331 26.601 57.1056 26.601 55.7387V51.6776H27.8725V55.6566C27.8725 57.8054 26.7653 58.7583 25.0928 58.7583C23.4204 58.7583 22.438 57.858 22.438 55.6697V51.6809H23.7096L23.7063 51.6776Z" fill="white"/>
<path d="M35.2095 55.8011C35.1668 54.9009 35.1175 53.8166 35.1274 52.8769H35.0945C34.8678 53.7246 34.5787 54.6643 34.2698 55.5416L33.2447 58.5611H32.2721L31.3423 55.5843C31.0728 54.6939 30.8231 53.7443 30.6391 52.8769H30.6161C30.5866 53.787 30.5439 54.891 30.4946 55.8438L30.3369 58.6433H29.1474L29.614 51.6776H31.2897L32.1998 54.477C32.4496 55.2951 32.6664 56.1198 32.8406 56.8953H32.8734C33.0574 56.1396 33.2973 55.282 33.5634 54.4671L34.5261 51.6776H36.1788L36.583 58.6433H35.341L35.2063 55.8011H35.2095Z" fill="white"/>
<path d="M37.8677 58.6433V51.6776H39.3265L41.1238 54.6643C41.5772 55.4397 41.9912 56.2447 42.3132 57.0004H42.3329C42.2376 56.0706 42.2179 55.1703 42.2179 54.1057V51.6776H43.3975V58.6433H42.0733L40.2531 55.5744C39.8095 54.8089 39.3528 53.9611 39.0111 53.1759L38.9716 53.1857C39.0242 54.086 39.0439 55.006 39.0439 56.1527V58.6433H37.8644H37.8677Z" fill="white"/>
<path d="M46.1378 51.6776H44.8662V58.6433H46.1378V51.6776Z" fill="white"/>
<path d="M54.1614 63.6304H0V9.46896H54.1614V63.6304ZM2.21127 61.4191H51.9502V11.6802H2.21127V61.4191Z" fill="white"/>
<path d="M0.831306 67.6233C1.10402 67.574 1.47202 67.5378 1.97144 67.5378C2.51687 67.5378 2.91115 67.6528 3.17072 67.8697C3.41386 68.0701 3.57158 68.3921 3.57158 68.7733C3.57158 69.1544 3.45001 69.4764 3.22658 69.6933C2.9243 69.9923 2.4643 70.1368 1.9353 70.1368C1.7973 70.1368 1.67573 70.1303 1.57059 70.1073V71.6515H0.831306V67.6233ZM1.57059 69.5191C1.66916 69.5487 1.78087 69.5553 1.9353 69.5553C2.49387 69.5553 2.8323 69.276 2.8323 68.8028C2.8323 68.3297 2.51687 68.1128 2.00101 68.1128C1.79402 68.1128 1.64945 68.1326 1.57059 68.149V69.5158V69.5191Z" fill="white"/>
<path d="M6.34798 70.9443C6.34798 71.2104 6.36113 71.4733 6.39727 71.654H5.7237L5.67113 71.3254H5.65142C5.47399 71.5554 5.16842 71.7197 4.77742 71.7197C4.18271 71.7197 3.85085 71.2893 3.85085 70.8424C3.85085 70.1031 4.51128 69.722 5.60213 69.7285V69.6793C5.60213 69.4854 5.52327 69.1634 5.00085 69.1634C4.70842 69.1634 4.40614 69.2554 4.20571 69.3803L4.06114 68.8973C4.28128 68.7658 4.66242 68.6377 5.1257 68.6377C6.07198 68.6377 6.34141 69.239 6.34141 69.8863V70.9475L6.34798 70.9443ZM5.62184 70.2115C5.09285 70.205 4.59013 70.3134 4.59013 70.7635C4.59013 71.056 4.77742 71.1874 5.01399 71.1874C5.31627 71.1874 5.52984 70.9935 5.60213 70.7833C5.62184 70.7274 5.62184 70.6748 5.62184 70.619V70.2148V70.2115Z" fill="white"/>
<path d="M7.13662 69.5812C7.13662 69.2427 7.12347 68.9569 7.11362 68.7006H7.7609L7.79704 69.1442H7.81676C7.94818 68.9142 8.27018 68.6349 8.76304 68.6349C9.25589 68.6349 9.81117 68.9667 9.81117 69.8999V71.6512H9.06532V69.9853C9.06532 69.5615 8.90761 69.2395 8.50347 69.2395C8.20447 69.2395 8.00076 69.4497 7.9219 69.6765C7.89561 69.7356 7.88576 69.8276 7.88576 69.913V71.6512H7.1399V69.5812H7.13662Z" fill="white"/>
<path d="M11.3783 67.5674H10.6325V71.6515H11.3783V67.5674Z" fill="white"/>
<path d="M12.9752 67.5674H12.2294V71.6515H12.9752V67.5674Z" fill="white"/>
<path d="M14.6114 68.1944H13.4483V67.5702H16.5303V68.1944H15.354V71.6543H14.6114V68.1944Z" fill="white"/>
<path d="M18.965 68.5262C18.965 69.1012 18.505 69.5546 17.9169 69.5546C17.3287 69.5546 16.8622 69.1012 16.8622 68.5262C16.8622 67.9512 17.3353 67.5076 17.9234 67.5076C18.5116 67.5076 18.965 67.9643 18.965 68.5262ZM17.1546 68.5328C17.1546 68.9698 17.4799 69.3213 17.9169 69.3213C18.3539 69.3279 18.6726 68.9698 18.6726 68.5328C18.6726 68.0958 18.3506 67.7475 17.9037 67.7475C17.4569 67.7475 17.1513 68.0925 17.1513 68.5328M17.769 69.0355H17.5029V68.0596C17.5817 68.0432 17.723 68.0235 17.907 68.0235C18.114 68.0235 18.206 68.0531 18.2717 68.1023C18.3309 68.1385 18.3736 68.2108 18.3736 68.3093C18.3736 68.4178 18.2816 68.5032 18.1633 68.5393V68.5525C18.2652 68.5886 18.321 68.6675 18.3506 68.8022C18.3802 68.9402 18.3999 69.0026 18.4163 69.0388H18.1239C18.0943 69.0026 18.0746 68.9172 18.0516 68.8153C18.0319 68.7135 17.9793 68.6708 17.8709 68.6708H17.7657V69.0388L17.769 69.0355ZM17.7756 68.4802H17.8742C17.9957 68.4802 18.0779 68.4375 18.0779 68.3488C18.0779 68.2633 18.0122 68.2141 17.8906 68.2141C17.8446 68.2141 17.7986 68.2206 17.7756 68.2206V68.4802Z" fill="white"/>
<path d="M21.7513 70.4944L21.3997 71.651H20.6309L21.9386 67.5702H22.8914L24.2189 71.651H23.4139L23.0426 70.4944H21.7546H21.7513ZM22.921 69.9326L22.599 68.9272C22.5202 68.6774 22.4544 68.3982 22.392 68.1649H22.3789C22.3197 68.4014 22.254 68.6873 22.185 68.9272L21.8696 69.9326H22.9177H22.921Z" fill="white"/>
<path d="M25.4707 67.3503H24.7249V71.6513H25.4707V67.3503Z" fill="white"/>
<path d="M28.924 70.7676C28.924 71.1192 28.9372 71.4083 28.947 71.6515H28.2997L28.2636 71.2079H28.2472C28.119 71.4149 27.8299 71.7172 27.2943 71.7172C26.7588 71.7172 26.2692 71.3952 26.2692 70.4325V68.7009H27.015V70.3076C27.015 70.7972 27.1728 71.1126 27.567 71.1126C27.8693 71.1126 28.0632 70.9089 28.1355 70.7151C28.165 70.6559 28.1782 70.5672 28.1782 70.4851V68.7042H28.924V70.7709V70.7676Z" fill="white"/>
<path d="M29.7291 69.5812C29.7291 69.2427 29.716 68.9569 29.7061 68.7006H30.3402L30.3764 69.1376H30.3928C30.5308 68.9076 30.8002 68.6349 31.3029 68.6349C31.6907 68.6349 31.9929 68.855 32.1211 69.1803H32.1342C32.2361 69.016 32.3577 68.8977 32.4891 68.809C32.6599 68.694 32.8472 68.6349 33.0937 68.6349C33.5799 68.6349 34.0761 68.9667 34.0761 69.913V71.6512H33.3499V70.0215C33.3499 69.5319 33.1791 69.2395 32.8209 69.2395C32.5679 69.2395 32.3774 69.4202 32.3018 69.6337C32.2755 69.6995 32.2657 69.798 32.2657 69.8835V71.6512H31.5362V69.9426C31.5362 69.5319 31.3719 69.2395 31.0269 69.2395C30.7477 69.2395 30.5604 69.4596 30.4881 69.6567C30.4651 69.7356 30.452 69.821 30.452 69.9065V71.6512H29.7225V69.5812H29.7291Z" fill="white"/>
<path d="M34.8645 69.5812C34.8645 69.2427 34.8514 68.9569 34.8415 68.7006H35.4888L35.525 69.1442H35.5447C35.6761 68.9142 35.9981 68.6349 36.4909 68.6349C36.9838 68.6349 37.5391 68.9667 37.5391 69.8999V71.6512H36.7932V69.9853C36.7932 69.5615 36.6355 69.2395 36.2314 69.2395C35.9324 69.2395 35.7287 69.4497 35.6498 69.6765C35.6268 69.7356 35.6137 69.8276 35.6137 69.913V71.6512H34.8678V69.5812H34.8645Z" fill="white"/>
<path d="M39.1227 67.8793C39.1227 68.0961 38.9585 68.2768 38.6989 68.2768C38.4393 68.2768 38.2882 68.0961 38.2882 67.8793C38.2882 67.6493 38.4558 67.4718 38.7055 67.4718C38.9552 67.4718 39.1162 67.6493 39.1227 67.8793ZM38.3276 68.704H39.0735V71.6545H38.3276V68.704Z" fill="white"/>
<path d="M41.909 67.5674H41.1632V71.6515H41.909V67.5674Z" fill="white"/>
<path d="M42.7666 69.5812C42.7666 69.2427 42.7535 68.9569 42.7436 68.7006H43.3909L43.427 69.1442H43.4468C43.5782 68.9142 43.9002 68.6349 44.393 68.6349C44.8859 68.6349 45.4412 68.9667 45.4412 69.8999V71.6512H44.6953V69.9853C44.6953 69.5615 44.5376 69.2395 44.1335 69.2395C43.8345 69.2395 43.6308 69.4497 43.5519 69.6765C43.5256 69.7356 43.5158 69.8276 43.5158 69.913V71.6512H42.7699V69.5812H42.7666Z" fill="white"/>
<path d="M48.9504 67.3531V70.8261C48.9504 71.1284 48.9635 71.4537 48.9767 71.6541H48.3162L48.2801 71.1875H48.2669C48.0928 71.5161 47.7347 71.7198 47.3108 71.7198C46.6011 71.7198 46.0458 71.1185 46.0458 70.2117C46.0392 69.2227 46.657 68.6378 47.3667 68.6378C47.7741 68.6378 48.0632 68.8021 48.1979 69.019H48.2111V67.3531H48.9569H48.9504ZM48.2045 69.9324C48.2045 69.8732 48.1979 69.7944 48.1848 69.732C48.1191 69.4494 47.8825 69.2095 47.5441 69.2095C47.0677 69.2095 46.7982 69.6334 46.7982 70.1788C46.7982 70.7242 47.0644 71.1185 47.5375 71.1185C47.8398 71.1185 48.1059 70.9148 48.1782 70.5928C48.1947 70.5271 48.2012 70.4548 48.2012 70.3727V69.9291L48.2045 69.9324Z" fill="white"/>
<path d="M50.5439 67.8793C50.5439 68.0961 50.3796 68.2768 50.1201 68.2768C49.8605 68.2768 49.7094 68.0961 49.7094 67.8793C49.7094 67.6493 49.8802 67.4718 50.1266 67.4718C50.3731 67.4718 50.5373 67.6493 50.5439 67.8793ZM49.7488 68.704H50.4946V71.6545H49.7488V68.704Z" fill="white"/>
<path d="M53.5897 70.9443C53.5897 71.2104 53.6028 71.4733 53.6389 71.654H52.9654L52.9128 71.3254H52.8931C52.7189 71.5554 52.4101 71.7197 52.0191 71.7197C51.4244 71.7197 51.0925 71.2893 51.0925 70.8424C51.0925 70.1031 51.7529 69.722 52.8438 69.7285V69.6793C52.8438 69.4854 52.7649 69.1634 52.2425 69.1634C51.9534 69.1634 51.6478 69.2554 51.4474 69.3803L51.3028 68.8973C51.5229 68.7658 51.9041 68.6377 52.3674 68.6377C53.3137 68.6377 53.5831 69.239 53.5831 69.8863V70.9475L53.5897 70.9443ZM52.8635 70.2115C52.3345 70.205 51.8318 70.3134 51.8318 70.7635C51.8318 71.056 52.0191 71.1874 52.2557 71.1874C52.5579 71.1874 52.7715 70.9935 52.8438 70.7833C52.8635 70.7274 52.8635 70.6748 52.8635 70.619V70.2148V70.2115Z" fill="white"/>
<path d="M237.497 25.0987H240.139C240.605 25.0987 241.026 25.1808 241.397 25.3451C241.772 25.5094 242.071 25.7558 242.291 26.0876C242.514 26.4195 242.623 26.8368 242.623 27.3329C242.623 27.8291 242.511 28.2496 242.291 28.5946C242.067 28.9429 241.772 29.2058 241.397 29.3865C241.022 29.5672 240.602 29.6592 240.139 29.6592H239.143V32.36H237.497V25.0954V25.0987ZM239.143 28.3614H239.682C239.905 28.3614 240.106 28.3285 240.283 28.2628C240.461 28.1971 240.602 28.0919 240.71 27.9474C240.815 27.8028 240.871 27.6122 240.871 27.3724C240.871 27.1325 240.819 26.9386 240.71 26.7974C240.605 26.6561 240.461 26.5542 240.283 26.4918C240.106 26.4294 239.905 26.3998 239.682 26.3998H239.143V28.3646V28.3614Z" fill="#ED2024"/>
<path d="M244.646 25.0996H246.279L249.148 32.3643H247.393L246.864 30.9054H244.068L243.536 32.3643H241.775L244.646 25.0996ZM244.62 29.463H246.322L245.481 27.0809H245.465L244.623 29.463H244.62Z" fill="#ED2024"/>
<path d="M251.251 26.6035L251.372 26.6265V32.36H249.726V25.0954H251.97L254.914 30.8191L254.793 30.8421V25.0987H256.439V32.3633H254.182L251.247 26.6068L251.251 26.6035Z" fill="#ED2024"/>
<path d="M257.743 25.0996H259.389V32.3643H257.743V25.0996Z" fill="#ED2024"/>
<path d="M260.72 25.0996H262.366V32.3643H260.72V25.0996Z" fill="#ED2024"/>
<path d="M264.653 26.5378H262.918V25.0954H268.024V26.5378H266.296V32.36H264.65V26.5378H264.653Z" fill="#ED2024"/>
<path d="M269.039 30.5666V29.1472H271.872V30.5666H269.039Z" fill="#ED2024"/>
<path d="M244.926 40.9328H242.951L241.719 35.8663H242.015L240.782 40.9328H238.795L237.139 33.6682H239.025L239.899 38.7643H239.876L241.239 33.6682H242.478L243.848 38.7643H243.825L244.699 33.6682H246.585L244.919 40.9328H244.926Z" fill="white"/>
<path d="M246.818 37.2963C246.818 36.7673 246.913 36.2745 247.097 35.8178C247.281 35.3611 247.548 34.9635 247.883 34.6218C248.218 34.2801 248.615 34.0139 249.072 33.8234C249.526 33.6328 250.018 33.5375 250.547 33.5375C251.076 33.5375 251.576 33.6328 252.029 33.8234C252.483 34.0139 252.877 34.2801 253.212 34.6218C253.547 34.9635 253.807 35.3611 253.994 35.8178C254.181 36.2745 254.273 36.7673 254.273 37.2963C254.273 37.8253 254.185 38.3215 254.004 38.7782C253.823 39.2349 253.567 39.6358 253.235 39.9775C252.903 40.3192 252.506 40.5886 252.052 40.7792C251.599 40.9698 251.096 41.065 250.551 41.065C250.005 41.065 249.486 40.9698 249.029 40.7792C248.573 40.5886 248.179 40.3225 247.85 39.9775C247.521 39.6325 247.265 39.2349 247.088 38.7782C246.91 38.3215 246.822 37.8286 246.822 37.2963H246.818ZM248.53 37.2963C248.53 37.7103 248.615 38.0849 248.786 38.4201C248.957 38.7552 249.194 39.0213 249.496 39.2218C249.798 39.4189 250.15 39.5175 250.551 39.5175C250.952 39.5175 251.303 39.4189 251.605 39.2218C251.908 39.0246 252.144 38.7552 252.315 38.4201C252.486 38.0849 252.571 37.7103 252.571 37.2963C252.571 36.8823 252.486 36.5078 252.315 36.1726C252.144 35.8375 251.908 35.5714 251.605 35.3709C251.303 35.1705 250.952 35.0719 250.551 35.0719C250.15 35.0719 249.798 35.1705 249.496 35.3709C249.194 35.5714 248.957 35.8375 248.786 36.1726C248.615 36.5078 248.53 36.8823 248.53 37.2963Z" fill="white"/>
<path d="M255.184 33.6719H258.144C258.565 33.6719 258.943 33.7606 259.271 33.9348C259.6 34.1122 259.863 34.3652 260.056 34.6971C260.25 35.0289 260.346 35.4232 260.346 35.8832C260.346 36.3432 260.263 36.7178 260.099 37.0069C259.935 37.296 259.741 37.5162 259.514 37.6608C259.288 37.8053 259.077 37.894 258.88 37.9203L260.648 40.93H258.798L257.224 38.0452H256.827V40.93H255.18V33.6653L255.184 33.6719ZM256.83 36.9116H257.556C257.848 36.9116 258.105 36.8393 258.325 36.698C258.545 36.5568 258.653 36.3005 258.653 35.939C258.653 35.5776 258.545 35.3246 258.328 35.1833C258.111 35.0421 257.858 34.9731 257.563 34.9731H256.827V36.9149L256.83 36.9116Z" fill="white"/>
<path d="M261.768 33.6724H263.414V39.4946H266.049V40.937H261.768V33.6724Z" fill="white"/>
<path d="M267.134 33.6724H269.319C270.094 33.6724 270.735 33.8268 271.241 34.1389C271.75 34.4478 272.128 34.8782 272.381 35.4236C272.634 35.9691 272.762 36.5966 272.762 37.2998C272.762 38.0029 272.637 38.6338 272.381 39.1825C272.128 39.7279 271.747 40.1583 271.241 40.4705C270.732 40.7826 270.091 40.937 269.319 40.937H267.134V33.6724ZM268.773 35.1312V39.4782H269.171C269.585 39.4782 269.93 39.3829 270.199 39.1956C270.472 39.005 270.676 38.7488 270.814 38.4202C270.952 38.0916 271.021 37.7236 271.021 37.3096C271.021 36.8956 270.955 36.5243 270.82 36.1958C270.686 35.8672 270.482 35.6076 270.206 35.4171C269.93 35.2265 269.585 35.1312 269.171 35.1312H268.773Z" fill="white"/>
<path d="M276.413 37.2963C276.413 36.7673 276.508 36.2745 276.692 35.8178C276.876 35.3611 277.142 34.9635 277.477 34.6218C277.812 34.2801 278.21 34.0139 278.666 33.8234C279.12 33.6328 279.613 33.5375 280.142 33.5375C280.671 33.5375 281.17 33.6328 281.624 33.8234C282.077 34.0139 282.471 34.2801 282.806 34.6218C283.142 34.9635 283.401 35.3611 283.588 35.8178C283.776 36.2745 283.868 36.7673 283.868 37.2963C283.868 37.8253 283.779 38.3215 283.598 38.7782C283.418 39.2349 283.161 39.6358 282.829 39.9775C282.498 40.3192 282.1 40.5886 281.647 40.7792C281.193 40.9698 280.69 41.065 280.145 41.065C279.6 41.065 279.08 40.9698 278.624 40.7792C278.167 40.5886 277.773 40.3225 277.444 39.9775C277.116 39.6325 276.859 39.2349 276.682 38.7782C276.505 38.3215 276.416 37.8286 276.416 37.2963H276.413ZM278.124 37.2963C278.124 37.7103 278.21 38.0849 278.381 38.4201C278.551 38.7552 278.788 39.0213 279.09 39.2218C279.393 39.4189 279.744 39.5175 280.145 39.5175C280.546 39.5175 280.897 39.4189 281.2 39.2218C281.502 39.0246 281.739 38.7552 281.909 38.4201C282.08 38.0849 282.166 37.7103 282.166 37.2963C282.166 36.8823 282.08 36.5078 281.909 36.1726C281.739 35.8375 281.502 35.5714 281.2 35.3709C280.897 35.1705 280.546 35.0719 280.145 35.0719C279.744 35.0719 279.393 35.1705 279.09 35.3709C278.788 35.5714 278.551 35.8375 278.381 36.1726C278.21 36.5078 278.124 36.8823 278.124 37.2963Z" fill="white"/>
<path d="M284.854 33.6724H289.053V35.1148H286.5V36.5802H288.859V38.0161H286.5V40.937H284.854V33.6724Z" fill="white"/>
<path d="M238.841 43.6868H237.106V42.2444H242.212V43.6868H240.483V49.5091H238.837V43.6868H238.841Z" fill="white"/>
<path d="M243.099 42.2444H247.738V43.6868H244.738V45.1687H247.709V46.5651H244.738V48.0667H247.738V49.5091H243.099V42.2444Z" fill="white"/>
<path d="M252.828 48.0133C253.166 48.0133 253.472 47.964 253.748 47.8654C254.024 47.7668 254.231 47.6683 254.365 47.573L255.069 48.9694C254.898 49.1172 254.602 49.2651 254.185 49.4162C253.767 49.5674 253.275 49.643 252.703 49.643C252.167 49.643 251.665 49.5477 251.195 49.3637C250.725 49.1764 250.311 48.9135 249.953 48.5751C249.595 48.2367 249.315 47.8391 249.112 47.3824C248.908 46.9257 248.806 46.4295 248.806 45.894C248.806 45.3584 248.908 44.859 249.108 44.399C249.309 43.939 249.591 43.5381 249.946 43.1964C250.304 42.8547 250.718 42.5919 251.192 42.4013C251.665 42.2107 252.167 42.1187 252.703 42.1187C253.275 42.1187 253.771 42.1943 254.185 42.3454C254.602 42.4966 254.894 42.6444 255.069 42.7923L254.365 44.1887C254.231 44.0901 254.024 43.9916 253.748 43.893C253.472 43.7977 253.163 43.7484 252.828 43.7484C252.453 43.7484 252.128 43.8076 251.849 43.9226C251.569 44.0376 251.336 44.1953 251.149 44.399C250.962 44.5994 250.824 44.8294 250.732 45.0824C250.64 45.3354 250.594 45.6016 250.594 45.8808C250.594 46.1601 250.64 46.4328 250.732 46.6858C250.824 46.9421 250.962 47.1688 251.149 47.3693C251.336 47.5697 251.569 47.7307 251.849 47.8457C252.128 47.9607 252.453 48.0198 252.828 48.0198V48.0133Z" fill="white"/>
<path d="M260.224 46.5881H257.714V49.5091H256.074V42.2444H257.714V45.149H260.224V42.2444H261.857V49.5091H260.224V46.5881Z" fill="white"/>
<path d="M264.627 43.7525L264.748 43.7755V49.5091H263.102V42.2444H265.346L268.29 47.9681L268.169 47.9911V42.2477H269.815V49.5124H267.558L264.623 43.7558L264.627 43.7525Z" fill="white"/>
<path d="M270.827 45.8719C270.827 45.3429 270.922 44.8501 271.106 44.3934C271.29 43.9367 271.556 43.5391 271.891 43.1974C272.23 42.8557 272.624 42.5895 273.081 42.399C273.534 42.2084 274.027 42.1131 274.556 42.1131C275.085 42.1131 275.585 42.2084 276.038 42.399C276.491 42.5895 276.886 42.8557 277.221 43.1974C277.556 43.5391 277.816 43.9367 278.003 44.3934C278.19 44.8501 278.282 45.3429 278.282 45.8719C278.282 46.4009 278.193 46.8971 278.013 47.3538C277.832 47.8105 277.576 48.2114 277.244 48.5531C276.909 48.8948 276.514 49.1642 276.061 49.3548C275.608 49.5453 275.105 49.6406 274.559 49.6406C274.014 49.6406 273.495 49.5453 273.038 49.3548C272.581 49.1642 272.187 48.8981 271.859 48.5531C271.53 48.2114 271.274 47.8105 271.096 47.3538C270.919 46.8971 270.83 46.4042 270.83 45.8719H270.827ZM272.539 45.8719C272.539 46.2859 272.624 46.6605 272.795 46.9989C272.966 47.3374 273.202 47.6002 273.505 47.8006C273.807 47.9978 274.159 48.0964 274.559 48.0964C274.96 48.0964 275.312 47.9978 275.614 47.8006C275.916 47.6035 276.153 47.3374 276.324 46.9989C276.495 46.6638 276.58 46.2892 276.58 45.8719C276.58 45.4547 276.495 45.0834 276.324 44.7482C276.153 44.4131 275.916 44.1469 275.614 43.9465C275.312 43.7461 274.96 43.6475 274.559 43.6475C274.159 43.6475 273.807 43.7461 273.505 43.9465C273.202 44.1469 272.966 44.4131 272.795 44.7482C272.624 45.0834 272.539 45.4547 272.539 45.8719Z" fill="white"/>
<path d="M279.268 42.2444H280.884V46.8937H283.474V48.0437H279.271V42.2444H279.268Z" fill="white"/>
<path d="M284.384 45.8719C284.384 45.3429 284.479 44.8501 284.663 44.3934C284.847 43.9367 285.113 43.5391 285.448 43.1974C285.787 42.8557 286.181 42.5895 286.638 42.399C287.091 42.2084 287.584 42.1131 288.113 42.1131C288.642 42.1131 289.141 42.2084 289.595 42.399C290.048 42.5895 290.443 42.8557 290.778 43.1974C291.113 43.5391 291.372 43.9367 291.56 44.3934C291.747 44.8501 291.839 45.3429 291.839 45.8719C291.839 46.4009 291.75 46.8971 291.57 47.3538C291.389 47.8105 291.133 48.2114 290.801 48.5531C290.466 48.8948 290.071 49.1642 289.618 49.3548C289.164 49.5453 288.662 49.6406 288.116 49.6406C287.571 49.6406 287.052 49.5453 286.595 49.3548C286.138 49.1642 285.744 48.8981 285.415 48.5531C285.087 48.2114 284.831 47.8105 284.653 47.3538C284.476 46.8971 284.387 46.4042 284.387 45.8719H284.384ZM286.096 45.8719C286.096 46.2859 286.181 46.6605 286.352 46.9989C286.523 47.3374 286.759 47.6002 287.062 47.8006C287.364 47.9978 287.715 48.0964 288.116 48.0964C288.517 48.0964 288.869 47.9978 289.171 47.8006C289.473 47.6035 289.71 47.3374 289.881 46.9989C290.052 46.6638 290.137 46.2892 290.137 45.8719C290.137 45.4547 290.052 45.0834 289.881 44.7482C289.71 44.4131 289.473 44.1469 289.171 43.9465C288.869 43.7461 288.517 43.6475 288.116 43.6475C287.715 43.6475 287.364 43.7461 287.062 43.9465C286.759 44.1469 286.523 44.4131 286.352 44.7482C286.181 45.0834 286.096 45.4547 286.096 45.8719Z" fill="white"/>
<path d="M296.225 45.4476H299.928V45.9109C299.928 46.4333 299.84 46.9196 299.665 47.3697C299.491 47.8199 299.242 48.2174 298.92 48.5592C298.598 48.9009 298.21 49.167 297.763 49.3576C297.316 49.5482 296.82 49.6434 296.278 49.6434C295.736 49.6434 295.207 49.5482 294.75 49.3543C294.293 49.1604 293.899 48.8943 293.57 48.5493C293.242 48.2043 292.986 47.8035 292.811 47.3467C292.634 46.89 292.549 46.4005 292.549 45.8747C292.549 45.349 292.637 44.866 292.811 44.4093C292.989 43.9526 293.242 43.5518 293.57 43.21C293.899 42.8683 294.293 42.5989 294.75 42.405C295.207 42.2112 295.716 42.1159 296.278 42.1159C296.738 42.1159 297.142 42.1652 297.49 42.2638C297.842 42.3623 298.141 42.4938 298.394 42.6613C298.647 42.8256 298.86 43.0063 299.038 43.2035C299.215 43.4006 299.36 43.5912 299.478 43.7785L297.914 44.5145C297.763 44.2845 297.559 44.0808 297.3 43.9099C297.04 43.739 296.698 43.6503 296.275 43.6503C295.979 43.6503 295.706 43.7095 295.456 43.8278C295.21 43.946 294.996 44.107 294.816 44.3108C294.635 44.5145 294.497 44.751 294.402 45.0205C294.306 45.2899 294.257 45.5757 294.257 45.8747C294.257 46.1737 294.306 46.4662 294.402 46.7323C294.497 46.9985 294.638 47.2383 294.816 47.442C294.996 47.6457 295.21 47.8067 295.456 47.9217C295.703 48.0367 295.976 48.0959 296.275 48.0959C296.534 48.0959 296.771 48.063 296.984 47.9973C297.198 47.9316 297.382 47.8363 297.536 47.7115C297.691 47.5866 297.816 47.4387 297.904 47.2679C297.993 47.097 298.049 46.9097 298.065 46.7027H296.215V45.4476H296.225Z" fill="white"/>
<path d="M302.238 46.8972L299.734 42.2479H301.732L303.06 45.0145L304.39 42.2479H306.378L303.884 46.8972V49.5126H302.238V46.8972Z" fill="white"/>
<path d="M81.0253 25.0926H90.3041C95.3641 25.0926 99.5862 28.904 99.5862 33.7044C99.5862 38.5048 95.4561 42.4213 90.3041 42.4213H87.5474V49.6597H81.0253V25.0926ZM93.2941 33.7339C93.2941 32.2422 92.0455 31.112 90.3074 31.112H87.5507V36.3986L90.3074 36.4151C92.062 36.4282 93.2941 35.2388 93.2941 33.7307" fill="white"/>
<path d="M115.749 25.0898H109.226V49.6569H115.749V25.0898Z" fill="white"/>
<path d="M126.348 37.6939C126.348 35.637 128.191 33.9153 130.386 33.9153C132.581 33.9153 134.408 35.6535 134.408 37.6939C134.408 39.7343 132.578 41.4724 130.386 41.4724C128.195 41.4724 126.348 39.7967 126.348 37.6939Z" fill="#ED2024"/>
<path d="M143.197 25.0926H150.252L153.652 36.3395L158.679 25.1353H159.169L164.196 36.3066L167.58 25.0926H174.638L166.437 49.8109H164.64L158.893 37.6636L153.196 49.8109H151.412L143.197 25.0926Z" fill="white"/>
<path d="M181.091 37.4045C181.091 30.0281 186.943 24.4359 194.579 24.4359C202.215 24.4359 208.067 30.0281 208.067 37.4045C208.067 44.7809 202.215 50.2811 194.566 50.2811C186.917 50.2811 181.094 44.7185 181.094 37.4045M201.469 37.3585C201.469 33.5635 198.482 30.6392 194.582 30.6392C190.682 30.6392 187.692 33.5635 187.692 37.3585C187.692 41.1535 190.679 44.0482 194.582 44.0482C198.486 44.0482 201.469 41.1371 201.469 37.3585Z" fill="white"/>
<path d="M233.738 31.1875H227.853V49.6597H221.318V31.1875H215.42V25.0926H233.738V31.1875Z" fill="white"/>
<path d="M131.691 31.819L130.399 31.5923C131.73 24.0155 135.709 17.0892 141.61 12.0884C147.577 7.0284 155.18 4.24213 163.017 4.24213C168.78 4.24213 174.457 5.74369 179.432 8.5891C184.255 11.3491 188.346 15.3116 191.257 20.0496L190.14 20.7363C184.301 11.2275 174.162 5.55312 163.017 5.55312C147.538 5.55312 134.365 16.5996 131.691 31.819Z" fill="#ED2024"/>
<path d="M163.013 70.4743C155.404 70.4743 147.971 67.8293 142.087 63.0256C136.284 58.2909 132.223 51.6735 130.646 44.3957L131.927 44.1197C135.068 58.6326 148.139 69.1633 163.013 69.1633C173.984 69.1633 184.038 63.6203 189.91 54.3382L191.021 55.0414C184.906 64.7046 174.438 70.4743 163.013 70.4743Z" fill="#ED2024"/>
<path d="M68.0008 0H65.8223V83H68.0008V0Z" fill="#EA2224"/>
</g>
<defs>
<clipPath id="clip0_206_3106">
<rect width="306.378" height="83" fill="white"/>
</clipPath>
</defs>
</svg>
