<svg width="148" height="40" viewBox="0 0 148 40" fill="none" xmlns="http://www.w3.org/2000/svg">
<g clip-path="url(#clip0_33_2097)">
<path d="M12.1784 6.91309C12.6249 6.91309 13.0081 7.07143 13.3248 7.38813C13.6415 7.70482 13.7998 8.08802 13.7998 8.53456C13.7998 8.9811 13.6415 9.3643 13.3248 9.68099C13.0081 9.99768 12.6249 10.156 12.1784 10.156C11.7318 10.156 11.3486 9.99768 11.0319 9.68099C10.7152 9.3643 10.5569 8.9811 10.5569 8.53456C10.5569 8.08802 10.7152 7.70482 11.0319 7.38813C11.3486 7.07143 11.7318 6.91309 12.1784 6.91309Z" fill="#EC2027"/>
<path d="M6.71864 6.91309C7.16518 6.91309 7.54838 7.07143 7.86507 7.38813C8.18177 7.70482 8.34011 8.08802 8.34011 8.53456C8.34011 8.9811 8.18177 9.3643 7.86507 9.68099C7.54838 9.99768 7.16518 10.156 6.71864 10.156C6.2721 10.156 5.8889 9.99768 5.57221 9.68099C5.25551 9.3643 5.09717 8.9811 5.09717 8.53456C5.09717 8.08802 5.25551 7.70482 5.57221 7.38813C5.8889 7.07143 6.2721 6.91309 6.71864 6.91309Z" fill="#EC2027"/>
<path d="M5.27621 23.535V13.8474H3.74341V11.5545H8.10587V23.535H5.27621Z" fill="#1B1464"/>
<path d="M10.7359 23.535V13.8474H9.20312V11.5545H13.5656V23.535H10.7359Z" fill="#1B1464"/>
<path d="M15.871 13.8031H14.4839V11.5545H15.871V9.11599L18.6674 8.08673V11.5545H21.9563V13.8031H18.6674V19.0491C18.6674 19.9073 18.8004 20.5138 19.0696 20.8669C19.3372 21.2216 19.8075 21.399 20.4789 21.399C21.1503 21.399 21.7773 21.2153 22.3585 20.8511V23.4242C21.7093 23.6475 20.7845 23.7599 19.5842 23.7599C18.384 23.7599 17.4735 23.4226 16.8322 22.7465C16.1909 22.0719 15.871 21.1123 15.871 19.8662V13.8031Z" fill="#1B1464"/>
<path d="M6.02985 27.3116L5.74008 28.2633H5.10669L6.18187 24.9063H6.9641L8.05511 28.2633H7.39164L7.08761 27.3116H6.02669H6.02985ZM6.99102 26.8476L6.72658 26.0211C6.66166 25.8168 6.60782 25.5872 6.55715 25.3924H6.54765C6.49698 25.5872 6.44314 25.8216 6.38772 26.0211L6.12803 26.8476H6.98943H6.99102Z" fill="#1B1464"/>
<path d="M8.52539 24.9053H9.13819V27.7492H10.5174V28.2622H8.52539V24.9053Z" fill="#1B1464"/>
<path d="M11.4247 24.9053V26.8624C11.4247 27.5196 11.6986 27.8236 12.1119 27.8236C12.5553 27.8236 12.8197 27.5212 12.8197 26.8624V24.9053H13.4325V26.8229C13.4325 27.8584 12.8989 28.3177 12.0929 28.3177C11.2869 28.3177 10.8135 27.8838 10.8135 26.8292V24.9069H11.4263L11.4247 24.9053Z" fill="#1B1464"/>
<path d="M16.9684 26.8925C16.9478 26.4587 16.924 25.9361 16.9288 25.4832H16.913C16.8037 25.8918 16.6644 26.3446 16.5155 26.7674L16.0215 28.2226H15.5528L15.1046 26.788C14.9748 26.3589 14.8544 25.9013 14.7658 25.4832H14.7547C14.7404 25.9219 14.7198 26.4539 14.6961 26.9131L14.6201 28.2622H14.0469L14.2717 24.9053H15.0793L15.5179 26.2544C15.6383 26.6487 15.7428 27.0461 15.8267 27.4198H15.8425C15.9312 27.0556 16.0468 26.6423 16.1751 26.2496L16.639 24.9053H17.4355L17.6303 28.2622H17.0317L16.9668 26.8925H16.9684Z" fill="#1B1464"/>
<path d="M18.2494 28.2622V24.9053H18.9524L19.8186 26.3446C20.0371 26.7183 20.2366 27.1063 20.3918 27.4705H20.4013C20.3554 27.0224 20.3459 26.5885 20.3459 26.0755V24.9053H20.9144V28.2622H20.2762L19.399 26.7833C19.1852 26.4143 18.9651 26.0058 18.8004 25.6273L18.7814 25.6321C18.8068 26.066 18.8163 26.5093 18.8163 27.062V28.2622H18.2478H18.2494Z" fill="#1B1464"/>
<path d="M22.2351 24.9053H21.6223V28.2622H22.2351V24.9053Z" fill="#1B1464"/>
<path d="M26.1019 30.6654H0V4.56354H26.1019V30.6654ZM1.06568 29.5998H25.0362V5.62921H1.06568V29.5998Z" fill="#1B1464"/>
<path d="M0.400635 32.589C0.532063 32.5653 0.709411 32.5479 0.950099 32.5479C1.21295 32.5479 1.40297 32.6033 1.52807 32.7078C1.64524 32.8044 1.72125 32.9596 1.72125 33.1432C1.72125 33.3269 1.66266 33.4821 1.55498 33.5866C1.4093 33.7307 1.18762 33.8004 0.93268 33.8004C0.866175 33.8004 0.807586 33.7972 0.756915 33.7861V34.5304H0.400635V32.589ZM0.756915 33.5027C0.80442 33.5169 0.858257 33.5201 0.93268 33.5201C1.20187 33.5201 1.36497 33.3855 1.36497 33.1575C1.36497 32.9295 1.21295 32.825 0.96435 32.825C0.864591 32.825 0.794919 32.8345 0.756915 32.8424V33.5011V33.5027Z" fill="#1B1464"/>
<path d="M3.05939 34.1907C3.05939 34.319 3.06573 34.4456 3.08315 34.5327H2.75853L2.7332 34.3744H2.7237C2.63819 34.4852 2.49093 34.5644 2.3025 34.5644C2.01589 34.5644 1.85596 34.357 1.85596 34.1416C1.85596 33.7853 2.17423 33.6016 2.69995 33.6048V33.5811C2.69995 33.4876 2.66194 33.3325 2.41017 33.3325C2.26924 33.3325 2.12356 33.3768 2.02697 33.437L1.9573 33.2042C2.06339 33.1409 2.24707 33.0791 2.47034 33.0791C2.92638 33.0791 3.05623 33.3689 3.05623 33.6808V34.1923L3.05939 34.1907ZM2.70945 33.8376C2.45451 33.8344 2.21224 33.8867 2.21224 34.1036C2.21224 34.2445 2.3025 34.3079 2.41651 34.3079C2.56218 34.3079 2.66511 34.2144 2.69995 34.1131C2.70945 34.0862 2.70945 34.0609 2.70945 34.0339V33.8392V33.8376Z" fill="#1B1464"/>
<path d="M3.43931 33.5331C3.43931 33.37 3.43297 33.2323 3.42822 33.1088H3.74017L3.75758 33.3225H3.76709C3.83042 33.2117 3.9856 33.0771 4.22312 33.0771C4.46064 33.0771 4.72825 33.237 4.72825 33.6867V34.5307H4.3688V33.7279C4.3688 33.5236 4.2928 33.3684 4.09803 33.3684C3.95393 33.3684 3.85576 33.4698 3.81776 33.579C3.80509 33.6075 3.80034 33.6519 3.80034 33.6931V34.5307H3.44089V33.5331H3.43931Z" fill="#1B1464"/>
<path d="M5.48347 32.5624H5.12402V34.5307H5.48347V32.5624Z" fill="#1B1464"/>
<path d="M6.253 32.5624H5.89355V34.5307H6.253V32.5624Z" fill="#1B1464"/>
<path d="M7.04175 32.8653H6.4812V32.5645H7.9665V32.8653H7.39961V34.5327H7.04175V32.8653Z" fill="#1B1464"/>
<path d="M9.13989 33.0251C9.13989 33.3022 8.9182 33.5207 8.63476 33.5207C8.35132 33.5207 8.12646 33.3022 8.12646 33.0251C8.12646 32.7479 8.35448 32.5342 8.63793 32.5342C8.92137 32.5342 9.13989 32.7543 9.13989 33.0251ZM8.26739 33.0282C8.26739 33.2388 8.42416 33.4083 8.63476 33.4083C8.84536 33.4114 8.99896 33.2388 8.99896 33.0282C8.99896 32.8176 8.84378 32.6498 8.62843 32.6498C8.41307 32.6498 8.26581 32.816 8.26581 33.0282M8.5635 33.2705H8.43524V32.8002C8.47324 32.7923 8.54133 32.7828 8.63001 32.7828C8.72977 32.7828 8.7741 32.797 8.80577 32.8208C8.83428 32.8382 8.85486 32.873 8.85486 32.9205C8.85486 32.9728 8.81052 33.014 8.75352 33.0314V33.0377C8.80261 33.0551 8.82953 33.0931 8.84378 33.1581C8.85803 33.2246 8.86753 33.2547 8.87545 33.2721H8.73452C8.72027 33.2547 8.71076 33.2135 8.69968 33.1644C8.69018 33.1153 8.66484 33.0947 8.61259 33.0947H8.56192V33.2721L8.5635 33.2705ZM8.56667 33.0029H8.61417C8.67276 33.0029 8.71235 32.9823 8.71235 32.9395C8.71235 32.8984 8.68068 32.8746 8.62209 32.8746C8.59992 32.8746 8.57775 32.8778 8.56667 32.8778V33.0029Z" fill="#1B1464"/>
<path d="M10.4826 33.9737L10.3132 34.5311H9.94263L10.5728 32.5645H11.0321L11.6718 34.5311H11.2838L11.1049 33.9737H10.4842H10.4826ZM11.0463 33.703L10.8911 33.2184C10.8531 33.0981 10.8215 32.9635 10.7914 32.8511H10.785C10.7565 32.9651 10.7249 33.1028 10.6916 33.2184L10.5396 33.703H11.0447H11.0463Z" fill="#1B1464"/>
<path d="M12.275 32.4579H11.9155V34.5307H12.275V32.4579Z" fill="#1B1464"/>
<path d="M13.9394 34.1044C13.9394 34.2738 13.9457 34.4132 13.9504 34.5304H13.6385L13.6211 34.3166H13.6132C13.5514 34.4163 13.4121 34.562 13.154 34.562C12.8958 34.562 12.6599 34.4068 12.6599 33.9429V33.1084H13.0194V33.8827C13.0194 34.1187 13.0954 34.2707 13.2854 34.2707C13.4311 34.2707 13.5245 34.1725 13.5593 34.0791C13.5736 34.0506 13.5799 34.0078 13.5799 33.9682V33.11H13.9394V34.106V34.1044Z" fill="#1B1464"/>
<path d="M14.3272 33.5331C14.3272 33.37 14.3209 33.2323 14.3162 33.1088H14.6218L14.6392 33.3194H14.6471C14.7136 33.2085 14.8435 33.0771 15.0857 33.0771C15.2726 33.0771 15.4183 33.1832 15.48 33.3399H15.4863C15.5354 33.2608 15.594 33.2038 15.6574 33.161C15.7397 33.1056 15.83 33.0771 15.9487 33.0771C16.1831 33.0771 16.4222 33.237 16.4222 33.6931V34.5307H16.0722V33.7453C16.0722 33.5094 15.9899 33.3684 15.8173 33.3684C15.6954 33.3684 15.6035 33.4555 15.5671 33.5585C15.5544 33.5901 15.5497 33.6376 15.5497 33.6788V34.5307H15.1982V33.7073C15.1982 33.5094 15.119 33.3684 14.9527 33.3684C14.8181 33.3684 14.7279 33.4745 14.693 33.5695C14.6819 33.6075 14.6756 33.6487 14.6756 33.6899V34.5307H14.3241V33.5331H14.3272Z" fill="#1B1464"/>
<path d="M16.8021 33.5331C16.8021 33.37 16.7958 33.2323 16.791 33.1088H17.103L17.1204 33.3225H17.1299C17.1932 33.2117 17.3484 33.0771 17.5859 33.0771C17.8234 33.0771 18.091 33.237 18.091 33.6867V34.5307H17.7316V33.7279C17.7316 33.5236 17.6556 33.3684 17.4608 33.3684C17.3167 33.3684 17.2186 33.4698 17.1805 33.579C17.1695 33.6075 17.1631 33.6519 17.1631 33.6931V34.5307H16.8037V33.5331H16.8021Z" fill="#1B1464"/>
<path d="M18.8543 32.7128C18.8543 32.8173 18.7752 32.9044 18.6501 32.9044C18.525 32.9044 18.4521 32.8173 18.4521 32.7128C18.4521 32.602 18.5329 32.5165 18.6532 32.5165C18.7736 32.5165 18.8512 32.602 18.8543 32.7128ZM18.4712 33.1103H18.8306V34.5322H18.4712V33.1103Z" fill="#1B1464"/>
<path d="M20.1971 32.5624H19.8376V34.5307H20.1971V32.5624Z" fill="#1B1464"/>
<path d="M20.6105 33.5331C20.6105 33.37 20.6041 33.2323 20.5994 33.1088H20.9113L20.9287 33.3225H20.9382C21.0016 33.2117 21.1567 33.0771 21.3943 33.0771C21.6318 33.0771 21.8994 33.237 21.8994 33.6867V34.5307H21.5399V33.7279C21.5399 33.5236 21.4639 33.3684 21.2692 33.3684C21.1251 33.3684 21.0269 33.4698 20.9889 33.579C20.9762 33.6075 20.9715 33.6519 20.9715 33.6931V34.5307H20.612V33.5331H20.6105Z" fill="#1B1464"/>
<path d="M23.5905 32.46V34.1337C23.5905 34.2794 23.5968 34.4361 23.6032 34.5327H23.2849L23.2675 34.3079H23.2611C23.1772 34.4662 23.0046 34.5644 22.8003 34.5644C22.4583 34.5644 22.1907 34.2746 22.1907 33.8376C22.1875 33.361 22.4852 33.0791 22.8273 33.0791C23.0236 33.0791 23.1629 33.1583 23.2279 33.2628H23.2342V32.46H23.5937H23.5905ZM23.231 33.703C23.231 33.6745 23.2279 33.6365 23.2215 33.6064C23.1899 33.4702 23.0759 33.3546 22.9128 33.3546C22.6832 33.3546 22.5533 33.5589 22.5533 33.8217C22.5533 34.0846 22.6816 34.2746 22.9096 34.2746C23.0553 34.2746 23.1835 34.1764 23.2184 34.0213C23.2263 33.9896 23.2295 33.9548 23.2295 33.9152V33.7014L23.231 33.703Z" fill="#1B1464"/>
<path d="M24.3585 32.7128C24.3585 32.8173 24.2793 32.9044 24.1542 32.9044C24.0291 32.9044 23.9563 32.8173 23.9563 32.7128C23.9563 32.602 24.0386 32.5165 24.1574 32.5165C24.2762 32.5165 24.3553 32.602 24.3585 32.7128ZM23.9753 33.1103H24.3347V34.5322H23.9753V33.1103Z" fill="#1B1464"/>
<path d="M25.8262 34.1907C25.8262 34.319 25.8326 34.4456 25.85 34.5327H25.5254L25.5 34.3744H25.4905C25.4066 34.4852 25.2578 34.5644 25.0693 34.5644C24.7827 34.5644 24.6228 34.357 24.6228 34.1416C24.6228 33.7853 24.9411 33.6016 25.4668 33.6048V33.5811C25.4668 33.4876 25.4288 33.3325 25.177 33.3325C25.0377 33.3325 24.8904 33.3768 24.7938 33.437L24.7241 33.2042C24.8302 33.1409 25.0139 33.0791 25.2372 33.0791C25.6932 33.0791 25.8231 33.3689 25.8231 33.6808V34.1923L25.8262 34.1907ZM25.4763 33.8376C25.2214 33.8344 24.9791 33.8867 24.9791 34.1036C24.9791 34.2445 25.0693 34.3079 25.1833 34.3079C25.329 34.3079 25.432 34.2144 25.4668 34.1131C25.4763 34.0862 25.4763 34.0609 25.4763 34.0339V33.8392V33.8376Z" fill="#1B1464"/>
<path d="M114.456 12.0963H115.729C115.954 12.0963 116.157 12.1359 116.336 12.2151C116.516 12.2942 116.66 12.413 116.767 12.5729C116.874 12.7329 116.927 12.934 116.927 13.1731C116.927 13.4122 116.873 13.6149 116.767 13.7811C116.659 13.949 116.516 14.0756 116.336 14.1627C116.155 14.2498 115.953 14.2942 115.729 14.2942H115.25V15.5958H114.456V12.0947V12.0963ZM115.25 13.6687H115.509C115.617 13.6687 115.714 13.6529 115.799 13.6212C115.885 13.5895 115.953 13.5389 116.005 13.4692C116.056 13.3995 116.083 13.3077 116.083 13.1921C116.083 13.0765 116.057 12.9831 116.005 12.915C115.954 12.8469 115.885 12.7978 115.799 12.7677C115.714 12.7376 115.617 12.7234 115.509 12.7234H115.25V13.6703V13.6687Z" fill="#ED2024"/>
<path d="M117.902 12.0957H118.689L120.071 15.5968H119.226L118.971 14.8937H117.623L117.367 15.5968H116.518L117.902 12.0957ZM117.889 14.1986H118.71L118.304 13.0505H118.296L117.891 14.1986H117.889Z" fill="#ED2024"/>
<path d="M121.085 12.8215L121.143 12.8326V15.5958H120.35V12.0947H121.432L122.85 14.8531L122.792 14.8642V12.0963H123.585V15.5974H122.497L121.083 12.8231L121.085 12.8215Z" fill="#ED2024"/>
<path d="M124.214 12.0957H125.007V15.5968H124.214V12.0957Z" fill="#ED2024"/>
<path d="M125.648 12.0957H126.442V15.5968H125.648V12.0957Z" fill="#ED2024"/>
<path d="M127.544 12.7899H126.708V12.0947H129.168V12.7899H128.335V15.5958H127.542V12.7899H127.544Z" fill="#ED2024"/>
<path d="M129.658 14.731V14.0469H131.023V14.731H129.658Z" fill="#ED2024"/>
<path d="M118.037 19.7268H117.085L116.491 17.2851H116.634L116.04 19.7268H115.082L114.284 16.2258H115.193L115.614 18.6817H115.603L116.26 16.2258H116.857L117.517 18.6817H117.506L117.927 16.2258H118.836L118.033 19.7268H118.037Z" fill="#1B1464"/>
<path d="M118.949 17.9736C118.949 17.7187 118.995 17.4811 119.083 17.261C119.172 17.0409 119.3 16.8493 119.462 16.6847C119.623 16.52 119.815 16.3917 120.035 16.2999C120.254 16.208 120.491 16.1621 120.746 16.1621C121.001 16.1621 121.242 16.208 121.46 16.2999C121.679 16.3917 121.869 16.52 122.03 16.6847C122.192 16.8493 122.317 17.0409 122.407 17.261C122.497 17.4811 122.542 17.7187 122.542 17.9736C122.542 18.2285 122.499 18.4676 122.412 18.6877C122.325 18.9078 122.201 19.101 122.041 19.2657C121.881 19.4304 121.69 19.5602 121.471 19.6521C121.253 19.7439 121.01 19.7898 120.748 19.7898C120.485 19.7898 120.235 19.7439 120.014 19.6521C119.794 19.5602 119.604 19.432 119.446 19.2657C119.288 19.0994 119.164 18.9078 119.079 18.6877C118.993 18.4676 118.95 18.2301 118.95 17.9736H118.949ZM119.774 17.9736C119.774 18.1731 119.815 18.3536 119.897 18.5151C119.98 18.6767 120.094 18.8049 120.239 18.9015C120.385 18.9965 120.554 19.044 120.748 19.044C120.941 19.044 121.11 18.9965 121.256 18.9015C121.402 18.8065 121.516 18.6767 121.598 18.5151C121.68 18.3536 121.721 18.1731 121.721 17.9736C121.721 17.7741 121.68 17.5936 121.598 17.4321C121.516 17.2705 121.402 17.1423 121.256 17.0457C121.11 16.9491 120.941 16.9016 120.748 16.9016C120.554 16.9016 120.385 16.9491 120.239 17.0457C120.094 17.1423 119.98 17.2705 119.897 17.4321C119.815 17.5936 119.774 17.7741 119.774 17.9736Z" fill="#1B1464"/>
<path d="M122.98 16.2278H124.407C124.609 16.2278 124.792 16.2705 124.95 16.3545C125.108 16.44 125.235 16.5619 125.328 16.7218C125.422 16.8817 125.468 17.0718 125.468 17.2935C125.468 17.5151 125.428 17.6957 125.349 17.835C125.27 17.9743 125.176 18.0804 125.067 18.1501C124.958 18.2198 124.857 18.2625 124.762 18.2752L125.613 19.7257H124.722L123.963 18.3354H123.772V19.7257H122.979V16.2246L122.98 16.2278ZM123.773 17.7891H124.123C124.264 17.7891 124.388 17.7542 124.494 17.6862C124.6 17.6181 124.652 17.4946 124.652 17.3204C124.652 17.1462 124.6 17.0243 124.495 16.9562C124.391 16.8881 124.269 16.8548 124.127 16.8548H123.772V17.7907L123.773 17.7891Z" fill="#1B1464"/>
<path d="M126.153 16.2274H126.947V19.0333H128.217V19.7285H126.153V16.2274Z" fill="#1B1464"/>
<path d="M128.739 16.2274H129.792C130.166 16.2274 130.475 16.3018 130.719 16.4523C130.964 16.6011 131.146 16.8085 131.268 17.0714C131.39 17.3343 131.452 17.6367 131.452 17.9756C131.452 18.3144 131.392 18.6185 131.268 18.8829C131.146 19.1458 130.962 19.3532 130.719 19.5036C130.473 19.654 130.164 19.7285 129.792 19.7285H128.739V16.2274ZM129.529 16.9305V19.0254H129.721C129.921 19.0254 130.087 18.9795 130.217 18.8892C130.348 18.7974 130.446 18.6739 130.513 18.5155C130.579 18.3572 130.612 18.1798 130.612 17.9803C130.612 17.7808 130.581 17.6019 130.516 17.4435C130.451 17.2852 130.353 17.1601 130.22 17.0682C130.087 16.9764 129.921 16.9305 129.721 16.9305H129.529Z" fill="#1B1464"/>
<path d="M133.211 17.9736C133.211 17.7187 133.257 17.4811 133.346 17.261C133.434 17.0409 133.562 16.8493 133.724 16.6847C133.885 16.52 134.077 16.3917 134.297 16.2999C134.516 16.208 134.753 16.1621 135.008 16.1621C135.263 16.1621 135.504 16.208 135.722 16.2999C135.941 16.3917 136.131 16.52 136.292 16.6847C136.454 16.8493 136.579 17.0409 136.669 17.261C136.759 17.4811 136.804 17.7187 136.804 17.9736C136.804 18.2285 136.761 18.4676 136.674 18.6877C136.587 18.9078 136.463 19.101 136.303 19.2657C136.144 19.4304 135.952 19.5602 135.733 19.6521C135.515 19.7439 135.273 19.7898 135.01 19.7898C134.747 19.7898 134.497 19.7439 134.277 19.6521C134.057 19.5602 133.866 19.432 133.708 19.2657C133.55 19.0994 133.426 18.9078 133.341 18.6877C133.255 18.4676 133.213 18.2301 133.213 17.9736H133.211ZM134.036 17.9736C134.036 18.1731 134.077 18.3536 134.159 18.5151C134.242 18.6767 134.356 18.8049 134.501 18.9015C134.647 18.9965 134.817 19.044 135.01 19.044C135.203 19.044 135.372 18.9965 135.518 18.9015C135.664 18.8065 135.778 18.6767 135.86 18.5151C135.942 18.3536 135.984 18.1731 135.984 17.9736C135.984 17.7741 135.942 17.5936 135.86 17.4321C135.778 17.2705 135.664 17.1423 135.518 17.0457C135.372 16.9491 135.203 16.9016 135.01 16.9016C134.817 16.9016 134.647 16.9491 134.501 17.0457C134.356 17.1423 134.242 17.2705 134.159 17.4321C134.077 17.5936 134.036 17.7741 134.036 17.9736Z" fill="#1B1464"/>
<path d="M137.279 16.2274H139.302V16.9226H138.072V17.6288H139.209V18.3208H138.072V19.7285H137.279V16.2274Z" fill="#1B1464"/>
<path d="M115.104 21.0535H114.268V20.3584H116.729V21.0535H115.896V23.8594H115.102V21.0535H115.104Z" fill="#1B1464"/>
<path d="M117.156 20.3584H119.392V21.0535H117.946V21.7677H119.378V22.4407H117.946V23.1643H119.392V23.8594H117.156V20.3584Z" fill="#1B1464"/>
<path d="M121.845 23.1396C122.008 23.1396 122.155 23.1158 122.288 23.0683C122.421 23.0208 122.521 22.9733 122.586 22.9274L122.925 23.6004C122.842 23.6716 122.7 23.7429 122.499 23.8157C122.298 23.8886 122.06 23.925 121.785 23.925C121.527 23.925 121.284 23.8791 121.058 23.7904C120.831 23.7001 120.632 23.5734 120.459 23.4103C120.287 23.2472 120.152 23.0556 120.054 22.8355C119.956 22.6154 119.907 22.3763 119.907 22.1182C119.907 21.8601 119.956 21.6194 120.052 21.3978C120.149 21.1761 120.285 20.9829 120.456 20.8182C120.629 20.6535 120.828 20.5268 121.056 20.435C121.284 20.3432 121.527 20.2988 121.785 20.2988C122.06 20.2988 122.299 20.3352 122.499 20.4081C122.7 20.4809 122.841 20.5522 122.925 20.6234L122.586 21.2964C122.521 21.2489 122.421 21.2014 122.288 21.1539C122.155 21.108 122.006 21.0842 121.845 21.0842C121.664 21.0842 121.508 21.1127 121.373 21.1682C121.238 21.2236 121.126 21.2996 121.036 21.3978C120.945 21.4943 120.879 21.6052 120.835 21.7271C120.79 21.849 120.768 21.9773 120.768 22.1119C120.768 22.2465 120.79 22.3779 120.835 22.4999C120.879 22.6234 120.945 22.7326 121.036 22.8292C121.126 22.9258 121.238 23.0034 121.373 23.0588C121.508 23.1142 121.664 23.1427 121.845 23.1427V23.1396Z" fill="#1B1464"/>
<path d="M125.409 22.4517H124.199V23.8594H123.409V20.3584H124.199V21.7582H125.409V20.3584H126.196V23.8594H125.409V22.4517Z" fill="#1B1464"/>
<path d="M127.531 21.0852L127.59 21.0963V23.8594H126.796V20.3584H127.878L129.297 23.1168L129.238 23.1279V20.36H130.031V23.861H128.944L127.53 21.0868L127.531 21.0852Z" fill="#1B1464"/>
<path d="M130.519 22.1064C130.519 21.8515 130.565 21.614 130.654 21.3939C130.742 21.1737 130.871 20.9821 131.032 20.8175C131.195 20.6528 131.385 20.5245 131.605 20.4327C131.824 20.3408 132.061 20.2949 132.316 20.2949C132.571 20.2949 132.812 20.3408 133.03 20.4327C133.249 20.5245 133.439 20.6528 133.6 20.8175C133.762 20.9821 133.887 21.1737 133.977 21.3939C134.068 21.614 134.112 21.8515 134.112 22.1064C134.112 22.3614 134.069 22.6005 133.982 22.8206C133.895 23.0407 133.771 23.2338 133.612 23.3985C133.45 23.5632 133.26 23.693 133.042 23.7849C132.823 23.8767 132.581 23.9227 132.318 23.9227C132.055 23.9227 131.805 23.8767 131.585 23.7849C131.365 23.693 131.175 23.5648 131.016 23.3985C130.858 23.2338 130.734 23.0407 130.649 22.8206C130.563 22.6005 130.521 22.3629 130.521 22.1064H130.519ZM131.344 22.1064C131.344 22.3059 131.385 22.4864 131.468 22.6495C131.55 22.8126 131.664 22.9393 131.81 23.0359C131.955 23.1309 132.125 23.1784 132.318 23.1784C132.511 23.1784 132.68 23.1309 132.826 23.0359C132.972 22.9409 133.086 22.8126 133.168 22.6495C133.251 22.488 133.292 22.3075 133.292 22.1064C133.292 21.9053 133.251 21.7264 133.168 21.5649C133.086 21.4034 132.972 21.2751 132.826 21.1785C132.68 21.0819 132.511 21.0344 132.318 21.0344C132.125 21.0344 131.955 21.0819 131.81 21.1785C131.664 21.2751 131.55 21.4034 131.468 21.5649C131.385 21.7264 131.344 21.9053 131.344 22.1064Z" fill="#1B1464"/>
<path d="M134.587 20.3584H135.366V22.599H136.614V23.1532H134.588V20.3584H134.587Z" fill="#1B1464"/>
<path d="M137.052 22.1064C137.052 21.8515 137.098 21.614 137.187 21.3939C137.276 21.1737 137.404 20.9821 137.566 20.8175C137.729 20.6528 137.919 20.5245 138.139 20.4327C138.357 20.3408 138.595 20.2949 138.85 20.2949C139.105 20.2949 139.345 20.3408 139.564 20.4327C139.782 20.5245 139.972 20.6528 140.134 20.8175C140.295 20.9821 140.421 21.1737 140.511 21.3939C140.601 21.614 140.645 21.8515 140.645 22.1064C140.645 22.3614 140.603 22.6005 140.516 22.8206C140.428 23.0407 140.305 23.2338 140.145 23.3985C139.983 23.5632 139.793 23.693 139.575 23.7849C139.356 23.8767 139.114 23.9227 138.851 23.9227C138.588 23.9227 138.338 23.8767 138.118 23.7849C137.898 23.693 137.708 23.5648 137.55 23.3985C137.391 23.2338 137.268 23.0407 137.182 22.8206C137.097 22.6005 137.054 22.3629 137.054 22.1064H137.052ZM137.877 22.1064C137.877 22.3059 137.919 22.4864 138.001 22.6495C138.083 22.8126 138.197 22.9393 138.343 23.0359C138.489 23.1309 138.658 23.1784 138.851 23.1784C139.044 23.1784 139.214 23.1309 139.36 23.0359C139.505 22.9409 139.619 22.8126 139.702 22.6495C139.784 22.488 139.825 22.3075 139.825 22.1064C139.825 21.9053 139.784 21.7264 139.702 21.5649C139.619 21.4034 139.505 21.2751 139.36 21.1785C139.214 21.0819 139.044 21.0344 138.851 21.0344C138.658 21.0344 138.489 21.0819 138.343 21.1785C138.197 21.2751 138.083 21.4034 138.001 21.5649C137.919 21.7264 137.877 21.9053 137.877 22.1064Z" fill="#1B1464"/>
<path d="M142.759 21.9025H144.544V22.1258C144.544 22.3776 144.501 22.6119 144.417 22.8288C144.333 23.0458 144.213 23.2374 144.058 23.4021C143.902 23.5667 143.716 23.695 143.5 23.7868C143.285 23.8787 143.046 23.9246 142.785 23.9246C142.523 23.9246 142.268 23.8787 142.048 23.7853C141.828 23.6918 141.638 23.5636 141.48 23.3973C141.321 23.231 141.198 23.0379 141.114 22.8178C141.028 22.5977 140.987 22.3617 140.987 22.1084C140.987 21.855 141.03 21.6222 141.114 21.4021C141.199 21.182 141.321 20.9889 141.48 20.8242C141.638 20.6595 141.828 20.5296 142.048 20.4362C142.268 20.3428 142.514 20.2969 142.785 20.2969C143.006 20.2969 143.201 20.3206 143.369 20.3681C143.538 20.4156 143.682 20.479 143.804 20.5597C143.926 20.6389 144.029 20.726 144.115 20.821C144.2 20.916 144.27 21.0079 144.327 21.0981L143.573 21.4528C143.5 21.342 143.402 21.2438 143.277 21.1615C143.152 21.0791 142.987 21.0364 142.783 21.0364C142.64 21.0364 142.509 21.0649 142.389 21.1219C142.27 21.1789 142.167 21.2565 142.08 21.3546C141.993 21.4528 141.926 21.5668 141.88 21.6967C141.834 21.8265 141.811 21.9643 141.811 22.1084C141.811 22.2525 141.834 22.3934 141.88 22.5217C141.926 22.6499 141.994 22.7655 142.08 22.8637C142.167 22.9619 142.27 23.0394 142.389 23.0949C142.507 23.1503 142.639 23.1788 142.783 23.1788C142.908 23.1788 143.022 23.163 143.125 23.1313C143.228 23.0996 143.317 23.0537 143.391 22.9935C143.465 22.9334 143.526 22.8621 143.568 22.7798C143.611 22.6974 143.638 22.6072 143.646 22.5074H142.754V21.9025H142.759Z" fill="#1B1464"/>
<path d="M145.657 22.6008L144.45 20.3602H145.413L146.053 21.6935L146.694 20.3602H147.652L146.45 22.6008V23.8613H145.657V22.6008Z" fill="#1B1464"/>
<path d="M39.0483 12.0929H43.5201C45.9586 12.0929 47.9934 13.9297 47.9934 16.2432C47.9934 18.5566 46.0029 20.4441 43.5201 20.4441H42.1915V23.9325H39.0483V12.0929ZM44.961 16.2574C44.961 15.5385 44.3593 14.9938 43.5216 14.9938H42.1931V17.5416L43.5216 17.5495C44.3672 17.5559 44.961 16.9826 44.961 16.2558" fill="#1B1464"/>
<path d="M55.7823 12.0918H52.6392V23.9314H55.7823V12.0918Z" fill="#1B1464"/>
<path d="M60.8906 18.1655C60.8906 17.1743 61.7789 16.3445 62.8367 16.3445C63.8945 16.3445 64.7749 17.1822 64.7749 18.1655C64.7749 19.1489 63.8929 19.9865 62.8367 19.9865C61.7805 19.9865 60.8906 19.179 60.8906 18.1655Z" fill="#ED2024"/>
<path d="M69.0107 12.0929H72.4105L74.0493 17.5131L76.472 12.1135H76.708L79.1307 17.4973L80.7617 12.0929H84.163L80.2106 24.0053H79.3445L76.575 18.1512L73.8292 24.0053H72.9694L69.0107 12.0929Z" fill="#1B1464"/>
<path d="M87.2729 18.0261C87.2729 14.4712 90.0931 11.7762 93.7731 11.7762C97.4531 11.7762 100.273 14.4712 100.273 18.0261C100.273 21.581 97.4531 24.2318 93.7667 24.2318C90.0804 24.2318 87.2745 21.5509 87.2745 18.0261M97.0936 18.004C97.0936 16.1751 95.6543 14.7658 93.7747 14.7658C91.8951 14.7658 90.4541 16.1751 90.4541 18.004C90.4541 19.8329 91.8935 21.2279 93.7747 21.2279C95.6558 21.2279 97.0936 19.825 97.0936 18.004Z" fill="#1B1464"/>
<path d="M112.645 15.0302H109.809V23.9325H106.659V15.0302H103.817V12.0929H112.645V15.0302Z" fill="#1B1464"/>
<path d="M63.4656 15.334L62.8433 15.2247C63.4846 11.5733 65.4021 8.23531 68.2461 5.82527C71.1216 3.38673 74.7858 2.04395 78.5624 2.04395C81.3398 2.04395 84.076 2.76759 86.4734 4.13888C88.7979 5.46899 90.7693 7.37865 92.1723 9.66202L91.6339 9.99296C88.8201 5.4104 83.9335 2.67575 78.5624 2.67575C71.1026 2.67575 64.7545 7.99937 63.4656 15.334Z" fill="#ED2024"/>
<path d="M78.5607 33.9639C74.8934 33.9639 71.3115 32.6892 68.4756 30.3742C65.6791 28.0924 63.722 24.9033 62.9619 21.3959L63.5795 21.2629C65.0933 28.2571 71.3923 33.3321 78.5607 33.3321C83.8479 33.3321 88.6933 30.6608 91.5229 26.1875L92.0582 26.5263C89.1113 31.1833 84.0664 33.9639 78.5607 33.9639Z" fill="#ED2024"/>
<path d="M32.7715 0H31.7217V40H32.7715V0Z" fill="#EA2224"/>
</g>
<defs>
<clipPath id="clip0_33_2097">
<rect width="147.652" height="40" fill="white"/>
</clipPath>
</defs>
</svg>
