<svg width="17" height="16" viewBox="0 0 17 16" fill="none" xmlns="http://www.w3.org/2000/svg">
<path d="M9.16634 5.99967H7.83301V4.66634H9.16634M9.16634 11.333H7.83301V7.33301H9.16634M8.49967 1.33301C7.6242 1.33301 6.75729 1.50545 5.94845 1.84048C5.13961 2.17551 4.40469 2.66657 3.78563 3.28563C2.53539 4.53587 1.83301 6.23156 1.83301 7.99967C1.83301 9.76778 2.53539 11.4635 3.78563 12.7137C4.40469 13.3328 5.13961 13.8238 5.94845 14.1589C6.75729 14.4939 7.6242 14.6663 8.49967 14.6663C10.2678 14.6663 11.9635 13.964 13.2137 12.7137C14.464 11.4635 15.1663 9.76778 15.1663 7.99967C15.1663 7.1242 14.9939 6.25729 14.6589 5.44845C14.3238 4.63961 13.8328 3.90469 13.2137 3.28563C12.5947 2.66657 11.8597 2.17551 11.0509 1.84048C10.2421 1.50545 9.37515 1.33301 8.49967 1.33301Z" fill="white"/>
</svg>
