<svg width="21" height="21" viewBox="0 0 21 21" fill="none" xmlns="http://www.w3.org/2000/svg">
<path d="M7.00423 2.95996L4.93003 5.03606L4.12058 4.22661L3.20996 5.13534L4.47472 6.4001L4.93003 6.83391L5.38534 6.39946L7.91485 3.86995L7.00423 2.95996ZM9.98905 4.04765V5.31241H18.21V4.04765H9.98905ZM7.00423 8.01898L4.93003 10.0957L4.12058 9.28374L3.20996 10.1944L4.47472 11.4591L4.93003 11.8929L5.38534 11.4585L7.91485 8.92897L7.00423 8.01898ZM9.98905 9.10667V10.3714H18.21V9.10667H9.98905ZM7.00423 13.078L4.93003 15.1541L4.12058 14.3447L3.20996 15.2534L4.47472 16.5181L4.93003 16.952L5.38534 16.5175L7.91485 13.988L7.00423 13.0774V13.078ZM9.98905 14.1657V15.4304H18.21V14.1657H9.98905Z" fill="black"/>
</svg>
