<svg width="21" height="21" viewBox="0 0 21 21" fill="none" xmlns="http://www.w3.org/2000/svg">
<path d="M12.8068 6.45455H14.9886C15.1815 6.45455 15.3665 6.53117 15.5029 6.66756C15.6393 6.80395 15.7159 6.98893 15.7159 7.18182V20.2727C15.7159 20.4656 15.6393 20.6506 15.5029 20.787C15.3665 20.9234 15.1815 21 14.9886 21H3.35227C3.15939 21 2.9744 20.9234 2.83801 20.787C2.70162 20.6506 2.625 20.4656 2.625 20.2727V7.18182C2.625 6.98893 2.70162 6.80395 2.83801 6.66756C2.9744 6.53117 3.15939 6.45455 3.35227 6.45455H5.53409V5H6.98864V6.45455H11.3523V5H12.8068V6.45455ZM5.53409 10.8182V12.2727H12.8068V10.8182H5.53409ZM5.53409 13.7273V15.1818H12.8068V13.7273H5.53409Z" fill="white"/>
</svg>
