<svg width="24" height="24" viewBox="0 0 24 24" fill="none" xmlns="http://www.w3.org/2000/svg">
<g clip-path="url(#clip0_245_4072)">
<path d="M22.9771 8.50315L20.9085 6.43456C20.7416 6.26992 20.5191 6.17378 20.2848 6.1651C20.0505 6.15642 19.8215 6.23584 19.6429 6.38769C19.3671 6.62241 19.0132 6.74496 18.6514 6.73107C18.2895 6.71718 17.9461 6.56785 17.6891 6.31269C17.4341 6.05576 17.2848 5.71241 17.271 5.35066C17.2571 4.98891 17.3795 4.63513 17.6141 4.3594C17.766 4.18079 17.8454 3.95176 17.8367 3.71748C17.828 3.4832 17.7319 3.26067 17.5672 3.09378L15.4968 1.02284C15.3218 0.848204 15.0847 0.750122 14.8375 0.750122C14.5903 0.750122 14.3532 0.848204 14.1782 1.02284L10.8805 4.32003C10.677 4.52439 10.5234 4.77305 10.4319 5.04659C10.4141 5.09919 10.3844 5.14697 10.3452 5.18624C10.3059 5.2255 10.2581 5.25519 10.2055 5.273C9.93188 5.36449 9.68317 5.5182 9.47897 5.72206L1.02272 14.1783C0.848082 14.3533 0.75 14.5904 0.75 14.8376C0.75 15.0848 0.848082 15.3219 1.02272 15.4969L3.09366 17.5655C3.26055 17.7301 3.48308 17.8263 3.71736 17.835C3.95164 17.8436 4.18067 17.7642 4.35928 17.6124C4.63438 17.3758 4.98874 17.2518 5.35135 17.2655C5.71396 17.2791 6.05803 17.4292 6.31461 17.6858C6.5712 17.9424 6.72134 18.2864 6.73495 18.6491C6.74857 19.0117 6.62465 19.366 6.38803 19.6411C6.23618 19.8197 6.15677 20.0488 6.16545 20.283C6.17412 20.5173 6.27026 20.7399 6.43491 20.9067L8.5035 22.9753C8.67847 23.15 8.91559 23.2481 9.1628 23.2481C9.41001 23.2481 9.64712 23.15 9.82209 22.9753L18.2783 14.5191C18.4821 14.315 18.6359 14.0665 18.7274 13.793C18.7451 13.7402 18.7748 13.6923 18.8142 13.6529C18.8536 13.6136 18.9015 13.5839 18.9543 13.5661C19.2277 13.4746 19.4762 13.3211 19.6804 13.1175L22.9776 9.81987C23.1516 9.64492 23.2492 9.40817 23.2491 9.16142C23.249 8.91466 23.1512 8.67799 22.9771 8.50315ZM12.2723 7.11331C12.2026 7.18297 12.1199 7.23823 12.0289 7.27593C11.9379 7.31364 11.8404 7.33304 11.7419 7.33304C11.6434 7.33304 11.5458 7.31364 11.4548 7.27593C11.3638 7.23823 11.2811 7.18297 11.2115 7.11331L10.6719 6.57378C10.5347 6.43242 10.4586 6.24274 10.4601 6.04573C10.4616 5.84872 10.5405 5.66021 10.6799 5.52093C10.8192 5.38165 11.0078 5.30279 11.2048 5.30139C11.4018 5.3 11.5914 5.37618 11.7327 5.51347L12.2723 6.05253C12.3419 6.12218 12.3972 6.20486 12.4349 6.29587C12.4726 6.38687 12.492 6.48441 12.492 6.58292C12.492 6.68143 12.4726 6.77897 12.4349 6.86997C12.3972 6.96098 12.3419 7.04366 12.2723 7.11331ZM14.3348 9.17581C14.1941 9.31636 14.0034 9.39531 13.8046 9.39531C13.6058 9.39531 13.4151 9.31636 13.2744 9.17581L12.7588 8.66019C12.6181 8.51952 12.5391 8.32873 12.5391 8.12979C12.5391 7.93086 12.6181 7.74007 12.7588 7.5994C12.8995 7.45874 13.0903 7.37971 13.2892 7.37971C13.4881 7.37971 13.6789 7.45874 13.8196 7.5994L14.3352 8.11503C14.4051 8.18467 14.4606 8.26742 14.4985 8.35854C14.5363 8.44966 14.5558 8.54735 14.5559 8.64603C14.5559 8.7447 14.5365 8.84241 14.4987 8.93356C14.4609 9.02471 14.4055 9.10751 14.3357 9.17722L14.3348 9.17581ZM16.3973 11.2383C16.3276 11.308 16.2449 11.3632 16.1539 11.4009C16.0629 11.4386 15.9654 11.458 15.8669 11.458C15.7684 11.458 15.6708 11.4386 15.5798 11.4009C15.4888 11.3632 15.4061 11.308 15.3365 11.2383L14.8208 10.7227C14.6836 10.5813 14.6075 10.3916 14.609 10.1946C14.6105 9.99763 14.6894 9.80911 14.8288 9.66983C14.9681 9.53055 15.1567 9.4517 15.3537 9.4503C15.5507 9.4489 15.7403 9.52508 15.8816 9.66237L16.3973 10.178C16.4673 10.2475 16.523 10.3302 16.5611 10.4213C16.5992 10.5124 16.6189 10.6101 16.6191 10.7088C16.6193 10.8076 16.6 10.9054 16.5624 10.9966C16.5247 11.0879 16.4694 11.1708 16.3996 11.2407L16.3973 11.2383ZM18.4799 13.3261C18.4103 13.3958 18.3276 13.451 18.2366 13.4887C18.1456 13.5264 18.048 13.5459 17.9495 13.5459C17.851 13.5459 17.7535 13.5264 17.6625 13.4887C17.5715 13.451 17.4888 13.3958 17.4191 13.3261L16.8829 12.7871C16.8118 12.7176 16.7551 12.6347 16.7163 12.5432C16.6775 12.4517 16.6573 12.3534 16.6568 12.254C16.6563 12.1546 16.6756 12.0561 16.7136 11.9642C16.7515 11.8723 16.8073 11.7889 16.8778 11.7188C16.9482 11.6487 17.0319 11.5933 17.124 11.5558C17.216 11.5183 17.3146 11.4995 17.414 11.5004C17.5134 11.5014 17.6117 11.5221 17.703 11.5614C17.7943 11.6006 17.8769 11.6576 17.946 11.7291L18.4827 12.2677C18.5524 12.3374 18.6076 12.4201 18.6452 12.5111C18.6829 12.6021 18.7023 12.6997 18.7022 12.7982C18.7022 12.8967 18.6827 12.9942 18.645 13.0852C18.6072 13.1762 18.5519 13.2589 18.4823 13.3285L18.4799 13.3261Z" fill="white"/>
</g>
<defs>
<clipPath id="clip0_245_4072">
<rect width="24" height="24" fill="white"/>
</clipPath>
</defs>
</svg>
