<svg width="18" height="18" viewBox="0 0 18 18" fill="none" xmlns="http://www.w3.org/2000/svg">
<path d="M15.75 15V4.5C15.75 3.67275 15.0773 3 14.25 3H12.75V1.5H11.25V3H6.75V1.5H5.25V3H3.75C2.92275 3 2.25 3.67275 2.25 4.5V15C2.25 15.8273 2.92275 16.5 3.75 16.5H14.25C15.0773 16.5 15.75 15.8273 15.75 15ZM6.75 13.5H5.25V12H6.75V13.5ZM6.75 10.5H5.25V9H6.75V10.5ZM9.75 13.5H8.25V12H9.75V13.5ZM9.75 10.5H8.25V9H9.75V10.5ZM12.75 13.5H11.25V12H12.75V13.5ZM12.75 10.5H11.25V9H12.75V10.5ZM14.25 6.75H3.75V5.25H14.25V6.75Z" fill="url(#paint0_linear_713_3977)"/>
<defs>
<linearGradient id="paint0_linear_713_3977" x1="-0.01875" y1="-0.48" x2="30.404" y2="9.52851" gradientUnits="userSpaceOnUse">
<stop offset="0.24" stop-color="#1B1464"/>
<stop offset="1" stop-color="#CF2E2E"/>
</linearGradient>
</defs>
</svg>
