<svg width="19" height="20" viewBox="0 0 19 20" fill="none" xmlns="http://www.w3.org/2000/svg">
<g clip-path="url(#clip0_398_601)">
<path d="M0.791649 2.46436H7.58415L8.76136 7.7606L7.28886 9.2331C8.15465 10.5805 9.30026 11.7259 10.6479 12.5914L12.1204 11.1196L17.4166 12.2969V19.0894H16.625C13.5773 19.0945 10.5936 18.2157 8.0354 16.5592C6.14903 15.3384 4.5426 13.732 3.32182 11.8456C1.66535 9.28741 0.786452 6.30368 0.791649 3.25602V2.46436ZM2.39636 4.04769C2.52976 6.51762 3.30735 8.90961 4.65181 10.9859C5.7509 12.6839 7.19706 14.1301 8.89515 15.2292C10.9714 16.5737 13.3634 17.3512 15.8333 17.4846V13.5667L12.6247 12.8542L10.9036 14.5761L10.3787 14.2776C8.38582 13.1451 6.73591 11.4952 5.6034 9.50227L5.30494 8.9774L7.02681 7.25631L6.31431 4.04769H2.39636Z" fill="black"/>
</g>
<defs>
<clipPath id="clip0_398_601">
<rect width="19" height="19" fill="white" transform="translate(0 0.881104)"/>
</clipPath>
</defs>
</svg>
