<svg width="28" height="22" viewBox="0 0 28 22" fill="none" xmlns="http://www.w3.org/2000/svg">
<path d="M27 22H1C0.734784 22 0.48043 21.8946 0.292893 21.7071C0.105357 21.5196 0 21.2652 0 21V4C0 3.73478 0.105357 3.48043 0.292893 3.29289C0.48043 3.10536 0.734784 3 1 3H7.46L9.17 0.45C9.26059 0.312439 9.38375 0.199384 9.52855 0.12088C9.67335 0.0423752 9.83529 0.000852118 10 0H18C18.1647 0.000852118 18.3267 0.0423752 18.4715 0.12088C18.6162 0.199384 18.7394 0.312439 18.83 0.45L20.54 3H27C27.2652 3 27.5196 3.10536 27.7071 3.29289C27.8946 3.48043 28 3.73478 28 4V21C28 21.2652 27.8946 21.5196 27.7071 21.7071C27.5196 21.8946 27.2652 22 27 22ZM2 20H26V5H20C19.8353 4.99915 19.6733 4.95763 19.5285 4.87912C19.3838 4.80062 19.2606 4.68756 19.17 4.55L17.46 2H10.54L8.83 4.55C8.73941 4.68756 8.61625 4.80062 8.47145 4.87912C8.32665 4.95763 8.16471 4.99915 8 5H2V20Z" fill="#59529C"/>
<path d="M14 16.625C12.8133 16.625 11.6533 16.2951 10.6666 15.677C9.67989 15.0589 8.91085 14.1804 8.45673 13.1526C8.0026 12.1248 7.88378 10.9938 8.11529 9.90262C8.3468 8.81148 8.91825 7.8092 9.75736 7.02253C10.5965 6.23586 11.6656 5.70013 12.8295 5.48309C13.9933 5.26604 15.1997 5.37744 16.2961 5.80318C17.3925 6.22892 18.3295 6.94989 18.9888 7.87492C19.6481 8.79995 20 9.88748 20 11C20 12.4918 19.3679 13.9226 18.2426 14.9775C17.1174 16.0324 15.5913 16.625 14 16.625ZM14 7.25C13.2089 7.25 12.4355 7.46994 11.7777 7.88199C11.1199 8.29405 10.6072 8.87972 10.3045 9.56494C10.0017 10.2502 9.92252 11.0042 10.0769 11.7316C10.2312 12.459 10.6122 13.1272 11.1716 13.6517C11.731 14.1761 12.4437 14.5333 13.2196 14.6779C13.9956 14.8226 14.7998 14.7484 15.5307 14.4646C16.2616 14.1807 16.8864 13.7001 17.3259 13.0834C17.7654 12.4667 18 11.7417 18 11C18 10.0054 17.5786 9.05161 16.8284 8.34835C16.0783 7.64509 15.0609 7.25 14 7.25Z" fill="#6A6A6A"/>
</svg>
