<svg width="24" height="20" viewBox="0 0 24 20" fill="none" xmlns="http://www.w3.org/2000/svg">
<path d="M10.9 5.39995C10.9 7.44506 9.24511 9.09995 7.2 9.09995C5.15489 9.09995 3.5 7.44506 3.5 5.39995C3.5 3.35484 5.15489 1.69995 7.2 1.69995C9.24511 1.69995 10.9 3.35484 10.9 5.39995ZM7.2 11.9C8.16362 11.9 9.06718 11.6744 9.88048 11.3H10.08C12.1889 11.3 13.9 13.0111 13.9 15.12V16.2C13.9 16.9176 13.3176 17.5 12.6 17.5H1.8C1.08239 17.5 0.5 16.9176 0.5 16.2V15.12C0.5 13.0111 2.21114 11.3 4.32 11.3H4.51995C5.33555 11.6741 6.23566 11.9 7.2 11.9ZM21.1 5.99995C21.1 7.71131 19.7114 9.09995 18 9.09995C16.2886 9.09995 14.9 7.71131 14.9 5.99995C14.9 4.28859 16.2886 2.89995 18 2.89995C19.7114 2.89995 21.1 4.28859 21.1 5.99995ZM18 11.6C18.6228 11.6 19.2033 11.4782 19.7399 11.3H19.8C21.8451 11.3 23.5 12.9548 23.5 15C23.5 15.7176 22.9176 16.3 22.2 16.3H16.1V15.12C16.1 13.7769 15.6479 12.5456 14.904 11.5489C15.3101 11.3899 15.7443 11.3 16.2 11.3H16.2601C16.7967 11.4782 17.3772 11.6 18 11.6Z" stroke="white"/>
</svg>
