<svg width="24" height="24" viewBox="0 0 24 24" fill="none" xmlns="http://www.w3.org/2000/svg">
<path d="M20.16 3.84007C19.8934 3.57343 19.5769 3.36191 19.2285 3.2176C18.8802 3.0733 18.5068 2.99902 18.1298 2.99902C17.7527 2.99902 17.3793 3.0733 17.031 3.2176C16.6826 3.36191 16.3661 3.57343 16.0995 3.84007L5.00701 14.9341C4.73583 15.2054 4.53146 15.5361 4.41001 15.9001L3.03901 20.0146C2.99484 20.1467 2.98833 20.2885 3.02022 20.4241C3.05211 20.5597 3.12113 20.6837 3.21956 20.7823C3.31798 20.8809 3.44191 20.9501 3.57747 20.9822C3.71302 21.0143 3.85483 21.008 3.98701 20.9641L8.10151 19.5916C8.46601 19.4716 8.79601 19.2661 9.06751 18.9946L18 10.0621L18.3945 10.4551C18.6052 10.666 18.7235 10.9519 18.7235 11.2501C18.7235 11.5482 18.6052 11.8341 18.3945 12.0451L16.719 13.7206C16.6494 13.7903 16.5942 13.8731 16.5565 13.9641C16.5189 14.0552 16.4995 14.1528 16.4996 14.2513C16.4997 14.3499 16.5191 14.4475 16.5569 14.5385C16.5947 14.6295 16.65 14.7122 16.7198 14.7818C16.7895 14.8514 16.8723 14.9067 16.9633 14.9443C17.0544 14.982 17.152 15.0013 17.2505 15.0012C17.3491 15.0012 17.4467 14.9817 17.5377 14.9439C17.6287 14.9061 17.7114 14.8508 17.781 14.7811L19.455 13.1071C19.6988 12.8633 19.8922 12.5739 20.0241 12.2554C20.156 11.9369 20.224 11.5956 20.224 11.2508C20.224 10.9061 20.156 10.5647 20.0241 10.2462C19.8922 9.92771 19.6988 9.63832 19.455 9.39457L19.0605 9.00007L20.16 7.90057C20.4267 7.63396 20.6382 7.31745 20.7825 6.9691C20.9268 6.62074 21.0011 6.24738 21.0011 5.87032C21.0011 5.49326 20.9268 5.11989 20.7825 4.77154C20.6382 4.42318 20.4267 4.10667 20.16 3.84007ZM17.493 8.44807L17.448 8.49307L8.00701 17.9326C7.90044 18.0394 7.77053 18.12 7.62751 18.1681L4.93651 19.0651L5.83351 16.3741C5.88095 16.2307 5.96105 16.1002 6.06751 15.9931L17.16 4.90207C17.2874 4.77472 17.4385 4.6737 17.6049 4.60478C17.7713 4.53586 17.9497 4.50038 18.1298 4.50038C18.3099 4.50038 18.4882 4.53586 18.6546 4.60478C18.821 4.6737 18.9722 4.77472 19.0995 4.90207C19.2269 5.02942 19.3279 5.1806 19.3968 5.34699C19.4657 5.51338 19.5012 5.69172 19.5012 5.87182C19.5012 6.05192 19.4657 6.23025 19.3968 6.39664C19.3279 6.56303 19.2269 6.71422 19.0995 6.84157L17.493 8.44807Z" fill="#2D2D2D"/>
</svg>
