<svg width="25" height="25" viewBox="0 0 25 25" fill="none" xmlns="http://www.w3.org/2000/svg">
<path d="M12.0769 0.0898438C5.46797 0.0898438 0.0897217 5.46809 0.0897217 12.077C0.0897217 18.686 5.46797 24.0642 12.0769 24.0642C18.6858 24.0642 24.0641 18.686 24.0641 12.077C24.0641 5.46809 18.6858 0.0898438 12.0769 0.0898438ZM12.0769 2.08771C17.606 2.08771 22.0662 6.54794 22.0662 12.077C22.068 14.4683 21.2103 16.7805 19.6494 18.592C18.0885 20.4036 15.9285 21.5937 13.5633 21.9455V14.9899H16.4083L16.8548 12.1H13.5633V10.5217C13.5633 9.32297 13.9579 8.25711 15.0797 8.25711H16.8828V5.73581C16.5661 5.69285 15.8958 5.59995 14.6292 5.59995C11.984 5.59995 10.4337 6.99646 10.4337 10.1791V12.1H7.71457V14.9899H10.4337V21.9205C8.1009 21.5365 5.98066 20.3357 4.45175 18.5325C2.92284 16.7292 2.08488 14.4412 2.08758 12.077C2.08758 6.54794 6.54781 2.08771 12.0769 2.08771Z" fill="#1B1464"/>
</svg>
