<svg width="20" height="22" viewBox="0 0 20 22" fill="none" xmlns="http://www.w3.org/2000/svg">
<path d="M13.5 21.8975L6.49996 19.0975L1.88229 21.1375C1.58363 21.2646 1.30635 21.2278 1.05046 21.0269C0.79457 20.826 0.666626 20.5433 0.666626 20.1789V3.8722C0.666626 3.63398 0.717182 3.41664 0.818293 3.2202C0.919404 3.02375 1.0664 2.88731 1.25929 2.81086L6.49996 0.769531L13.5 3.56953L18.1176 1.52953C18.4163 1.40242 18.6936 1.42642 18.9495 1.60153C19.2053 1.77664 19.3333 2.03798 19.3333 2.38553V18.8975C19.3333 19.1526 19.2715 19.374 19.1478 19.5615C19.0249 19.75 18.8592 19.8824 18.6508 19.9589L13.5 21.8975ZM12.9166 20.2709V4.67086L7.08329 2.3442V17.9442L12.9166 20.2709ZM14.0833 20.2709L18.1666 18.7335V2.93353L14.0833 4.6722V20.2709ZM1.83329 19.7335L5.91663 17.9442V2.3442L1.83329 3.93353V19.7335Z" fill="url(#paint0_linear_608_4138)"/>
<defs>
<linearGradient id="paint0_linear_608_4138" x1="-2.47041" y1="-2.01937" x2="39.7454" y2="11.6143" gradientUnits="userSpaceOnUse">
<stop offset="0.24" stop-color="#1B1464"/>
<stop offset="1" stop-color="#CF2E2E"/>
</linearGradient>
</defs>
</svg>
