<svg width="25" height="25" viewBox="0 0 25 25" fill="none" xmlns="http://www.w3.org/2000/svg">
<path d="M17.4744 1.1792H6.57701C3.56777 1.1792 1.1283 3.61867 1.1283 6.62792V17.5254C1.1283 20.5346 3.56777 22.9741 6.57701 22.9741H17.4744C20.4837 22.9741 22.9232 20.5346 22.9232 17.5254V6.62792C22.9232 3.61867 20.4837 1.1792 17.4744 1.1792Z" stroke="#1B1464" stroke-width="2.17949" stroke-linecap="round" stroke-linejoin="round"/>
<path d="M18.0193 6.0835H18.0302M16.3847 11.3905C16.5192 12.2975 16.3642 13.2237 15.942 14.0376C15.5197 14.8514 14.8516 15.5113 14.0326 15.9235C13.2136 16.3357 12.2855 16.4792 11.3803 16.3336C10.4751 16.1879 9.6389 15.7605 8.99059 15.1122C8.34227 14.4639 7.91489 13.6277 7.76923 12.7224C7.62357 11.8172 7.76705 10.8891 8.17926 10.0702C8.59147 9.25122 9.25141 8.58309 10.0652 8.16081C10.8791 7.73854 11.8053 7.58362 12.7122 7.71811C13.6373 7.85529 14.4938 8.28637 15.1551 8.94768C15.8164 9.60898 16.2475 10.4654 16.3847 11.3905Z" stroke="#1B1464" stroke-width="2.17949" stroke-linecap="round" stroke-linejoin="round"/>
</svg>
