<svg width="28" height="27" viewBox="0 0 28 27" fill="none" xmlns="http://www.w3.org/2000/svg">
<path fill-rule="evenodd" clip-rule="evenodd" d="M6.34604 1.3623C5.55124 1.3623 4.78899 1.67804 4.22698 2.24005C3.66498 2.80205 3.34924 3.5643 3.34924 4.3591C3.34924 5.1539 3.66498 5.91615 4.22698 6.47815C4.78899 7.04016 5.55124 7.35589 6.34604 7.35589C7.14084 7.35589 7.90308 7.04016 8.46509 6.47815C9.0271 5.91615 9.34283 5.1539 9.34283 4.3591C9.34283 3.5643 9.0271 2.80205 8.46509 2.24005C7.90308 1.67804 7.14084 1.3623 6.34604 1.3623ZM4.98386 4.3591C4.98386 3.99783 5.12737 3.65135 5.38283 3.39589C5.63829 3.14043 5.98477 2.99692 6.34604 2.99692C6.70731 2.99692 7.05379 3.14043 7.30924 3.39589C7.5647 3.65135 7.70822 3.99783 7.70822 4.3591C7.70822 4.72037 7.5647 5.06685 7.30924 5.32231C7.05379 5.57776 6.70731 5.72128 6.34604 5.72128C5.98477 5.72128 5.63829 5.57776 5.38283 5.32231C5.12737 5.06685 4.98386 4.72037 4.98386 4.3591ZM3.34924 8.71807C3.34924 8.50131 3.43535 8.29343 3.58863 8.14015C3.7419 7.98688 3.94979 7.90077 4.16655 7.90077H8.52553C8.74229 7.90077 8.95017 7.98688 9.10345 8.14015C9.25672 8.29343 9.34283 8.50131 9.34283 8.71807V22.8847C9.34283 23.1015 9.25672 23.3094 9.10345 23.4627C8.95017 23.6159 8.74229 23.702 8.52553 23.702H4.16655C3.94979 23.702 3.7419 23.6159 3.58863 23.4627C3.43535 23.3094 3.34924 23.1015 3.34924 22.8847V8.71807ZM4.98386 9.53538V22.0674H7.70822V9.53538H4.98386ZM10.9774 8.71807C10.9774 8.50131 11.0636 8.29343 11.2168 8.14015C11.3701 7.98688 11.578 7.90077 11.7948 7.90077H16.1537C16.3705 7.90077 16.5784 7.98688 16.7317 8.14015C16.8849 8.29343 16.971 8.50131 16.971 8.71807V9.19102L17.4451 8.98724C18.2624 8.63809 19.1295 8.4193 20.0147 8.33884C23.0387 8.06423 25.689 10.4399 25.689 13.4912V22.8847C25.689 23.1015 25.6029 23.3094 25.4496 23.4627C25.2963 23.6159 25.0884 23.702 24.8717 23.702H20.5127C20.2959 23.702 20.0881 23.6159 19.9348 23.4627C19.7815 23.3094 19.6954 23.1015 19.6954 22.8847V15.2565C19.6954 14.8953 19.5519 14.5488 19.2964 14.2933C19.041 14.0379 18.6945 13.8944 18.3332 13.8944C17.9719 13.8944 17.6255 14.0379 17.37 14.2933C17.1146 14.5488 16.971 14.8953 16.971 15.2565V22.8847C16.971 23.1015 16.8849 23.3094 16.7317 23.4627C16.5784 23.6159 16.3705 23.702 16.1537 23.702H11.7948C11.578 23.702 11.3701 23.6159 11.2168 23.4627C11.0636 23.3094 10.9774 23.1015 10.9774 22.8847V8.71807ZM12.6121 9.53538V22.0674H15.3364V15.2565C15.3364 14.4617 15.6522 13.6995 16.2142 13.1375C16.7762 12.5755 17.5384 12.2597 18.3332 12.2597C19.128 12.2597 19.8903 12.5755 20.4523 13.1375C21.0143 13.6995 21.33 14.4617 21.33 15.2565V22.0674H24.0544V13.4912C24.0544 11.4163 22.2443 9.7773 20.164 9.96692C19.4493 10.0318 18.7491 10.2083 18.0891 10.49L16.4763 11.182C16.3519 11.2354 16.2162 11.2571 16.0813 11.2451C15.9465 11.2331 15.8167 11.1878 15.7037 11.1133C15.5907 11.0387 15.4979 10.9373 15.4338 10.818C15.3697 10.6988 15.3363 10.5654 15.3364 10.4301V9.53538H12.6121Z" fill="#1B1464"/>
</svg>
