<svg width="20" height="20" viewBox="0 0 20 20" fill="none" xmlns="http://www.w3.org/2000/svg">
<path d="M8.33333 12.1477L12.9808 9.16683L8.33333 6.186V12.1477ZM7.5 16.6668V15.0002H3.84667C3.46278 15.0002 3.1425 14.8718 2.88583 14.6152C2.62917 14.3585 2.50056 14.0379 2.5 13.6535V4.68016C2.5 4.29627 2.62861 3.976 2.88583 3.71933C3.14306 3.46266 3.46306 3.33405 3.84583 3.3335H16.1542C16.5375 3.3335 16.8575 3.46211 17.1142 3.71933C17.3708 3.97655 17.4994 4.29683 17.5 4.68016V13.6543C17.5 14.0377 17.3714 14.3579 17.1142 14.6152C16.8569 14.8724 16.5369 15.0007 16.1542 15.0002H12.5V16.6668H7.5ZM3.84667 14.1668H16.1542C16.2819 14.1668 16.3994 14.1135 16.5067 14.0068C16.6139 13.9002 16.6672 13.7824 16.6667 13.6535V4.68016C16.6667 4.55183 16.6133 4.43405 16.5067 4.32683C16.4 4.21961 16.2825 4.16627 16.1542 4.16683H3.84583C3.71806 4.16683 3.60056 4.22016 3.49333 4.32683C3.38611 4.4335 3.33278 4.55127 3.33333 4.68016V13.6543C3.33333 13.7821 3.38667 13.8996 3.49333 14.0068C3.6 14.1141 3.7175 14.1674 3.84583 14.1668" fill="url(#paint0_linear_530_5253)"/>
<defs>
<linearGradient id="paint0_linear_530_5253" x1="-0.0208333" y1="1.5735" x2="32.022" y2="14.7504" gradientUnits="userSpaceOnUse">
<stop offset="0.24" stop-color="#1B1464"/>
<stop offset="1" stop-color="#CF2E2E"/>
</linearGradient>
</defs>
</svg>
