<svg width="24" height="24" viewBox="0 0 24 24" fill="none" xmlns="http://www.w3.org/2000/svg">
<g clip-path="url(#clip0_392_805)">
<path d="M12.0575 13.6543C11.7135 13.6569 11.3803 13.7746 11.111 13.9887C10.8418 14.2027 10.6519 14.5008 10.5718 14.8353C10.4916 15.1698 10.5258 15.5215 10.6689 15.8343C10.812 16.1472 11.0556 16.4031 11.3611 16.5612V18.3885H12.6389V16.6187C12.9688 16.4836 13.2415 16.2381 13.4106 15.9242C13.5796 15.6103 13.6346 15.2475 13.5659 14.8977C13.4973 14.5478 13.3094 14.2327 13.0343 14.0059C12.7593 13.7791 12.414 13.6549 12.0575 13.6543Z" fill="#1B1464"/>
<path d="M17.1111 10.0834V7.34892C17.1385 5.96374 16.6161 4.62409 15.6582 3.62311C14.7004 2.62213 13.385 2.04133 11.9999 2.00781C10.6149 2.04133 9.29952 2.62213 8.34164 3.62311C7.38377 4.62409 6.8614 5.96374 6.88883 7.34892V10.0834H4.97217V20.9445C4.97217 21.2834 5.10679 21.6084 5.34642 21.848C5.58605 22.0876 5.91106 22.2223 6.24995 22.2223H17.7499C18.0888 22.2223 18.4138 22.0876 18.6535 21.848C18.8931 21.6084 19.0277 21.2834 19.0277 20.9445V10.0834H17.1111ZM8.16661 7.34892C8.13907 6.30258 8.52679 5.28786 9.24506 4.52649C9.96334 3.76512 10.9538 3.31899 11.9999 3.28559C13.0461 3.31899 14.0366 3.76512 14.7548 4.52649C15.4731 5.28786 15.8608 6.30258 15.8333 7.34892V10.0834H8.16661V7.34892ZM6.24995 20.9445V11.3611H17.7499V20.9445H6.24995Z" fill="#1B1464"/>
</g>
<defs>
<clipPath id="clip0_392_805">
<rect width="23" height="23" fill="white" transform="translate(0.5 0.5)"/>
</clipPath>
</defs>
</svg>
