<svg width="48" height="48" viewBox="0 0 48 48" fill="none" xmlns="http://www.w3.org/2000/svg">
<g clip-path="url(#clip0_245_2025)">
<path d="M17.158 23.491C17.085 24.887 17.169 26.373 15.922 27.308C15.6353 27.5225 15.4027 27.801 15.2426 28.1213C15.0825 28.4416 14.9995 28.7949 15 29.153C15 30.15 15.782 31 16.8 31H31.2C32.218 31 33 30.15 33 29.153C33 28.427 32.658 27.743 32.078 27.308C30.831 26.373 30.915 24.887 30.842 23.491C30.752 21.7371 29.9919 20.0847 28.7186 18.8751C27.4454 17.6655 25.7562 16.991 24 16.991C22.2438 16.991 20.5546 17.6655 19.2814 18.8751C18.0081 20.0847 17.248 21.7371 17.158 23.491Z" stroke="white" stroke-width="1.5" stroke-linecap="round" stroke-linejoin="round"/>
<path d="M27 31C27 31.7956 26.6839 32.5587 26.1213 33.1213C25.5587 33.6839 24.7956 34 24 34C23.2044 34 22.4413 33.6839 21.8787 33.1213C21.3161 32.5587 21 31.7956 21 31M22.5 15.125C22.5 15.953 23.172 17 24 17C24.828 17 25.5 15.953 25.5 15.125C25.5 14.297 24.828 14 24 14C23.172 14 22.5 14.297 22.5 15.125Z" stroke="white" stroke-width="1.5" stroke-linecap="round" stroke-linejoin="round"/>
</g>
<defs>
<clipPath id="clip0_245_2025">
<rect x="4" y="4" width="40" height="40" rx="20" fill="white"/>
</clipPath>
</defs>
</svg>
