<svg width="24" height="24" viewBox="0 0 24 24" fill="none" xmlns="http://www.w3.org/2000/svg">
<path d="M7.70996 3.95996L5.24996 6.42221L4.28996 5.46221L3.20996 6.53996L4.70996 8.03996L5.24996 8.55446L5.78996 8.03921L8.78996 5.03921L7.70996 3.95996ZM11.25 5.24996V6.74996H21V5.24996H11.25ZM7.70996 9.95996L5.24996 12.423L4.28996 11.46L3.20996 12.54L4.70996 14.04L5.24996 14.5545L5.78996 14.0392L8.78996 11.0392L7.70996 9.95996ZM11.25 11.25V12.75H21V11.25H11.25ZM7.70996 15.96L5.24996 18.4222L4.28996 17.4622L3.20996 18.54L4.70996 20.04L5.24996 20.5545L5.78996 20.0392L8.78996 17.0392L7.70996 15.9592V15.96ZM11.25 17.25V18.75H21V17.25H11.25Z" fill="url(#paint0_linear_530_5237)"/>
<defs>
<linearGradient id="paint0_linear_530_5237" x1="0.220253" y1="1.76949" x2="38.7352" y2="16.8623" gradientUnits="userSpaceOnUse">
<stop offset="0.24" stop-color="#1B1464"/>
<stop offset="1" stop-color="#CF2E2E"/>
</linearGradient>
</defs>
</svg>
