<svg width="40" height="58" viewBox="0 0 40 58" fill="none" xmlns="http://www.w3.org/2000/svg">
<g clip-path="url(#clip0_245_2187)">
<path d="M37.7393 25.1643L6.35825 5.19736C5.70015 4.78003 4.94738 4.5518 4.17678 4.53598C3.40618 4.52015 2.64534 4.7173 1.97192 5.10729C1.29849 5.49728 0.736601 6.06615 0.343591 6.75584C-0.0494197 7.44552 -0.259475 8.23133 -0.265137 9.03306V48.967C-0.259475 49.7687 -0.0494197 50.5545 0.343591 51.2442C0.736601 51.9339 1.29849 52.5028 1.97192 52.8927C2.64534 53.2827 3.40618 53.4799 4.17678 53.4641C4.94738 53.4482 5.70015 53.22 6.35825 52.8027L37.7393 32.8357C38.3721 32.435 38.8951 31.8717 39.258 31.2C39.6209 30.5282 39.8116 29.7706 39.8116 29C39.8116 28.2294 39.6209 27.4718 39.258 26.8001C38.8951 26.1283 38.3721 25.565 37.7393 25.1643ZM4.96214 47.3176V10.6824L33.747 29L4.96214 47.3176Z" fill="white"/>
</g>
<defs>
<clipPath id="clip0_245_2187">
<rect width="40" height="58" fill="white"/>
</clipPath>
</defs>
</svg>
