<svg width="48" height="48" viewBox="0 0 48 48" fill="none" xmlns="http://www.w3.org/2000/svg">
<g clip-path="url(#clip0_245_2017)">
<path fill-rule="evenodd" clip-rule="evenodd" d="M28 21C28 22.0609 27.5786 23.0783 26.8284 23.8284C26.0783 24.5786 25.0609 25 24 25C22.9391 25 21.9217 24.5786 21.1716 23.8284C20.4214 23.0783 20 22.0609 20 21C20 19.9391 20.4214 18.9217 21.1716 18.1716C21.9217 17.4214 22.9391 17 24 17C25.0609 17 26.0783 17.4214 26.8284 18.1716C27.5786 18.9217 28 19.9391 28 21ZM26 21C26 21.5304 25.7893 22.0391 25.4142 22.4142C25.0391 22.7893 24.5304 23 24 23C23.4696 23 22.9609 22.7893 22.5858 22.4142C22.2107 22.0391 22 21.5304 22 21C22 20.4696 22.2107 19.9609 22.5858 19.5858C22.9609 19.2107 23.4696 19 24 19C24.5304 19 25.0391 19.2107 25.4142 19.5858C25.7893 19.9609 26 20.4696 26 21Z" fill="white"/>
<path fill-rule="evenodd" clip-rule="evenodd" d="M24 13C17.925 13 13 17.925 13 24C13 30.075 17.925 35 24 35C30.075 35 35 30.075 35 24C35 17.925 30.075 13 24 13ZM15 24C15 26.09 15.713 28.014 16.908 29.542C17.7474 28.4401 18.8302 27.5471 20.0716 26.9327C21.3131 26.3183 22.6798 25.9991 24.065 26C25.4324 25.9984 26.7821 26.3091 28.0111 26.9084C29.2402 27.5077 30.3162 28.3797 31.157 29.458C32.0234 28.3216 32.6068 26.9952 32.8589 25.5886C33.111 24.182 33.0244 22.7355 32.6065 21.369C32.1886 20.0024 31.4512 18.755 30.4555 17.73C29.4598 16.705 28.2343 15.9319 26.8804 15.4745C25.5265 15.0172 24.0832 14.8888 22.6699 15.1C21.2565 15.3112 19.9138 15.8559 18.7528 16.6891C17.5917 17.5222 16.6458 18.6199 15.9932 19.8912C15.3406 21.1625 15.0002 22.571 15 24ZM24 33C21.9339 33.0033 19.9301 32.2926 18.328 30.988C18.9728 30.0646 19.8312 29.3107 20.8301 28.7905C21.829 28.2702 22.9388 27.999 24.065 28C25.1772 27.999 26.2735 28.2635 27.263 28.7713C28.2524 29.2792 29.1064 30.0158 29.754 30.92C28.1395 32.267 26.1026 33.0033 24 33Z" fill="white"/>
</g>
<defs>
<clipPath id="clip0_245_2017">
<rect x="4" y="4" width="40" height="40" rx="20" fill="white"/>
</clipPath>
</defs>
</svg>
