<svg width="165" height="164" viewBox="0 0 165 164" fill="none" xmlns="http://www.w3.org/2000/svg">
<path d="M61.9743 36.7863V61.2962H37.4644V36.7863H61.9743ZM74.2292 24.5314H25.2095V73.5512H74.2292V24.5314ZM61.9743 102.146V126.656H37.4644V102.146H61.9743ZM74.2292 89.8911H25.2095V138.911H74.2292V89.8911ZM127.334 36.7863V61.2962H102.824V36.7863H127.334ZM139.589 24.5314H90.5692V73.5512H139.589V24.5314ZM90.5692 89.8911H102.824V102.146H90.5692V89.8911ZM102.824 102.146H115.079V114.401H102.824V102.146ZM115.079 89.8911H127.334V102.146H115.079V89.8911ZM90.5692 114.401H102.824V126.656H90.5692V114.401ZM102.824 126.656H115.079V138.911H102.824V126.656ZM115.079 114.401H127.334V126.656H115.079V114.401ZM127.334 102.146H139.589V114.401H127.334V102.146ZM127.334 126.656H139.589V138.911H127.334V126.656ZM164.099 40.8713H147.759V16.3614H123.249V0.0214844H164.099V40.8713ZM164.099 163.421V122.571H147.759V147.081H123.249V163.421H164.099ZM0.699577 163.421H41.5494V147.081H17.0395V122.571H0.699577V163.421ZM0.699577 0.0214844V40.8713H17.0395V16.3614H41.5494V0.0214844H0.699577Z" fill="#595959"/>
</svg>
