<svg width="23" height="23" viewBox="0 0 23 23" fill="none" xmlns="http://www.w3.org/2000/svg">
<path fill-rule="evenodd" clip-rule="evenodd" d="M17.9687 10.3021V7.66667H19.4062V10.3021H22.0417V11.7396H19.4062V14.375H17.9687V11.7396H15.3333V10.3021H17.9687ZM7.50566 11.8354C6.80033 10.9998 6.22916 9.43958 6.22916 8.34708V6.70833C6.22916 5.69167 6.63303 4.71665 7.35192 3.99776C8.07081 3.27887 9.04583 2.875 10.0625 2.875C11.0792 2.875 12.0542 3.27887 12.7731 3.99776C13.492 4.71665 13.8958 5.69167 13.8958 6.70833V8.34708C13.8958 9.43958 13.3208 11.0045 12.6193 11.8373L12.2734 12.2475C11.708 12.9174 11.8843 13.7693 12.6749 14.1546L18.0991 16.8015C18.6885 17.089 19.1667 17.849 19.1667 18.5102V19.1686C19.1662 19.4226 19.0648 19.666 18.885 19.8453C18.7051 20.0247 18.4614 20.1253 18.2074 20.125H1.91666C1.66283 20.125 1.41936 20.0243 1.23969 19.845C1.06003 19.6657 0.958836 19.4224 0.958328 19.1686V18.5102C0.958328 17.8538 1.43558 17.089 2.02591 16.8005L7.45008 14.1536C8.23687 13.7703 8.41991 12.9193 7.85258 12.2465L7.50566 11.8354Z" fill="white"/>
</svg>
