<svg width="16" height="15" viewBox="0 0 16 15" fill="none" xmlns="http://www.w3.org/2000/svg">
<path d="M7.81845 5.4227C8.3612 5.423 8.88726 5.23509 9.30699 4.89099C9.72672 4.54688 10.0141 4.06788 10.1203 3.53561C10.2264 3.00334 10.1447 2.45074 9.88904 1.97196C9.63339 1.49319 9.21964 1.11788 8.71828 0.909991C8.21693 0.702099 7.65899 0.674488 7.13956 0.831864C6.62013 0.98924 6.17134 1.32186 5.86967 1.77305C5.568 2.22424 5.43212 2.76608 5.48518 3.30623C5.53825 3.84638 5.77697 4.35142 6.16067 4.73528C6.37804 4.95349 6.63641 5.12656 6.92092 5.24454C7.20542 5.36251 7.51045 5.42306 7.81845 5.4227ZM9.99377 5.25281C9.49036 5.7561 8.82803 6.06927 8.11962 6.13897C7.4112 6.20867 6.70053 6.03059 6.10869 5.63506C5.51686 5.23954 5.08047 4.65104 4.87388 3.96984C4.66729 3.28864 4.70329 2.55688 4.97574 1.89925C5.24818 1.24161 5.74022 0.698784 6.36802 0.363254C6.99582 0.0277246 7.72054 -0.0797494 8.41869 0.0591445C9.11685 0.198038 9.74525 0.574707 10.1968 1.12497C10.6484 1.67524 10.8952 2.36505 10.8952 3.07689C10.8958 3.92694 10.5512 4.69598 9.99377 5.25281Z" fill="black"/>
<path d="M10.0308 6.77027C9.4045 7.2437 8.64038 7.4989 7.85532 7.49683C7.07026 7.49475 6.3075 7.23551 5.68376 6.75878C5.15916 6.95437 4.70201 7.29692 4.36696 7.74547C4.00481 8.23035 3.79381 8.82769 3.79381 9.46372V10.6094H7.11966V11.341H3.06226V9.46311C3.06226 8.66445 3.32707 7.91536 3.78172 7.30715C4.24955 6.68168 4.9056 6.2227 5.65353 5.9976L5.84397 5.94017L5.99512 6.07015C6.51393 6.51753 7.17591 6.76415 7.86097 6.76526C8.54603 6.76637 9.20881 6.5219 9.72906 6.0762L9.88988 5.93835L10.0888 6.0103C10.9074 6.30534 11.5072 6.73158 11.9165 7.30654C12.324 7.87909 12.5331 8.58646 12.5724 9.44739V9.46311L12.5737 10.9746V11.3404H8.55495V10.6088H11.8445L11.8439 9.47883C11.8113 8.76118 11.645 8.18259 11.3222 7.72915C11.0313 7.32286 10.6063 7.00666 10.0308 6.77027Z" fill="black"/>
<path d="M14.9043 12.5202H0.731553V14.2687H14.9043V12.5202ZM0.365777 11.7881H15.6365V14.9997H0V11.7881H0.365777Z" fill="black"/>
<path fill-rule="evenodd" clip-rule="evenodd" d="M7.57498 9.72134C7.43592 9.63609 7.34161 9.4922 7.32831 9.32533L7.27147 8.62945C7.2485 8.34469 7.46131 8.09197 7.74668 8.06899C7.88417 8.05817 8.02036 8.1022 8.12548 8.19147C8.23061 8.28074 8.29614 8.40798 8.30774 8.54541L8.36397 9.24129C8.38029 9.44141 8.27751 9.62702 8.10883 9.72557L8.08525 11.7975H7.54777L7.57498 9.72134Z" fill="black"/>
</svg>
