<svg width="20" height="19" viewBox="0 0 20 19" fill="none" xmlns="http://www.w3.org/2000/svg">
<path d="M9.90372 6.8689C10.5912 6.86929 11.2576 6.63126 11.7892 6.19539C12.3209 5.75951 12.685 5.15277 12.8194 4.47854C12.9539 3.80432 12.8504 3.10433 12.5265 2.49788C12.2027 1.89142 11.6786 1.41602 11.0435 1.15268C10.4085 0.889345 9.70174 0.85437 9.04377 1.05372C8.38581 1.25306 7.81733 1.6744 7.43521 2.24592C7.05309 2.81744 6.88097 3.50378 6.94818 4.18799C7.01539 4.87219 7.31778 5.51192 7.80382 5.99816C8.07915 6.27456 8.40643 6.49379 8.76682 6.64323C9.1272 6.79267 9.51358 6.86936 9.90372 6.8689ZM12.6592 6.65371C12.0215 7.29122 11.1825 7.68791 10.2852 7.77621C9.38785 7.8645 8.48765 7.63892 7.73798 7.13791C6.9883 6.6369 6.43553 5.89145 6.17385 5.02858C5.91216 4.1657 5.95776 3.23879 6.30287 2.40577C6.64797 1.57274 7.27124 0.885146 8.06647 0.460133C8.8617 0.0351186 9.77969 -0.101018 10.664 0.0749181C11.5484 0.250854 12.3444 0.727978 12.9164 1.425C13.4884 2.12201 13.801 2.9958 13.801 3.89748C13.8018 4.97424 13.3653 5.94838 12.6592 6.65371Z" fill="url(#paint0_linear_530_5241)"/>
<path d="M12.7059 8.57624C11.9126 9.17593 10.9447 9.4992 9.95026 9.49657C8.95582 9.49394 7.98964 9.16557 7.19955 8.56169C6.53505 8.80944 5.95597 9.24335 5.53157 9.81153C5.07284 10.4257 4.80556 11.1824 4.80556 11.988V13.4393H9.01839V14.3659H3.87891V11.9873C3.87891 10.9756 4.21434 10.0267 4.79024 9.2563C5.38284 8.46403 6.21386 7.88264 7.16126 7.59751L7.40249 7.52476L7.59395 7.68941C8.25112 8.25611 9.08965 8.56849 9.95741 8.56989C10.8252 8.5713 11.6647 8.26163 12.3237 7.69707L12.5274 7.52246L12.7794 7.61359C13.8163 7.98732 14.576 8.52723 15.0945 9.25553C15.6107 9.98078 15.8756 10.8768 15.9254 11.9673V11.9873L15.927 13.9018V14.3652H10.8365V13.4385H15.0034L15.0026 12.0072C14.9612 11.0981 14.7506 10.3652 14.3417 9.79085C13.9733 9.27621 13.4349 8.87568 12.7059 8.57624Z" fill="url(#paint1_linear_530_5241)"/>
<path d="M18.8793 15.8596H0.926655V18.0743H18.8793V15.8596ZM0.463327 14.9321H19.8067V19.0002H0V14.9321H0.463327Z" fill="url(#paint2_linear_530_5241)"/>
<path fill-rule="evenodd" clip-rule="evenodd" d="M9.59497 12.3138C9.41883 12.2058 9.29936 12.0236 9.28251 11.8122L9.21053 10.9307C9.18142 10.57 9.451 10.2499 9.81247 10.2208C9.98663 10.2071 10.1591 10.2629 10.2923 10.3759C10.4255 10.489 10.5085 10.6502 10.5232 10.8243L10.5944 11.7057C10.6151 11.9592 10.4849 12.1943 10.2712 12.3192L10.2413 14.9437H9.56051L9.59497 12.3138Z" fill="url(#paint3_linear_530_5241)"/>
<defs>
<linearGradient id="paint0_linear_530_5241" x1="4.69612" y1="-1.02893" x2="21.8689" y2="5.24831" gradientUnits="userSpaceOnUse">
<stop offset="0.24" stop-color="#1B1464"/>
<stop offset="1" stop-color="#CF2E2E"/>
</linearGradient>
<linearGradient id="paint1_linear_530_5241" x1="1.85417" y1="6.61912" x2="23.1317" y2="20.3119" gradientUnits="userSpaceOnUse">
<stop offset="0.24" stop-color="#1B1464"/>
<stop offset="1" stop-color="#CF2E2E"/>
</linearGradient>
<linearGradient id="paint2_linear_530_5241" x1="-3.32862" y1="14.3951" x2="8.54119" y2="35.52" gradientUnits="userSpaceOnUse">
<stop offset="0.24" stop-color="#1B1464"/>
<stop offset="1" stop-color="#CF2E2E"/>
</linearGradient>
<linearGradient id="paint3_linear_530_5241" x1="8.97509" y1="9.59506" x2="12.4024" y2="9.96313" gradientUnits="userSpaceOnUse">
<stop offset="0.24" stop-color="#1B1464"/>
<stop offset="1" stop-color="#CF2E2E"/>
</linearGradient>
</defs>
</svg>
