<svg width="14" height="14" viewBox="0 0 14 14" fill="none" xmlns="http://www.w3.org/2000/svg">
<path fill-rule="evenodd" clip-rule="evenodd" d="M1.68041 0.25C1.53866 0.25 1.41229 0.34825 1.36354 0.496L0.498037 3.12512C0.470709 3.20827 0.456785 3.29523 0.456787 3.38275V4.42863C0.456787 5.02 0.888412 5.5 1.42091 5.5C1.95341 5.5 2.38541 5.02 2.38541 4.42863C2.38541 5.02037 2.81704 5.5 3.34954 5.5C3.88204 5.5 4.31404 5.02 4.31404 4.42863C4.31404 5.02037 4.74566 5.5 5.27816 5.5C5.81066 5.5 6.24191 5.02075 6.24266 4.42938C6.24266 5.02075 6.67429 5.5 7.20679 5.5C7.73929 5.5 8.17091 5.02 8.17091 4.42863C8.17091 5.02037 8.60291 5.5 9.13541 5.5C9.66791 5.5 10.0992 5.02075 10.0995 4.42938C10.0999 5.02075 10.5315 5.5 11.064 5.5C11.5965 5.5 12.0282 5.02 12.0282 4.42863C12.0282 5.02037 12.4598 5.5 12.9927 5.5C13.5252 5.5 13.9568 5.02 13.9568 4.42863V3.38275C13.9568 3.29523 13.9429 3.20827 13.9155 3.12512L13.05 0.496375C13.0013 0.34825 12.8749 0.25 12.7332 0.25H1.68041Z" fill="white"/>
<path fill-rule="evenodd" clip-rule="evenodd" d="M1.95679 5.96125V8.875H1.01929C0.969559 8.875 0.921868 8.89475 0.886705 8.92992C0.851542 8.96508 0.831787 9.01277 0.831787 9.0625V9.4375C0.831787 9.48723 0.851542 9.53492 0.886705 9.57008C0.921868 9.60525 0.969559 9.625 1.01929 9.625H13.3943C13.444 9.625 13.4917 9.60525 13.5269 9.57008C13.562 9.53492 13.5818 9.48723 13.5818 9.4375V9.0625C13.5818 9.01277 13.562 8.96508 13.5269 8.92992C13.4917 8.89475 13.444 8.875 13.3943 8.875H12.4568V5.96125C12.2998 5.8988 12.1547 5.8096 12.0282 5.69763C11.9308 5.78321 11.8228 5.85581 11.7068 5.91363V8.875H2.70679V5.91363C2.59078 5.85581 2.48275 5.78321 2.38541 5.69763C2.25941 5.80825 2.11541 5.89825 1.95679 5.96125ZM11.7068 5.22738C11.7385 5.19563 11.7685 5.1615 11.7968 5.125H11.7068V5.22738ZM12.2595 5.125C12.3164 5.1983 12.3827 5.26375 12.4568 5.31962V5.125H12.2595ZM1.95679 5.31962C2.03147 5.26447 2.09789 5.19894 2.15404 5.125H1.95679V5.31962ZM2.61679 5.125H2.70679V5.22738C2.67475 5.1951 2.64469 5.16091 2.61679 5.125ZM1.39429 10.375C1.34456 10.375 1.29687 10.3948 1.2617 10.4299C1.22654 10.4651 1.20679 10.5128 1.20679 10.5625V13.375C1.20679 13.4745 1.2463 13.5698 1.31662 13.6402C1.38695 13.7105 1.48233 13.75 1.58179 13.75H12.8318C12.9312 13.75 13.0266 13.7105 13.097 13.6402C13.1673 13.5698 13.2068 13.4745 13.2068 13.375V10.5625C13.2068 10.5128 13.187 10.4651 13.1519 10.4299C13.1167 10.3948 13.069 10.375 13.0193 10.375H1.39429Z" fill="white"/>
<path d="M3.45679 7.9375C3.45679 7.88777 3.47654 7.84008 3.5117 7.80492C3.54687 7.76975 3.59456 7.75 3.64429 7.75H4.76929C4.81902 7.75 4.86671 7.76975 4.90187 7.80492C4.93703 7.84008 4.95679 7.88777 4.95679 7.9375V8.6875C4.95679 8.73723 4.93703 8.78492 4.90187 8.82008C4.86671 8.85525 4.81902 8.875 4.76929 8.875H3.64429C3.59456 8.875 3.54687 8.85525 3.5117 8.82008C3.47654 8.78492 3.45679 8.73723 3.45679 8.6875V7.9375Z" fill="white"/>
<path d="M4.20679 8.3125C4.20679 8.26277 4.22654 8.21508 4.2617 8.17992C4.29687 8.14475 4.34456 8.125 4.39429 8.125H5.51929C5.56902 8.125 5.61671 8.14475 5.65187 8.17992C5.68703 8.21508 5.70679 8.26277 5.70679 8.3125V8.6875C5.70679 8.73723 5.68703 8.78492 5.65187 8.82008C5.61671 8.85525 5.56902 8.875 5.51929 8.875H4.39429C4.34456 8.875 4.29687 8.85525 4.2617 8.82008C4.22654 8.78492 4.20679 8.73723 4.20679 8.6875V8.3125ZM7.20679 8.3125C7.20679 8.46168 7.14752 8.60476 7.04203 8.71025C6.93655 8.81574 6.79347 8.875 6.64429 8.875C6.4951 8.875 6.35203 8.81574 6.24654 8.71025C6.14105 8.60476 6.08179 8.46168 6.08179 8.3125C6.08179 8.16332 6.14105 8.02024 6.24654 7.91475C6.35203 7.80926 6.4951 7.75 6.64429 7.75C6.79347 7.75 6.93655 7.80926 7.04203 7.91475C7.14752 8.02024 7.20679 8.16332 7.20679 8.3125Z" fill="white"/>
</svg>
