<svg width="17" height="21" viewBox="0 0 17 21" fill="none" xmlns="http://www.w3.org/2000/svg">
<path d="M5.11821 -8.39732e-05C4.93109 0.0355049 4.76257 0.136078 4.64242 0.283871C4.52226 0.431663 4.4582 0.617165 4.46156 0.807608V1.6153H1.55871C0.912557 1.6153 0.423096 2.10476 0.423096 2.75092V19.7884C0.423096 20.5153 0.912557 20.9999 1.55871 20.9999H15.3654C16.0116 20.9999 16.501 20.5105 16.501 19.8643V2.75092C16.5818 2.10476 16.0875 1.6153 15.4413 1.6153H12.5385V0.807608C12.5385 0.593395 12.4534 0.387955 12.3019 0.236484C12.1504 0.0850119 11.945 -8.39732e-05 11.7308 -8.39732e-05H5.26925C5.24396 -0.00127409 5.21862 -0.00127409 5.19333 -8.39732e-05C5.16803 -0.00127409 5.1435 -0.00127409 5.11821 -8.39732e-05ZM6.07694 1.6153H10.9231V3.23069H6.07694V1.6153ZM2.03848 3.23069H4.46156V4.03838C4.46156 4.25259 4.54665 4.45803 4.69812 4.6095C4.8496 4.76097 5.05504 4.84607 5.26925 4.84607H11.7308C11.945 4.84607 12.1504 4.76097 12.3019 4.6095C12.4534 4.45803 12.5385 4.25259 12.5385 4.03838V3.23069H14.9616V19.3845H2.03848V3.23069ZM3.65386 7.26915V10.4999H6.88463V7.26915H3.65386ZM4.46156 8.07684H6.07694V9.69222H4.46156V8.07684ZM8.50002 8.07684V9.69222H13.3462V8.07684H8.50002ZM3.65386 12.1153V15.3461H6.88463V12.1153H3.65386ZM8.50002 12.923V14.5384H13.3462V12.923H8.50002Z" fill="url(#paint0_linear_530_5585)"/>
<defs>
<linearGradient id="paint0_linear_530_5585" x1="-2.28034" y1="-2.77309" x2="34.9741" y2="7.65808" gradientUnits="userSpaceOnUse">
<stop offset="0.24" stop-color="#1B1464"/>
<stop offset="1" stop-color="#CF2E2E"/>
</linearGradient>
</defs>
</svg>
