<svg width="24" height="24" viewBox="0 0 24 24" fill="none" xmlns="http://www.w3.org/2000/svg">
<path d="M21.75 10.125C22.0484 10.125 22.3345 10.0065 22.5455 9.7955C22.7565 9.58452 22.875 9.29837 22.875 9V6C22.875 5.50272 22.6775 5.02581 22.3258 4.67417C21.9742 4.32254 21.4973 4.125 21 4.125H3C2.50272 4.125 2.02581 4.32254 1.67417 4.67417C1.32254 5.02581 1.125 5.50272 1.125 6V9C1.125 9.29837 1.24353 9.58452 1.4545 9.7955C1.66548 10.0065 1.95163 10.125 2.25 10.125C2.74728 10.125 3.22419 10.3225 3.57583 10.6742C3.92746 11.0258 4.125 11.5027 4.125 12C4.125 12.4973 3.92746 12.9742 3.57583 13.3258C3.22419 13.6775 2.74728 13.875 2.25 13.875C1.95163 13.875 1.66548 13.9935 1.4545 14.2045C1.24353 14.4155 1.125 14.7016 1.125 15V18C1.125 18.4973 1.32254 18.9742 1.67417 19.3258C2.02581 19.6775 2.50272 19.875 3 19.875H21C21.4973 19.875 21.9742 19.6775 22.3258 19.3258C22.6775 18.9742 22.875 18.4973 22.875 18V15C22.875 14.7016 22.7565 14.4155 22.5455 14.2045C22.3345 13.9935 22.0484 13.875 21.75 13.875C21.2527 13.875 20.7758 13.6775 20.4242 13.3258C20.0725 12.9742 19.875 12.4973 19.875 12C19.875 11.5027 20.0725 11.0258 20.4242 10.6742C20.7758 10.3225 21.2527 10.125 21.75 10.125ZM3.375 15.9694C4.23945 15.7249 5.00047 15.205 5.54243 14.4886C6.08438 13.7721 6.37764 12.8983 6.37764 12C6.37764 11.1017 6.08438 10.2279 5.54243 9.51144C5.00047 8.79499 4.23945 8.27505 3.375 8.03063V6.375H8.25V17.625H3.375V15.9694ZM20.625 15.9694V17.625H10.5V6.375H20.625V8.03063C19.7606 8.27505 18.9995 8.79499 18.4576 9.51144C17.9156 10.2279 17.6224 11.1017 17.6224 12C17.6224 12.8983 17.9156 13.7721 18.4576 14.4886C18.9995 15.205 19.7606 15.7249 20.625 15.9694Z" fill="#1B1464"/>
</svg>
