<svg width="24" height="24" viewBox="0 0 24 24" fill="none" xmlns="http://www.w3.org/2000/svg">
<path d="M12.0011 2C17.5241 2 22.0011 6.477 22.0011 12C22.0011 17.523 17.5241 22 12.0011 22C10.2339 22.003 8.4977 21.5353 6.97111 20.645L2.00511 22L3.35711 17.032C2.46607 15.5049 1.99802 13.768 2.00111 12C2.00111 6.477 6.47812 2 12.0011 2ZM8.59311 7.3L8.39311 7.308C8.2638 7.31691 8.13746 7.35087 8.02111 7.408C7.91269 7.46951 7.81368 7.5463 7.72711 7.636C7.60711 7.749 7.53911 7.847 7.46611 7.942C7.09624 8.4229 6.89709 9.01331 6.90011 9.62C6.90211 10.11 7.03011 10.587 7.23011 11.033C7.63911 11.935 8.31211 12.89 9.20011 13.775C9.41411 13.988 9.62411 14.202 9.85011 14.401C10.9535 15.3724 12.2684 16.073 13.6901 16.447L14.2581 16.534C14.4431 16.544 14.6281 16.53 14.8141 16.521C15.1053 16.5056 15.3896 16.4268 15.6471 16.29C15.778 16.2223 15.9058 16.1489 16.0301 16.07C16.0301 16.07 16.0724 16.0413 16.1551 15.98C16.2901 15.88 16.3731 15.809 16.4851 15.692C16.5691 15.6053 16.6391 15.5047 16.6951 15.39C16.7731 15.227 16.8511 14.916 16.8831 14.657C16.9071 14.459 16.9001 14.351 16.8971 14.284C16.8931 14.177 16.8041 14.066 16.7071 14.019L16.1251 13.758C16.1251 13.758 15.2551 13.379 14.7231 13.137C14.6674 13.1128 14.6078 13.0989 14.5471 13.096C14.4787 13.0888 14.4095 13.0965 14.3443 13.1184C14.2791 13.1403 14.2193 13.176 14.1691 13.223C14.1641 13.221 14.0971 13.278 13.3741 14.154C13.3326 14.2098 13.2755 14.2519 13.2099 14.2751C13.1444 14.2982 13.0734 14.3013 13.0061 14.284C12.9409 14.2666 12.8771 14.2446 12.8151 14.218C12.6911 14.166 12.6481 14.146 12.5631 14.11C11.989 13.8599 11.4576 13.5215 10.9881 13.107C10.8621 12.997 10.7451 12.877 10.6251 12.761C10.2317 12.3842 9.88886 11.958 9.60511 11.493L9.54611 11.398C9.50438 11.3338 9.47015 11.265 9.44411 11.193C9.40611 11.046 9.50511 10.928 9.50511 10.928C9.50511 10.928 9.74811 10.662 9.86111 10.518C9.97111 10.378 10.0641 10.242 10.1241 10.145C10.2421 9.955 10.2791 9.76 10.2171 9.609C9.93711 8.925 9.64778 8.24467 9.34911 7.568C9.29011 7.434 9.11511 7.338 8.95611 7.319C8.90211 7.31233 8.84811 7.307 8.79411 7.303C8.65984 7.2953 8.52521 7.29664 8.39111 7.307L8.59311 7.3Z" fill="white"/>
</svg>
