<svg width="21" height="21" viewBox="0 0 21 21" fill="none" xmlns="http://www.w3.org/2000/svg">
<g clip-path="url(#clip0_530_5441)">
<path d="M10.4998 4.04248H4.04234C3.81163 4.04248 3.59839 3.91944 3.48301 3.71965C3.36763 3.51986 3.36765 3.2736 3.48301 3.07382C3.59837 2.87403 3.81161 2.75098 4.04234 2.75098H10.4998C10.7306 2.75098 10.9436 2.87402 11.059 3.07382C11.1744 3.27361 11.1744 3.51986 11.059 3.71965C10.9436 3.91943 10.7306 4.04248 10.4998 4.04248Z" fill="url(#paint0_linear_530_5441)"/>
<path d="M10.4998 6.62598H4.04233C3.81162 6.62598 3.59838 6.50294 3.483 6.30314C3.36765 6.10319 3.36765 5.8571 3.483 5.65731C3.59836 5.45752 3.81161 5.33447 4.04233 5.33447H10.4998C10.7305 5.33447 10.9436 5.45752 11.059 5.65731C11.1744 5.8571 11.1744 6.10319 11.059 6.30314C10.9436 6.50294 10.7306 6.62598 10.4998 6.62598Z" fill="url(#paint1_linear_530_5441)"/>
<path d="M10.4998 9.2085H4.04233C3.81162 9.2085 3.59838 9.08529 3.483 8.8855C3.36765 8.68571 3.36765 8.43962 3.483 8.23983C3.59836 8.04004 3.81161 7.91699 4.04233 7.91699H10.4998C10.7305 7.91699 10.9436 8.04004 11.059 8.23983C11.1744 8.43962 11.1744 8.68571 11.059 8.8855C10.9436 9.08529 10.7306 9.2085 10.4998 9.2085Z" fill="url(#paint2_linear_530_5441)"/>
<mask id="mask0_530_5441" style="mask-type:luminance" maskUnits="userSpaceOnUse" x="0" y="0" width="15" height="15">
<path d="M0.167725 0.167969H14.3965V14.3967H0.167725V0.167969Z" fill="white"/>
</mask>
<g mask="url(#mask0_530_5441)">
<path d="M2.10469 14.3745C1.93342 14.3745 1.7692 14.3066 1.64807 14.1854C1.5271 14.0643 1.45901 13.9001 1.45901 13.7288V11.6809C1.08154 11.5469 0.754853 11.2994 0.523484 10.9724C0.292291 10.6454 0.16796 10.2548 0.16748 9.85426V2.10518C0.168121 1.59166 0.372399 1.09919 0.735465 0.735953C1.09868 0.3729 1.59117 0.168625 2.10469 0.167969H12.4369C12.9506 0.16861 13.4429 0.372887 13.8062 0.735953C14.1694 1.09917 14.3737 1.59166 14.3741 2.10518V9.85426C14.3737 10.3679 14.1694 10.8603 13.8062 11.2235C13.4429 11.5867 12.9506 11.791 12.4369 11.7916H4.95528L2.56148 14.1854C2.44052 14.3066 2.27613 14.3746 2.10485 14.3745H2.10469ZM2.10469 1.45949C1.93358 1.45965 1.76952 1.52774 1.6484 1.64886C1.52727 1.76999 1.45918 1.93405 1.45902 2.10516V9.85424C1.45918 10.0255 1.52727 10.1896 1.6484 10.3107C1.76952 10.4317 1.93358 10.4998 2.10469 10.5001C2.27597 10.5001 2.44035 10.568 2.56132 10.6891C2.68244 10.8103 2.75054 10.9745 2.75054 11.1458V12.1699L4.23128 10.6893C4.35225 10.5682 4.51647 10.5001 4.68775 10.5001H12.4368C12.6081 10.4998 12.7722 10.4317 12.8931 10.3107C13.0143 10.1896 13.0823 10.0255 13.0827 9.85425V2.10517C13.0823 1.93405 13.0143 1.76999 12.8931 1.64887C12.7722 1.52774 12.6081 1.45965 12.4368 1.45949L2.10469 1.45949Z" fill="url(#paint3_linear_530_5441)"/>
</g>
<mask id="mask1_530_5441" style="mask-type:luminance" maskUnits="userSpaceOnUse" x="6" y="6" width="15" height="15">
<path d="M6.60352 6.60352H20.8318V20.8318H6.60352V6.60352Z" fill="white"/>
</mask>
<g mask="url(#mask1_530_5441)">
<path d="M18.8948 20.8315C18.7235 20.8316 18.5593 20.7636 18.4382 20.6423L16.0444 18.2485H8.5627C8.04906 18.248 7.55671 18.0437 7.19347 17.6805C6.83026 17.3173 6.62598 16.8249 6.62549 16.3113V11.1453C6.62549 10.9146 6.74854 10.7016 6.94833 10.5862C7.14812 10.4708 7.39421 10.4708 7.59399 10.5862C7.79395 10.7015 7.91699 10.9146 7.91699 11.1453V16.3113C7.91715 16.4824 7.98525 16.6466 8.10637 16.7676C8.22733 16.8887 8.39156 16.9568 8.56267 16.9569H16.3118C16.483 16.9571 16.6472 17.025 16.7682 17.1462L18.249 18.6269V17.6028C18.249 17.4315 18.3171 17.2673 18.4382 17.1462C18.5593 17.025 18.7235 16.9569 18.8948 16.9569C19.0659 16.9568 19.2301 16.8887 19.3511 16.7676C19.4722 16.6466 19.5403 16.4824 19.5405 16.3113V8.56218C19.5403 8.39107 19.4722 8.22684 19.3511 8.10588C19.2301 7.98476 19.0659 7.91666 18.8948 7.9165H13.7289C13.4982 7.9165 13.2849 7.79346 13.1697 7.59351C13.0544 7.39371 13.0544 7.14762 13.1697 6.94784C13.2849 6.74805 13.4982 6.625 13.7289 6.625H18.8948C19.4084 6.62548 19.9008 6.82976 20.264 7.19298C20.6272 7.5562 20.8315 8.04853 20.832 8.56221V16.3113C20.8315 16.7118 20.7072 17.1024 20.476 17.4295C20.2448 17.7565 19.918 18.0038 19.5405 18.1379V20.1858C19.5405 20.3571 19.4726 20.5213 19.3514 20.6425C19.2303 20.7636 19.0661 20.8315 18.8948 20.8315Z" fill="url(#paint4_linear_530_5441)"/>
</g>
</g>
<defs>
<linearGradient id="paint0_linear_530_5441" x1="2.09421" y1="2.5805" x2="5.42506" y2="9.88573" gradientUnits="userSpaceOnUse">
<stop offset="0.24" stop-color="#1B1464"/>
<stop offset="1" stop-color="#CF2E2E"/>
</linearGradient>
<linearGradient id="paint1_linear_530_5441" x1="2.09422" y1="5.16399" x2="5.42507" y2="12.4692" gradientUnits="userSpaceOnUse">
<stop offset="0.24" stop-color="#1B1464"/>
<stop offset="1" stop-color="#CF2E2E"/>
</linearGradient>
<linearGradient id="paint2_linear_530_5441" x1="2.09422" y1="7.74651" x2="5.42505" y2="15.0517" gradientUnits="userSpaceOnUse">
<stop offset="0.24" stop-color="#1B1464"/>
<stop offset="1" stop-color="#CF2E2E"/>
</linearGradient>
<linearGradient id="paint3_linear_530_5441" x1="-2.22003" y1="-1.70729" x2="29.0782" y2="9.7334" gradientUnits="userSpaceOnUse">
<stop offset="0.24" stop-color="#1B1464"/>
<stop offset="1" stop-color="#CF2E2E"/>
</linearGradient>
<linearGradient id="paint4_linear_530_5441" x1="4.238" y1="4.74974" x2="35.536" y2="16.1902" gradientUnits="userSpaceOnUse">
<stop offset="0.24" stop-color="#1B1464"/>
<stop offset="1" stop-color="#CF2E2E"/>
</linearGradient>
<clipPath id="clip0_530_5441">
<rect width="21" height="21" fill="white"/>
</clipPath>
</defs>
</svg>
